<?xml version="1.0" encoding="utf-8"?>
<!-- Generator: Adobe Illustrator 23.0.2, SVG Export Plug-In . SVG Version: 6.00 Build 0)  -->
<svg version="1.1" id="Слой_1" xmlns="http://www.w3.org/2000/svg" xmlns:xlink="http://www.w3.org/1999/xlink" x="0px" y="0px"
	 viewBox="0 0 28 28" style="enable-background:new 0 0 28 28;" xml:space="preserve">
<style type="text/css">
	.st0{fill-rule:evenodd;clip-rule:evenodd;fill:#0039A6;}
</style>
<path class="st0" d="M0,14C0,6.3,6.3,0,14,0c3.7,0,7.3,1.5,9.9,4.1C26.5,6.7,28,10.3,28,14c0,7.7-6.3,14-14,14C6.3,28,0,21.7,0,14z
	 M14,6c-2.8,0-5,2.2-5,5c0,2.8,2.2,5,5,5s5-2.2,5-5C19,8.2,16.8,6,14,6z M14,14c-1.7,0-3-1.3-3-3c0-1.7,1.3-3,3-3s3,1.3,3,3
	C17,12.7,15.7,14,14,14z M8,24.4v-2c-0.1-1.8,1.2-3.3,3-3.4h6c1.8,0.1,3.1,1.6,3,3.4v2C16.3,26.6,11.7,26.6,8,24.4L8,24.4z M22,22.3
	v0.6c3.7-3.3,5-8.6,3.2-13.2C23.4,5,19,2,14,2C9,2,4.6,5,2.8,9.7C1,14.3,2.3,19.6,6,22.9v-0.6c-0.1-2.8,2.2-5.2,5-5.3h6
	C19.8,17.1,22.1,19.5,22,22.3z"/>
</svg>
