<svg width="14" height="14" viewBox="0 0 14 14" fill="none" xmlns="http://www.w3.org/2000/svg">
<path d="M8.59094 6.99942L13.0441 2.54629C13.2554 2.33532 13.3743 2.04904 13.3745 1.75041C13.3748 1.45179 13.2564 1.16529 13.0455 0.95395C12.8345 0.742605 12.5482 0.623725 12.2496 0.623462C11.951 0.623198 11.6645 0.741572 11.4531 0.952544L7 5.40567L2.54687 0.952544C2.33553 0.741199 2.04888 0.622467 1.75 0.622467C1.45111 0.622467 1.16447 0.741199 0.953123 0.952544C0.741779 1.16389 0.623047 1.45053 0.623047 1.74942C0.623047 2.0483 0.741779 2.33495 0.953123 2.54629L5.40625 6.99942L0.953123 11.4525C0.741779 11.6639 0.623047 11.9505 0.623047 12.2494C0.623047 12.5483 0.741779 12.8349 0.953123 13.0463C1.16447 13.2576 1.45111 13.3764 1.75 13.3764C2.04888 13.3764 2.33553 13.2576 2.54687 13.0463L7 8.59317L11.4531 13.0463C11.6645 13.2576 11.9511 13.3764 12.25 13.3764C12.5489 13.3764 12.8355 13.2576 13.0469 13.0463C13.2582 12.8349 13.3769 12.5483 13.3769 12.2494C13.3769 11.9505 13.2582 11.6639 13.0469 11.4525L8.59094 6.99942Z" fill="#999999"/>
</svg>
