<svg width="16" height="16" viewBox="0 0 16 16" fill="none" xmlns="http://www.w3.org/2000/svg">
<path d="M11.1111 12.4444H9.77778L8 5.77778L6.22222 12.4444H4.88889L2.75556 3.55556H4.26667L5.63556 10.2222L7.37778 3.55556H8.62222L10.3733 10.2222L11.7333 3.55556H13.2444L11.1111 12.4444ZM14.2222 0H1.77778C0.791111 0 0 0.791111 0 1.77778V14.2222C0 14.6937 0.187301 15.1459 0.520699 15.4793C0.854097 15.8127 1.30628 16 1.77778 16H14.2222C14.6937 16 15.1459 15.8127 15.4793 15.4793C15.8127 15.1459 16 14.6937 16 14.2222V1.77778C16 1.30628 15.8127 0.854097 15.4793 0.520699C15.1459 0.187301 14.6937 0 14.2222 0Z" fill="#426CD0"/>
</svg>
