<svg width="32" height="32" viewBox="0 0 32 32" fill="none" xmlns="http://www.w3.org/2000/svg">
<path d="M10.667 6.66699H21.3337C22.3945 6.66699 23.4119 7.08842 24.1621 7.83857C24.9122 8.58871 25.3337 9.60613 25.3337 10.667V21.3337C25.3337 22.3945 24.9122 23.4119 24.1621 24.1621C23.4119 24.9122 22.3945 25.3337 21.3337 25.3337H10.667C9.60613 25.3337 8.58871 24.9122 7.83857 24.1621C7.08842 23.4119 6.66699 22.3945 6.66699 21.3337V10.667C6.66699 9.60613 7.08842 8.58871 7.83857 7.83857C8.58871 7.08842 9.60613 6.66699 10.667 6.66699ZM10.667 9.33366C10.3134 9.33366 9.97423 9.47413 9.72418 9.72418C9.47413 9.97423 9.33366 10.3134 9.33366 10.667V21.3337C9.33366 21.6873 9.47413 22.0264 9.72418 22.2765C9.97423 22.5265 10.3134 22.667 10.667 22.667H21.3337C21.6873 22.667 22.0264 22.5265 22.2765 22.2765C22.5265 22.0264 22.667 21.6873 22.667 21.3337V10.667C22.667 10.3134 22.5265 9.97423 22.2765 9.72418C22.0264 9.47413 21.6873 9.33366 21.3337 9.33366H10.667ZM13.3337 12.0003H18.667C19.0206 12.0003 19.3598 12.1408 19.6098 12.3909C19.8598 12.6409 20.0003 12.98 20.0003 13.3337V18.667C20.0003 19.0206 19.8598 19.3598 19.6098 19.6098C19.3598 19.8598 19.0206 20.0003 18.667 20.0003H13.3337C12.98 20.0003 12.6409 19.8598 12.3909 19.6098C12.1408 19.3598 12.0003 19.0206 12.0003 18.667V13.3337C12.0003 12.98 12.1408 12.6409 12.3909 12.3909C12.6409 12.1408 12.98 12.0003 13.3337 12.0003ZM14.667 14.667V17.3337H17.3337V14.667H14.667ZM10.667 2.66699C11.0206 2.66699 11.3598 2.80747 11.6098 3.05752C11.8598 3.30756 12.0003 3.6467 12.0003 4.00033V6.66699C12.0003 7.02061 11.8598 7.35975 11.6098 7.6098C11.3598 7.85985 11.0206 8.00033 10.667 8.00033C10.3134 8.00033 9.97423 7.85985 9.72418 7.6098C9.47413 7.35975 9.33366 7.02061 9.33366 6.66699V4.00033C9.33366 3.6467 9.47413 3.30756 9.72418 3.05752C9.97423 2.80747 10.3134 2.66699 10.667 2.66699ZM4.00033 9.33366H6.66699C7.02061 9.33366 7.35975 9.47413 7.6098 9.72418C7.85985 9.97423 8.00033 10.3134 8.00033 10.667C8.00033 11.0206 7.85985 11.3598 7.6098 11.6098C7.35975 11.8598 7.02061 12.0003 6.66699 12.0003H4.00033C3.6467 12.0003 3.30756 11.8598 3.05752 11.6098C2.80747 11.3598 2.66699 11.0206 2.66699 10.667C2.66699 10.3134 2.80747 9.97423 3.05752 9.72418C3.30756 9.47413 3.6467 9.33366 4.00033 9.33366ZM25.3337 9.33366H28.0003C28.3539 9.33366 28.6931 9.47413 28.9431 9.72418C29.1932 9.97423 29.3337 10.3134 29.3337 10.667C29.3337 11.0206 29.1932 11.3598 28.9431 11.6098C28.6931 11.8598 28.3539 12.0003 28.0003 12.0003H25.3337C24.98 12.0003 24.6409 11.8598 24.3909 11.6098C24.1408 11.3598 24.0003 11.0206 24.0003 10.667C24.0003 10.3134 24.1408 9.97423 24.3909 9.72418C24.6409 9.47413 24.98 9.33366 25.3337 9.33366ZM4.00033 14.667H6.66699C7.02061 14.667 7.35975 14.8075 7.6098 15.0575C7.85985 15.3076 8.00033 15.6467 8.00033 16.0003C8.00033 16.3539 7.85985 16.6931 7.6098 16.9431C7.35975 17.1932 7.02061 17.3337 6.66699 17.3337H4.00033C3.6467 17.3337 3.30756 17.1932 3.05752 16.9431C2.80747 16.6931 2.66699 16.3539 2.66699 16.0003C2.66699 15.6467 2.80747 15.3076 3.05752 15.0575C3.30756 14.8075 3.6467 14.667 4.00033 14.667ZM25.3337 14.667H28.0003C28.3539 14.667 28.6931 14.8075 28.9431 15.0575C29.1932 15.3076 29.3337 15.6467 29.3337 16.0003C29.3337 16.3539 29.1932 16.6931 28.9431 16.9431C28.6931 17.1932 28.3539 17.3337 28.0003 17.3337H25.3337C24.98 17.3337 24.6409 17.1932 24.3909 16.9431C24.1408 16.6931 24.0003 16.3539 24.0003 16.0003C24.0003 15.6467 24.1408 15.3076 24.3909 15.0575C24.6409 14.8075 24.98 14.667 25.3337 14.667ZM4.00033 20.0003H6.66699C7.02061 20.0003 7.35975 20.1408 7.6098 20.3909C7.85985 20.6409 8.00033 20.98 8.00033 21.3337C8.00033 21.6873 7.85985 22.0264 7.6098 22.2765C7.35975 22.5265 7.02061 22.667 6.66699 22.667H4.00033C3.6467 22.667 3.30756 22.5265 3.05752 22.2765C2.80747 22.0264 2.66699 21.6873 2.66699 21.3337C2.66699 20.98 2.80747 20.6409 3.05752 20.3909C3.30756 20.1408 3.6467 20.0003 4.00033 20.0003ZM25.3337 20.0003H28.0003C28.3539 20.0003 28.6931 20.1408 28.9431 20.3909C29.1932 20.6409 29.3337 20.98 29.3337 21.3337C29.3337 21.6873 29.1932 22.0264 28.9431 22.2765C28.6931 22.5265 28.3539 22.667 28.0003 22.667H25.3337C24.98 22.667 24.6409 22.5265 24.3909 22.2765C24.1408 22.0264 24.0003 21.6873 24.0003 21.3337C24.0003 20.98 24.1408 20.6409 24.3909 20.3909C24.6409 20.1408 24.98 20.0003 25.3337 20.0003ZM10.667 24.0003C11.0206 24.0003 11.3598 24.1408 11.6098 24.3909C11.8598 24.6409 12.0003 24.98 12.0003 25.3337V28.0003C12.0003 28.3539 11.8598 28.6931 11.6098 28.9431C11.3598 29.1932 11.0206 29.3337 10.667 29.3337C10.3134 29.3337 9.97423 29.1932 9.72418 28.9431C9.47413 28.6931 9.33366 28.3539 9.33366 28.0003V25.3337C9.33366 24.98 9.47413 24.6409 9.72418 24.3909C9.97423 24.1408 10.3134 24.0003 10.667 24.0003ZM21.3337 2.66699C21.6873 2.66699 22.0264 2.80747 22.2765 3.05752C22.5265 3.30756 22.667 3.6467 22.667 4.00033V6.66699C22.667 7.02061 22.5265 7.35975 22.2765 7.6098C22.0264 7.85985 21.6873 8.00033 21.3337 8.00033C20.98 8.00033 20.6409 7.85985 20.3909 7.6098C20.1408 7.35975 20.0003 7.02061 20.0003 6.66699V4.00033C20.0003 3.6467 20.1408 3.30756 20.3909 3.05752C20.6409 2.80747 20.98 2.66699 21.3337 2.66699ZM21.3337 24.0003C21.6873 24.0003 22.0264 24.1408 22.2765 24.3909C22.5265 24.6409 22.667 24.98 22.667 25.3337V28.0003C22.667 28.3539 22.5265 28.6931 22.2765 28.9431C22.0264 29.1932 21.6873 29.3337 21.3337 29.3337C20.98 29.3337 20.6409 29.1932 20.3909 28.9431C20.1408 28.6931 20.0003 28.3539 20.0003 28.0003V25.3337C20.0003 24.98 20.1408 24.6409 20.3909 24.3909C20.6409 24.1408 20.98 24.0003 21.3337 24.0003ZM16.0003 2.66699C16.3539 2.66699 16.6931 2.80747 16.9431 3.05752C17.1932 3.30756 17.3337 3.6467 17.3337 4.00033V6.66699C17.3337 7.02061 17.1932 7.35975 16.9431 7.6098C16.6931 7.85985 16.3539 8.00033 16.0003 8.00033C15.6467 8.00033 15.3076 7.85985 15.0575 7.6098C14.8075 7.35975 14.667 7.02061 14.667 6.66699V4.00033C14.667 3.6467 14.8075 3.30756 15.0575 3.05752C15.3076 2.80747 15.6467 2.66699 16.0003 2.66699ZM16.0003 24.0003C16.3539 24.0003 16.6931 24.1408 16.9431 24.3909C17.1932 24.6409 17.3337 24.98 17.3337 25.3337V28.0003C17.3337 28.3539 17.1932 28.6931 16.9431 28.9431C16.6931 29.1932 16.3539 29.3337 16.0003 29.3337C15.6467 29.3337 15.3076 29.1932 15.0575 28.9431C14.8075 28.6931 14.667 28.3539 14.667 28.0003V25.3337C14.667 24.98 14.8075 24.6409 15.0575 24.3909C15.3076 24.1408 15.6467 24.0003 16.0003 24.0003Z" fill="#0039A6"/>
</svg>
