<svg width="24" height="24" viewBox="0 0 24 24" fill="none" xmlns="http://www.w3.org/2000/svg">
<path d="M15.8645 14.3208H15.0515L14.7633 14.0429C15.8067 12.8326 16.3802 11.2875 16.3791 9.68954C16.3791 8.36647 15.9867 7.07312 15.2517 5.97303C14.5166 4.87294 13.4719 4.01553 12.2495 3.50921C11.0272 3.0029 9.68212 2.87042 8.38447 3.12854C7.08683 3.38666 5.89487 4.02377 4.95932 4.95932C4.02377 5.89487 3.38666 7.08683 3.12854 8.38447C2.87042 9.68212 3.0029 11.0272 3.50921 12.2495C4.01553 13.4719 4.87294 14.5166 5.97303 15.2517C7.07312 15.9867 8.36647 16.3791 9.68954 16.3791C11.3465 16.3791 12.8696 15.7719 14.0429 14.7633L14.3208 15.0515V15.8645L19.4666 21L21 19.4666L15.8645 14.3208ZM9.68954 14.3208C7.12693 14.3208 5.05832 12.2521 5.05832 9.68954C5.05832 7.12693 7.12693 5.05832 9.68954 5.05832C12.2521 5.05832 14.3208 7.12693 14.3208 9.68954C14.3208 12.2521 12.2521 14.3208 9.68954 14.3208Z" fill="#0039A6"/>
</svg>
