<svg width="32" height="32" viewBox="0 0 32 32" fill="none" xmlns="http://www.w3.org/2000/svg">
<path d="M8.28 18.6267L9.88 21.3867C9.98667 21.56 10.1867 21.6267 10.3733 21.56L12.3068 20.7814C12.3397 20.7682 12.3772 20.7734 12.4055 20.7949C12.7906 21.088 13.1994 21.3348 13.6532 21.5247C13.6862 21.5385 13.7097 21.5685 13.7146 21.6039L14 23.6667C14.04 23.8533 14.2 24 14.4 24H17.6C17.8 24 17.96 23.8533 18 23.6533L18.2855 21.59C18.2904 21.5549 18.3134 21.525 18.346 21.5111C18.789 21.3212 19.2087 21.0745 19.5945 20.7816C19.6228 20.7601 19.6603 20.7548 19.6932 20.7681L21.6267 21.5467C21.8133 21.6133 22.0133 21.5467 22.12 21.3733L23.72 18.6133C23.8267 18.44 23.7733 18.2267 23.6267 18.0933L21.9798 16.8096C21.9511 16.7872 21.937 16.7511 21.942 16.715C21.9753 16.4793 21.9867 16.234 21.9867 16C21.9867 15.7517 21.9635 15.5149 21.9388 15.2682C21.9354 15.2341 21.9498 15.2005 21.9768 15.1794L23.6267 13.8933C23.7733 13.7733 23.8267 13.5467 23.72 13.3733L22.12 10.6133C22.0133 10.44 21.8133 10.3733 21.6267 10.44L19.6932 11.2186C19.6603 11.2318 19.6228 11.2266 19.5945 11.2051C19.2094 10.912 18.8006 10.6652 18.3468 10.4753C18.3138 10.4615 18.2903 10.4315 18.2854 10.3961L18 8.33333C17.96 8.14667 17.8 8 17.6 8H14.4C14.2 8 14.04 8.14667 14 8.34667L13.7145 10.41C13.7096 10.4451 13.6866 10.475 13.654 10.4889C13.2108 10.6776 12.7806 10.9124 12.4059 11.2038C12.3774 11.226 12.3393 11.2317 12.3058 11.2182L10.3733 10.44C10.1867 10.3733 9.98667 10.44 9.88 10.6133L8.28 13.3733C8.17333 13.5467 8.22667 13.76 8.37333 13.8933L10.0206 15.1774C10.0491 15.1996 10.0633 15.2354 10.0582 15.2711C10.0229 15.5168 10 15.7527 10 16C10 16.2483 10.0231 16.4851 10.0478 16.7318C10.0513 16.7659 10.0369 16.7995 10.0098 16.8206L8.36 18.1067C8.21333 18.24 8.17333 18.4533 8.28 18.6267ZM16 13.72C17.2533 13.72 18.28 14.7467 18.28 16C18.28 17.2533 17.2533 18.28 16 18.28C14.7467 18.28 13.72 17.2533 13.72 16C13.72 14.7467 14.7467 13.72 16 13.72ZM25.3333 4H6.66667C5.18667 4 4 5.2 4 6.66667V25.3333C4 26.8 5.18667 28 6.66667 28H25.3333C26.8133 28 28 26.8 28 25.3333V6.66667C28 5.2 26.8133 4 25.3333 4ZM25.3333 25.2333C25.3333 25.2886 25.2886 25.3333 25.2333 25.3333H6.76667C6.71144 25.3333 6.66667 25.2886 6.66667 25.2333V6.76667C6.66667 6.71144 6.71144 6.66667 6.76667 6.66667H25.2333C25.2886 6.66667 25.3333 6.71144 25.3333 6.76667V25.2333Z" fill="#0039A6"/>
</svg>
