<svg width="32" height="32" viewBox="0 0 32 32" fill="none" xmlns="http://www.w3.org/2000/svg">
<path d="M11.2154 20.7072C11.2154 20.4058 11.1576 20.1237 11.042 19.8609C10.9347 19.5981 10.7448 19.3546 10.4723 19.1304C10.2081 18.8986 9.85726 18.6899 9.41969 18.5043C8.99039 18.3111 8.45375 18.1333 7.80979 17.971C7.02547 17.77 6.27418 17.5188 5.55592 17.2174C4.84591 16.9159 4.21846 16.5527 3.67356 16.1275C3.12867 15.7024 2.69111 15.2077 2.36087 14.6435C2.03889 14.0792 1.8779 13.43 1.8779 12.6957C1.8779 11.9845 2.03889 11.3391 2.36087 10.7594C2.68285 10.1797 3.12867 9.68502 3.69833 9.27536C4.26799 8.8657 4.94085 8.55266 5.71691 8.33623C6.49297 8.11208 7.33507 8 8.24322 8C9.1844 8 10.043 8.12754 10.8191 8.38261C11.6034 8.63768 12.2762 8.9971 12.8377 9.46087C13.3991 9.91691 13.8366 10.4618 14.1503 11.0957C14.4502 11.7015 14.6068 12.3638 14.62 13.0826C14.621 13.1378 14.5762 13.1826 14.5209 13.1826H11.3235C11.2699 13.1826 11.2261 13.1404 11.2223 13.087C11.1982 12.7452 11.1257 12.4292 11.0048 12.1391C10.881 11.8222 10.6911 11.5517 10.4352 11.3275C10.1875 11.0957 9.87377 10.9179 9.494 10.7942C9.12248 10.6628 8.68492 10.5971 8.1813 10.5971C7.71897 10.5971 7.30618 10.6512 6.94291 10.7594C6.58791 10.8599 6.28657 11.0068 6.03889 11.2C5.79121 11.3855 5.60133 11.6097 5.46923 11.8725C5.34539 12.1275 5.28347 12.4058 5.28347 12.7072C5.28347 13.0242 5.36603 13.3101 5.53115 13.5652C5.70452 13.8203 5.9522 14.0522 6.27418 14.2609C6.59617 14.4618 6.98419 14.6473 7.43827 14.8174C7.9006 14.9874 8.42073 15.1459 8.99864 15.2928C9.82424 15.5169 10.5838 15.7913 11.2773 16.1159C11.9708 16.4406 12.5652 16.8271 13.0606 17.2754C13.5642 17.7159 13.9522 18.2222 14.2246 18.7942C14.5054 19.3585 14.6457 19.9884 14.6457 20.6841C14.6457 21.4261 14.4847 22.087 14.1627 22.6667C13.849 23.2386 13.4114 23.7256 12.85 24.1275C12.2886 24.5217 11.6199 24.8232 10.8438 25.0319C10.0678 25.2329 9.22155 25.3333 8.30514 25.3333C7.73548 25.3333 7.16582 25.2831 6.59617 25.1826C6.03476 25.0899 5.494 24.943 4.97387 24.742C4.46201 24.5411 3.98316 24.2899 3.53734 23.9884C3.09152 23.687 2.70349 23.3353 2.37326 22.9333C2.05127 22.5314 1.79534 22.0754 1.60545 21.5652C1.43366 21.0827 1.34311 20.5518 1.33381 19.9725C1.33292 19.9173 1.37778 19.8725 1.43301 19.8725H4.65415C4.70812 19.8725 4.75223 19.9153 4.75508 19.9692C4.77991 20.438 4.87348 20.8425 5.03579 21.1826C5.20917 21.5459 5.44859 21.8435 5.75406 22.0754C6.06779 22.3072 6.4393 22.4773 6.86861 22.5855C7.30618 22.6937 7.78502 22.7478 8.30514 22.7478C8.76748 22.7478 9.17614 22.6976 9.53115 22.5971C9.89441 22.4966 10.1999 22.3575 10.4476 22.1797C10.6952 22.0019 10.8851 21.7894 11.0172 21.542C11.1493 21.287 11.2154 21.0087 11.2154 20.7072Z" fill="#0039A6"/>
<path d="M21.2812 8.23188C21.3264 8.23188 21.3659 8.26221 21.3777 8.30587L22.9764 14.2386C23.0025 14.3355 23.1391 14.3378 23.1686 14.2419L24.9894 8.30257C25.0022 8.26057 25.041 8.23188 25.085 8.23188H29.233C29.2882 8.23188 29.333 8.27666 29.333 8.33188V25.013C29.333 25.0683 29.2882 25.113 29.233 25.113H26.238C26.1827 25.113 26.138 25.0683 26.138 25.013V20.1159L26.2738 12.8969C26.276 12.7818 26.114 12.7548 26.0787 12.8643L23.9436 19.4785C23.9303 19.5198 23.8918 19.5478 23.8484 19.5478H22.2741C22.2301 19.5478 22.1912 19.5189 22.1784 19.4767L20.2922 13.2288C20.2586 13.1175 20.0942 13.1434 20.0965 13.2596L20.2308 20.1159V25.013C20.2308 25.0683 20.1861 25.113 20.1308 25.113H17.1358C17.0806 25.113 17.0358 25.0683 17.0358 25.013V8.33188C17.0358 8.27666 17.0806 8.23188 17.1358 8.23188H21.2812Z" fill="#0039A6"/>
</svg>
