<svg width="169" height="110" viewBox="0 0 169 110" fill="none" xmlns="http://www.w3.org/2000/svg">
<path d="M74.0379 76.8273L98 92V78.1727L74.0379 63L50 78.1727L50.0758 92L74.0379 76.8273Z" fill="#E30613"/>
<path d="M74.0379 94.3041L98 110V95.6959L74.0379 80L50 95.6959L50.0758 110L74.0379 94.3041Z" fill="#E30613"/>
<path d="M4 86H0V110H4V86Z" fill="#C6C6C6"/>
<path d="M14 86H10V110H14V86Z" fill="#C6C6C6"/>
<path d="M24 86H20V110H24V86Z" fill="#C6C6C6"/>
<path d="M34 86H30V110H34V86Z" fill="#C6C6C6"/>
<path d="M44 86H40V110H44V86Z" fill="#C6C6C6"/>
<path d="M122 86H98V110H122V86Z" fill="#004899"/>
<path d="M169 86H145V110H169V86Z" fill="#E30613"/>
<path d="M129.962 42.2558L138 47V42.6744L129.962 38L122 42.6744V47L129.962 42.2558Z" fill="#E30613"/>
<path d="M129.962 53.7287L138 59V54.1938L129.962 49L122 54.1938V59L129.962 53.7287Z" fill="#E30613"/>
<path d="M145.464 53.7287L153 59V54.1938L145.464 49L138 54.1938V59L145.464 53.7287Z" fill="#E30613"/>
<path d="M98 63V86H145V63L121.463 77.8694L98 63Z" fill="#C6C6C6"/>
<path d="M43.4629 66L20 51L43.4629 36L67 51.0735L43.4629 66Z" fill="#004899"/>
<path d="M43.4629 47L20 32.0369L43.4629 17L67 32.1106L43.4629 47Z" fill="#E30613"/>
<path d="M169 17H145V21H169V17Z" fill="#C6C6C6"/>
<path d="M169 26H145V30H169V26Z" fill="#C6C6C6"/>
<path d="M169 35H145V39H169V35Z" fill="#C6C6C6"/>
<path fill-rule="evenodd" clip-rule="evenodd" d="M88 35.425L85.2479 34.75L86.7355 32.35L86.6612 32.275L84.2066 33.775L83.5372 31H83.3884L82.719 33.775L80.3388 32.275L80.2645 32.35L81.7521 34.75L79 35.425V35.575L81.7521 36.25L80.2645 38.65L80.3388 38.725L82.7934 37.225L83.4628 40H83.6116L84.281 37.225L86.6612 38.725L86.7355 38.65L85.2479 36.25L88 35.575V35.425Z" fill="#E30613"/>
<path fill-rule="evenodd" clip-rule="evenodd" d="M102 28.425L99.2479 27.75L100.736 25.35L100.661 25.275L98.2066 26.775L97.5372 24H97.3884L96.719 26.775L94.3388 25.275L94.2645 25.35L95.7521 27.75L93 28.425V28.575L95.7521 29.25L94.2645 31.65L94.3388 31.725L96.7934 30.225L97.4628 33H97.6116L98.281 30.225L100.661 31.725L100.736 31.65L99.2479 29.25L102 28.575V28.425Z" fill="#E30613"/>
<path fill-rule="evenodd" clip-rule="evenodd" d="M116 35.425L113.248 34.75L114.736 32.35L114.661 32.275L112.207 33.775L111.537 31H111.388L110.719 33.775L108.339 32.275L108.264 32.35L109.752 34.75L107 35.425V35.575L109.752 36.25L108.264 38.65L108.339 38.725L110.793 37.225L111.463 40H111.612L112.281 37.225L114.661 38.725L114.736 38.65L113.248 36.25L116 35.575V35.425Z" fill="#E30613"/>
<path d="M97.5371 13.3505L121 28V14.6495L97.5371 0L74 14.6495L74.0742 28L97.5371 13.3505Z" fill="#E30613"/>
<path fill-rule="evenodd" clip-rule="evenodd" d="M104 46.9268L100.006 46.0488L102.12 42.8293C102.042 42.7561 102.042 42.7561 101.964 42.6829L98.5181 44.6585L97.5783 41H97.4217L96.4819 44.6585L93.0361 42.6829C92.9578 42.7561 92.9578 42.7561 92.8795 42.8293L94.994 46.0488L91 46.9268V47.0732L94.994 47.9512L92.8795 51.1707C92.9578 51.2439 92.9578 51.2439 93.0361 51.3171L96.4819 49.3415L97.4217 53H97.5783L98.5181 49.3415L101.964 51.3171C102.042 51.2439 102.042 51.2439 102.12 51.1707L100.006 47.9512L104 47.0732V46.9268Z" fill="#C6C6C6"/>
</svg>
