<svg width="143" height="38" viewBox="0 0 143 38" fill="none" xmlns="http://www.w3.org/2000/svg">
<g clip-path="url(#clip0)">
<path d="M52.8118 23.1161H51.2051V10.4658H55.0105C57.928 10.4658 59.6193 12.1195 59.6193 14.6412C59.6193 17.163 57.928 18.8167 55.0105 18.8167H52.8118V23.1161ZM52.8118 17.3284H55.0105C56.871 17.3284 57.928 16.2949 57.928 14.6412C57.928 12.9876 56.871 11.9541 55.0105 11.9541H52.8118V17.3284Z" fill="#808285"/>
<path d="M66.0012 23.4058C63.1682 23.4058 61.1387 21.4215 61.1387 18.6516C61.1387 15.8818 63.1682 13.8975 66.0012 13.8975C68.8341 13.8975 70.8637 15.8818 70.8637 18.6516C70.8637 21.4215 68.8341 23.4058 66.0012 23.4058ZM66.0012 22.0003C67.9462 22.0003 69.3838 20.5947 69.3838 18.6103C69.3838 16.626 67.9462 15.2204 66.0012 15.2204C64.0562 15.2204 62.6186 16.626 62.6186 18.6103C62.6186 20.5947 64.0562 22.0003 66.0012 22.0003Z" fill="#808285"/>
<path d="M77.6729 21.9996C79.4488 21.9996 80.4213 20.8834 80.4213 20.8834H80.675V22.3303C80.675 22.3303 79.7025 23.3638 77.4615 23.3638C74.7132 23.3638 72.6836 21.3795 72.6836 18.6097C72.6836 15.8398 74.7132 13.8555 77.4615 13.8555C79.9562 13.8555 81.0133 15.0544 81.0133 15.0544L80.379 16.2532C80.379 16.2532 79.4065 15.2197 77.6307 15.2197C75.6011 15.2197 74.1635 16.6253 74.1635 18.6097C74.1635 20.594 75.6434 21.9996 77.6729 21.9996Z" fill="#808285"/>
<path d="M84.8191 15.5091V23.1571H83.2969V14.1035H91.6266V23.1158H90.1044V15.5091H84.8191Z" fill="#808285"/>
<path d="M102.156 17.4108V23.1158H100.719L100.634 21.6275H100.55C100.55 21.6275 99.7462 23.3638 97.4629 23.3638C95.5602 23.3638 94.334 22.2476 94.334 20.594C94.334 18.8577 95.5602 17.7415 97.632 17.7415C99.577 17.7415 100.634 18.4443 100.634 18.4443V17.4108C100.634 16.0052 99.8307 15.2611 98.224 15.2611C96.1944 15.2611 94.8414 16.5426 94.8414 16.5426H94.5877V15.0544C94.5877 15.0544 96.1099 13.8555 98.3931 13.8555C100.761 13.8555 102.156 15.2197 102.156 17.4108ZM100.634 19.8499C100.634 19.8499 99.577 19.1471 97.8857 19.1471C96.4481 19.1471 95.8562 19.6845 95.8562 20.6354C95.8562 21.5035 96.4904 22.0409 97.5475 22.0409C99.873 21.9996 100.634 19.8499 100.634 19.8499Z" fill="#808285"/>
<path d="M103.803 15.5091V14.1035H111.879V15.5091H108.581V23.1571H107.058V15.5091H103.803Z" fill="#808285"/>
<path d="M122.239 18.3616V18.899H114.628C114.797 20.718 116.15 22.0409 118.095 22.0409C120.294 22.0409 121.394 20.8421 121.394 20.8421H121.647V22.3303C121.647 22.3303 120.506 23.3638 117.926 23.3638C115.178 23.3638 113.148 21.3795 113.148 18.6097C113.148 15.8398 115.178 13.8555 117.842 13.8555C120.506 13.8555 122.239 15.5918 122.239 18.3616ZM114.755 17.4935H120.59C120.421 16.2946 119.364 15.2197 117.757 15.2197C116.151 15.2197 115.136 16.2946 114.755 17.4935Z" fill="#808285"/>
<path d="M126.173 19.2298V23.1158H124.65V14.1035H126.173V17.8242H131.5V14.1035H133.022V23.1158H131.5V19.2298H126.173Z" fill="#808285"/>
<path d="M134.924 15.5091V14.1035H143V15.5091H139.702V23.1571H138.18V15.5091H134.924Z" fill="#808285"/>
<path d="M0 0.833008V18.5269C0 20.7179 0 24.0665 1.945 27.6218C2.11413 27.9112 2.24098 28.1593 2.4524 28.4487C2.57924 28.6554 2.70609 28.8207 2.83294 28.9861C5.28533 32.5827 9.5136 35.5179 15.3486 37.7503L15.56 37.833L15.7714 37.7503C21.691 35.5179 25.9193 32.5414 28.3717 28.8621L28.414 28.7794C28.4985 28.6554 28.5831 28.49 28.6677 28.366C28.8368 28.1179 28.9636 27.8699 29.0905 27.6218C31.0355 24.0665 31.0355 20.7593 31.0355 18.5269V0.833008H0ZM28.0334 27.0844C25.877 31.0118 21.691 34.2364 15.5177 36.5928C9.34447 34.2364 5.1162 31.0118 3.00207 27.0844C1.2262 23.7771 1.2262 20.6352 1.2262 18.5269V1.99055H29.8938V18.5269C29.8516 20.5939 29.8516 23.7358 28.0334 27.0844Z" fill="#808285"/>
<path d="M28.2868 18.7333V3.72656H2.74805V18.7333C2.74805 19.4774 2.74805 20.3869 2.87489 21.4204L8.9636 17.6171L15.5174 13.5243L22.0712 17.6584L28.1599 21.4618L28.2868 18.7333Z" fill="white"/>
<path d="M15.5185 18.5684L4.01758 25.7617C5.49747 28.9036 8.62639 32.2522 15.5185 34.8566C22.3683 32.2522 25.5395 28.9036 27.0194 25.7617L15.5185 18.5684Z" fill="#0054A6"/>
<path d="M19.533 27.1253L17.0806 27.7041L18.3914 29.8124L18.3068 29.8951L16.1504 28.5722L15.5585 30.97H15.4316L14.8396 28.5722L12.6832 29.8538C12.6409 29.8124 12.6409 29.8124 12.5987 29.7711L13.9094 27.6627L11.457 27.0839V26.9599L13.9094 26.3812L12.5987 24.2728C12.6409 24.2314 12.6409 24.2314 12.6832 24.1901L14.8396 25.513L15.4316 23.1152H15.5585L16.1504 25.513L18.3068 24.2314C18.3491 24.2728 18.3491 24.2728 18.3914 24.3141L17.0383 26.4225L19.4907 27.0013V27.1253H19.533Z" fill="#0054A6"/>
<path d="M22.0733 17.6175L15.5195 13.4834L8.96566 17.5761L2.87695 21.4208C2.96152 22.3717 3.17293 23.4465 3.55348 24.5627C3.68032 24.9761 3.84945 25.3482 4.06087 25.7616L15.5618 18.5683L27.0204 25.7616C27.2318 25.3069 27.4009 24.8521 27.57 24.3974C27.9083 23.3225 28.1197 22.3303 28.2043 21.4208L22.0733 17.6175Z" fill="#ED1C24"/>
<path fill-rule="evenodd" clip-rule="evenodd" d="M10.4852 12.7392L8.62475 12.2845L9.63954 10.6722C9.63954 10.6309 9.59725 10.6309 9.59725 10.5895L7.94823 11.5817L7.5254 9.7627H7.44084L6.97573 11.5817L5.3267 10.5895C5.28442 10.5895 5.28442 10.6309 5.24214 10.6309L6.25692 12.2431L4.39648 12.6565V12.7392L6.25692 13.194L5.24214 14.8063C5.24214 14.8476 5.28442 14.8476 5.28442 14.889L6.93345 13.8968L7.35627 15.7158H7.44084L7.90595 13.8968L9.55497 14.889C9.55497 14.889 9.59725 14.8476 9.63954 14.8063L8.62475 13.194L10.4852 12.7806V12.7392Z" fill="#ED1C24"/>
<path fill-rule="evenodd" clip-rule="evenodd" d="M26.6818 12.7389L24.8213 12.2842L25.8361 10.6719C25.8361 10.6305 25.7938 10.6305 25.7938 10.5892L24.1025 11.6227L23.6797 9.80371H23.5951L23.13 11.6227L21.481 10.6305C21.4387 10.6305 21.4387 10.6719 21.3964 10.6719L22.4112 12.2842L20.5508 12.6976V12.7802L22.4112 13.235L21.3964 14.8473C21.3964 14.8886 21.4387 14.8886 21.4387 14.93L23.0877 13.9378L23.5106 15.7568H23.5951L24.0602 13.9378L25.7093 14.93C25.7515 14.93 25.7515 14.8886 25.7938 14.8473L24.779 13.235L26.6395 12.8216L26.6818 12.7389Z" fill="#ED1C24"/>
<path fill-rule="evenodd" clip-rule="evenodd" d="M18.5614 8.15004L16.7009 7.69529L17.7157 6.083C17.7157 6.04166 17.6734 6.04166 17.6734 6.00032L16.0244 7.03384L15.6016 5.21484H15.517L15.0519 7.03384L13.4029 6.04166C13.3606 6.04166 13.3606 6.083 13.3183 6.083L14.3331 7.69529L12.4727 8.1087V8.19138L14.3331 8.64613L13.3183 10.2584C13.3183 10.2584 13.3606 10.2998 13.3606 10.3411L15.0096 9.34892L15.4324 11.1679H15.517L15.9821 9.34892L17.6311 10.3411C17.6734 10.3411 17.6734 10.2998 17.7157 10.2998L16.7009 8.68747L18.5614 8.27406V8.15004Z" fill="#ED1C24"/>
<path fill-rule="evenodd" clip-rule="evenodd" d="M19.535 27.0013L17.0826 26.4225L18.3933 24.3141C18.3511 24.2728 18.3511 24.2728 18.3088 24.2314L16.1524 25.513L15.5604 23.1152H15.4336L14.8416 25.513L12.6852 24.2314C12.6429 24.2728 12.6429 24.2728 12.6006 24.3141L13.9114 26.4225L11.459 27.0013V27.1253L13.9114 27.7041L12.6006 29.7711C12.6429 29.8124 12.6429 29.8124 12.6852 29.8538L14.8416 28.5722L15.4336 30.97H15.5604L16.1524 28.5722L18.3088 29.8538C18.3511 29.8124 18.3511 29.8124 18.3933 29.7711L17.0826 27.7041L19.535 27.1253V27.0013Z" fill="white"/>
</g>
<defs>
<clipPath id="clip0">
<rect width="143" height="37" fill="white" transform="translate(0 0.833008)"/>
</clipPath>
</defs>
</svg>
