<svg width="53" height="63" viewBox="0 0 53 63" fill="none" xmlns="http://www.w3.org/2000/svg">
<g style="mix-blend-mode:multiply">
<path d="M0 0V30.1274C0 33.8581 0 39.5598 3.32153 45.6134C3.61035 46.1061 3.82698 46.5285 4.18801 47.0212C4.40463 47.3732 4.62125 47.6547 4.83787 47.9363C9.02589 54.0603 16.2466 59.0581 26.2112 62.8592L26.5722 63L26.9332 62.8592C37.0422 59.0581 44.2629 53.9899 48.451 47.7251L48.5232 47.5844C48.6676 47.3732 48.812 47.0916 48.9564 46.8804C49.2452 46.4581 49.4619 46.0358 49.6785 45.6134C53 39.5598 53 33.9285 53 30.1274V0H0Z" fill="#EEF4FF"/>
</g>
<path d="M18 21.0662H18.6145C18.6145 21.0662 21.2771 18.1854 25.1687 18.1854C27.4217 18.1854 28.8554 19.3377 28.8554 21.0662C28.8554 24.7152 21.8916 27.2119 21.8916 32.9735H27.6265C27.6265 28.5563 35 26.4437 35 20.4901C35 16.0728 31.7229 13 25.7831 13C20.8675 13 18 15.4967 18 15.4967V21.0662ZM21.4819 38.9272C21.4819 40.8477 22.9157 42 24.759 42C26.6024 42 28.0361 40.8477 28.0361 38.9272C28.0361 37.0066 26.6024 35.8543 24.759 35.8543C22.9157 35.8543 21.4819 37.0066 21.4819 38.9272Z" fill="#808285"/>
</svg>
