<svg width="53" height="63" viewBox="0 0 53 63" fill="none" xmlns="http://www.w3.org/2000/svg">
<path d="M0 0V30.1274C0 33.8581 0 39.5598 3.32153 45.6134C3.61035 46.1061 3.82698 46.5285 4.18801 47.0212C4.40463 47.3732 4.62125 47.6547 4.83787 47.9363C9.02589 54.0603 16.2466 59.0581 26.2112 62.8592L26.5722 63L26.9332 62.8592C37.0422 59.0581 44.2629 53.9899 48.451 47.7251L48.5232 47.5844C48.6676 47.3732 48.812 47.0916 48.9564 46.8804C49.2452 46.4581 49.4619 46.0358 49.6785 45.6134C53 39.5598 53 33.9285 53 30.1274V0H0Z" fill="white"/>
<mask id="mask0" mask-type="alpha" maskUnits="userSpaceOnUse" x="0" y="0" width="53" height="63">
<g style="mix-blend-mode:color-burn">
<path d="M0 0V30.1274C0 33.8581 0 39.5598 3.32153 45.6134C3.61035 46.1061 3.82698 46.5285 4.18801 47.0212C4.40463 47.3732 4.62125 47.6547 4.83787 47.9363C9.02589 54.0603 16.2466 59.0581 26.2112 62.8592L26.5722 63L26.9332 62.8592C37.0422 59.0581 44.2629 53.9899 48.451 47.7251L48.5232 47.5844C48.6676 47.3732 48.812 47.0916 48.9564 46.8804C49.2452 46.4581 49.4619 46.0358 49.6785 45.6134C53 39.5598 53 33.9285 53 30.1274V0H0Z" fill="url(#paint0_linear)"/>
</g>
</mask>
<g mask="url(#mask0)">
<path fill-rule="evenodd" clip-rule="evenodd" d="M1.52212 31.2987L0.592547 31.0734L1.09502 30.2471L1.0699 30.2221L0.240815 30.7228L0.0147015 29.7964H-0.0355458L-0.261659 30.7228L-1.09074 30.2221L-1.11587 30.2471L-0.613391 31.0734L-1.54297 31.2987V31.3488L-0.613391 31.5742L-1.11587 32.4005L-1.09074 32.4255L-0.261659 31.9247L-0.0355458 32.8512H0.0147015L0.240815 31.9247L1.0699 32.4255L1.09502 32.4005L0.592547 31.5742L1.52212 31.3488V31.2987Z" fill="#ED1C24"/>
<path fill-rule="evenodd" clip-rule="evenodd" d="M6.39517 28.7952L5.46559 28.5698L5.96807 27.7436L5.94294 27.7185L5.11386 28.2193L4.88775 27.2928H4.8375L4.61139 28.2193L3.7823 27.7185L3.75718 27.7436L4.25966 28.5698L3.33008 28.7952V28.8453L4.25966 29.0706L3.75718 29.8969L3.7823 29.922L4.61139 29.4212L4.8375 30.3476H4.88775L5.11386 29.4212L5.94294 29.922L5.96807 29.8969L5.46559 29.0706L6.39517 28.8453V28.7952Z" fill="#ED1C24"/>
<path fill-rule="evenodd" clip-rule="evenodd" d="M11.2956 31.2987L10.366 31.0734L10.8685 30.2471L10.8433 30.2221L10.0143 30.7228L9.78814 29.7964H9.73789L9.51178 30.7228L8.6827 30.2221L8.65757 30.2471L9.16005 31.0734L8.23047 31.2987V31.3488L9.16005 31.5742L8.65757 32.4005L8.6827 32.4255L9.51178 31.9247L9.73789 32.8512H9.78814L10.0143 31.9247L10.8433 32.4255L10.8685 32.4005L10.366 31.5742L11.2956 31.3488V31.2987Z" fill="#ED1C24"/>
<path d="M20.9676 16.075H12.9531V17.6775H20.9676V16.075Z" fill="#BCBEC0"/>
<path d="M20.9676 19.2803H12.9531V20.8828H20.9676V19.2803Z" fill="#BCBEC0"/>
<path d="M20.9676 22.4601H12.9531V24.0626H20.9676V22.4601Z" fill="#BCBEC0"/>
<path d="M28.9813 0H20.9668V10.917H28.9813V0Z" fill="#ED1C24"/>
<path d="M20.9502 26.4454L15.2832 32.0934L20.9502 37.7413L26.6173 32.0934L20.9502 26.4454Z" fill="#BCBEC0"/>
<path d="M4.93829 23.6121L12.9528 28.7451V24.0628L4.93829 18.9047L-3.07617 24.0628V28.7451L4.93829 23.6121Z" fill="#ED1C24"/>
<path d="M20.9676 52.9078L28.9569 58.0659L28.9821 53.3836L20.9676 48.2255L12.9531 53.3836V58.0659L20.9676 52.9078Z" fill="#ED1C24"/>
<path d="M20.9676 58.8418L28.9569 63.9999L28.9821 59.3175L20.9676 54.1595L12.9531 59.3175V63.9999L20.9676 58.8418Z" fill="#ED1C24"/>
<path d="M4.93829 4.78229L12.9528 9.94034V5.25803L4.93829 0.0999756L-3.07617 5.25803V9.94034L4.93829 4.78229Z" fill="#ED1C24"/>
<path d="M4.93829 15.0988L-3.07617 9.94077L4.93829 4.78271L12.9528 9.96581L4.93829 15.0988Z" fill="#0054A6"/>
<path d="M28.9561 16.075L20.9668 10.942L28.9561 5.75891L36.9706 10.942L28.9561 16.075Z" fill="#0054A6"/>
<path d="M1.74854 55.9874H0.140625V63.9749H1.74854V55.9874Z" fill="#BCBEC0"/>
<path d="M4.938 55.9874H3.33008V63.9749H4.938V55.9874Z" fill="#BCBEC0"/>
<path d="M8.15479 55.9874H6.54688V63.9749H8.15479V55.9874Z" fill="#BCBEC0"/>
<path d="M11.3442 55.9874H9.73633V63.9749H11.3442V55.9874Z" fill="#BCBEC0"/>
<path d="M36.9969 55.9874H28.9824V63.9749H36.9969V55.9874Z" fill="#0054A6"/>
<path d="M52.9996 24.0625H36.9707V32.05H52.9996V24.0625Z" fill="#ED1C24"/>
<path d="M36.9957 32.05H20.9668V33.6525H36.9957V32.05Z" fill="#BCBEC0"/>
<path d="M36.9957 35.2297H20.9668V36.8322H36.9957V35.2297Z" fill="#BCBEC0"/>
<path d="M36.9957 38.4351H20.9668V40.0376H36.9957V38.4351Z" fill="#BCBEC0"/>
<path d="M53.0008 55.9874H44.9863V63.9749H53.0008V55.9874Z" fill="#ED1C24"/>
<path d="M39.6335 36.7577L42.2967 38.4604V36.908L39.6335 35.2053L36.9453 36.908V38.4604L39.6335 36.7577Z" fill="#ED1C24"/>
<path d="M44.96 36.7577L47.6231 38.4604L47.6482 36.908L44.96 35.2053L42.2969 36.908V38.4604L44.96 36.7577Z" fill="#ED1C24"/>
<path d="M50.3116 36.7577L52.9747 38.4604V36.908L50.3116 35.2053L47.6484 36.908V38.4604L50.3116 36.7577Z" fill="#ED1C24"/>
<path d="M39.6335 40.8637L42.2967 42.5664V41.014L39.6335 39.2863L36.9453 41.014V42.5664L39.6335 40.8637Z" fill="#ED1C24"/>
<path d="M44.96 40.8637L47.6231 42.5664L47.6482 41.014L44.96 39.2863L42.2969 41.014V42.5664L44.96 40.8637Z" fill="#ED1C24"/>
<path d="M50.3116 40.8637L52.9747 42.5664V41.014L50.3116 39.2863L47.6484 41.014V42.5664L50.3116 40.8637Z" fill="#ED1C24"/>
<path d="M39.6335 44.8202L42.2967 46.5479V44.9955L39.6335 43.2678L36.9453 44.9955V46.5479L39.6335 44.8202Z" fill="#ED1C24"/>
<path d="M44.96 44.8202L47.6231 46.5479L47.6482 44.9955L44.96 43.2678L42.2969 44.9955V46.5479L44.96 44.8202Z" fill="#ED1C24"/>
<path d="M50.3116 44.8202L52.9747 46.5479V44.9955L50.3116 43.2678L47.6484 44.9955V46.5479L50.3116 44.8202Z" fill="#ED1C24"/>
<path d="M44.9852 29.1953L36.9707 24.0622L44.9852 18.8792L52.9996 24.0622L44.9852 29.1953Z" fill="#0054A6"/>
<path d="M28.9824 48.025V55.9874H44.9862V48.025L36.9718 53.158L28.9824 48.025Z" fill="#BCBEC0"/>
<path d="M36.9706 24.0374V16.075H20.9668V24.0374L28.9813 18.9044L36.9706 24.0374Z" fill="#ED1C24"/>
<path d="M20.9922 24.0628L20.9668 24.0375V24.0628H20.9922Z" fill="#ED1C24"/>
<path d="M4.93829 55.5618L-3.07617 50.4288L4.93829 45.2708L12.9528 50.4288L4.93829 55.5618Z" fill="#0054A6"/>
<path d="M4.93829 49.2267L-3.07617 44.0937L4.93829 38.9357L12.9528 44.0937L4.93829 49.2267Z" fill="#ED1C24"/>
<path fill-rule="evenodd" clip-rule="evenodd" d="M28.2034 44.8704L26.2438 44.3946L27.299 42.692C27.2738 42.6669 27.2487 42.6419 27.2236 42.6169L25.5152 43.6685L25.063 41.7155H24.9625L24.4851 43.6685L22.7767 42.6169C22.7516 42.6419 22.7265 42.6669 22.7013 42.692L23.7565 44.3946L21.7969 44.8453V44.9455L23.7565 45.4212L22.7013 47.1239C22.7265 47.1489 22.7516 47.174 22.7767 47.199L24.4851 46.1474L24.9373 48.1004H25.0378L25.5152 46.1474L27.2236 47.199C27.2487 47.174 27.2738 47.1489 27.299 47.1239L26.2438 45.4212L28.2034 44.9705V44.8704Z" fill="#BCBEC0"/>
</g>
<defs>
<linearGradient id="paint0_linear" x1="60.0667" y1="-17.2358" x2="9.26056" y2="86.4057" gradientUnits="userSpaceOnUse">
<stop stop-color="#0059DE"/>
<stop offset="1" stop-color="#F7252D"/>
</linearGradient>
</defs>
</svg>
