<svg width="24" height="24" viewBox="0 0 24 24" fill="none" xmlns="http://www.w3.org/2000/svg">
<path d="M5.63822 6.67798C6.2935 6.00667 6.94879 5.40156 7.23899 5.52447C7.70705 5.71357 7.23899 6.49833 6.95815 6.96162C6.72412 7.35873 4.28084 10.6396 4.28084 12.9277C4.28084 14.1379 4.73018 15.1402 5.53524 15.7453C6.23733 16.2747 7.1641 16.4355 8.00661 16.1802C9.00826 15.8871 9.83205 14.8565 10.8711 13.5612C12.0039 12.1524 13.5204 10.3087 14.6905 10.3087C16.2164 10.3087 16.2351 11.2636 16.3381 12.0011C12.7996 12.6062 11.3018 15.4711 11.3018 17.0784C11.3018 18.6858 12.6498 20 14.3067 20C15.8326 20 18.3227 18.7425 18.6971 14.2325H21V11.8687H18.6878C18.5474 10.3087 17.6674 7.89766 14.9152 7.89766C12.8089 7.89766 11.0022 9.70356 10.2907 10.5829C9.7478 11.2731 8.36234 12.9277 8.14703 13.1546C7.913 13.4383 7.51046 13.9488 7.10793 13.9488C6.68667 13.9488 6.43392 13.1641 6.77093 12.1335C7.09857 11.1029 8.0815 9.42937 8.50275 8.80534C9.23293 7.72748 9.71971 6.98999 9.71971 5.70412C9.71971 3.65239 8.18447 3 7.37004 3C6.13436 3 5.05782 3.9455 4.82379 4.18187C4.48678 4.52225 4.20595 4.8059 4 5.06118L5.63822 6.67798ZM14.3348 17.7024C14.0446 17.7024 13.6421 17.4566 13.6421 17.0217C13.6421 16.4544 14.3254 14.9416 16.3287 14.4121C16.0479 16.9555 14.9901 17.7024 14.3348 17.7024Z" fill="#0039A6"/>
</svg>
