<svg width="24" height="24" viewBox="0 0 24 24" fill="none" xmlns="http://www.w3.org/2000/svg">
<path fill-rule="evenodd" clip-rule="evenodd" d="M4 2C2.89543 2 2 2.89543 2 4V20C2 21.1046 2.89543 22 4 22H20C21.1046 22 22 21.1046 22 20V4C22 2.89543 21.1046 2 20 2H4ZM8.14044 11.0473C8.17777 10.9086 8.19644 10.7699 8.19644 10.6313C8.19644 10.3539 8.13777 10.1246 8.02044 9.94328C7.9031 9.76195 7.74577 9.62062 7.54844 9.51928C7.35644 9.41795 7.1351 9.34862 6.88444 9.31128C6.6391 9.26862 6.38577 9.24728 6.12444 9.24728C5.96977 9.24728 5.81244 9.24995 5.65244 9.25528C5.49777 9.26062 5.34577 9.26862 5.19644 9.27928C5.0471 9.28995 4.90577 9.30328 4.77244 9.31928C4.64444 9.33528 4.52977 9.35128 4.42844 9.36728V14.8873C4.5671 14.9193 4.7191 14.9433 4.88444 14.9593C5.0551 14.9753 5.22044 14.9859 5.38044 14.9913C5.54577 15.0019 5.69777 15.0073 5.83644 15.0073H6.18844C6.46577 15.0073 6.7351 14.9753 6.99644 14.9113C7.25777 14.8473 7.48977 14.7486 7.69244 14.6153C7.90044 14.4819 8.06577 14.3113 8.18844 14.1033C8.3111 13.8899 8.37244 13.6393 8.37244 13.3513C8.37244 13.1326 8.34044 12.9433 8.27644 12.7833C8.21777 12.6233 8.1351 12.4873 8.02844 12.3753C7.92177 12.2633 7.79644 12.1753 7.65244 12.1113C7.50844 12.0473 7.35644 12.0019 7.19644 11.9753V11.9273C7.37777 11.8846 7.53244 11.8206 7.66044 11.7353C7.78844 11.6446 7.89244 11.5433 7.97244 11.4313C8.05244 11.3139 8.10844 11.1859 8.14044 11.0473ZM6.58044 14.0553C6.45777 14.0873 6.32977 14.1033 6.19644 14.1033H6.00444C5.9351 14.0979 5.86577 14.0953 5.79644 14.0953C5.73244 14.0899 5.6711 14.0846 5.61244 14.0793C5.55377 14.0739 5.5111 14.0659 5.48444 14.0553V12.5113H6.06844C6.2071 12.5113 6.34577 12.5193 6.48444 12.5353C6.6231 12.5513 6.74844 12.5886 6.86044 12.6473C6.97244 12.7006 7.0631 12.7779 7.13244 12.8793C7.20177 12.9806 7.23644 13.1193 7.23644 13.2953C7.23644 13.4339 7.2071 13.5539 7.14844 13.6553C7.08977 13.7566 7.01244 13.8419 6.91644 13.9113C6.82044 13.9753 6.70844 14.0233 6.58044 14.0553ZM6.09244 11.6713C5.99644 11.6766 5.9111 11.6793 5.83644 11.6793H5.48444V10.1833C5.54844 10.1726 5.6391 10.1646 5.75644 10.1593C5.87377 10.1539 6.00177 10.1513 6.14044 10.1513C6.2631 10.1513 6.38044 10.1619 6.49244 10.1833C6.60444 10.2046 6.7031 10.2419 6.78844 10.2953C6.8791 10.3486 6.9511 10.4206 7.00444 10.5113C7.05777 10.6019 7.08444 10.7166 7.08444 10.8553C7.08444 11.0633 7.00977 11.2313 6.86044 11.3593C6.71644 11.4873 6.5431 11.5833 6.34044 11.6473C6.27644 11.6579 6.19377 11.6659 6.09244 11.6713ZM13.819 10.9113L13.699 12.0233V14.9273H14.795V9.32728H13.803L12.387 11.8713L12.147 12.5273H12.115L11.851 11.8873L10.355 9.32728H9.355V14.9273H10.395V12.0153L10.235 10.9113H10.275L10.627 11.7993L11.883 13.8953H12.235L13.427 11.8073L13.771 10.9113H13.819ZM16.6894 9.28728C16.4228 9.30862 16.1774 9.34062 15.9534 9.38328V14.9273H17.0494V12.9993C17.0761 13.0046 17.1188 13.0099 17.1774 13.0153L17.3694 13.0313H17.5534H17.6814C17.9588 13.0313 18.2254 12.9966 18.4814 12.9273C18.7428 12.8579 18.9748 12.7459 19.1774 12.5913C19.3801 12.4366 19.5428 12.2393 19.6654 11.9993C19.7881 11.7539 19.8494 11.4553 19.8494 11.1033C19.8494 10.7139 19.7774 10.3993 19.6334 10.1593C19.4948 9.91395 19.3134 9.72462 19.0894 9.59128C18.8654 9.45262 18.6121 9.36195 18.3294 9.31928C18.0521 9.27128 17.7748 9.24728 17.4974 9.24728C17.2308 9.24728 16.9614 9.26062 16.6894 9.28728ZM17.2814 10.2073C17.3774 10.1966 17.4788 10.1913 17.5854 10.1913C17.7241 10.1913 17.8601 10.2046 17.9934 10.2313C18.1268 10.2579 18.2441 10.3059 18.3454 10.3753C18.4521 10.4446 18.5374 10.5379 18.6014 10.6553C18.6654 10.7673 18.6974 10.9113 18.6974 11.0873C18.6974 11.2953 18.6628 11.4633 18.5934 11.5913C18.5294 11.7193 18.4414 11.8206 18.3294 11.8953C18.2174 11.9646 18.0894 12.0126 17.9454 12.0393C17.8068 12.0659 17.6654 12.0793 17.5214 12.0793H17.4174H17.2814C17.2334 12.0739 17.1881 12.0686 17.1454 12.0633C17.1028 12.0579 17.0708 12.0526 17.0494 12.0473V10.2313C17.1081 10.2206 17.1854 10.2126 17.2814 10.2073Z" fill="#048750"/>
</svg>
