<svg width="24" height="24" viewBox="0 0 24 24" fill="none" xmlns="http://www.w3.org/2000/svg">
<path d="M2.09636 8.00117C2.04114 8.00015 2 8.04477 2 8.1V19.4252C2 19.4819 2.04487 19.5276 2.10155 19.5271C2.8043 19.5203 7.0612 19.5856 11.9555 21.9782C11.9833 21.9918 12.0167 21.9918 12.0445 21.9782C16.9388 19.5856 21.1957 19.5203 21.8984 19.5271C21.9551 19.5276 22 19.4819 22 19.4252V8.1C22 8.04477 21.9589 8.00015 21.9036 8.00117C21.1583 8.01495 16.2295 8.19122 12.0479 10.4451C12.0181 10.4612 11.9819 10.4612 11.9521 10.4451C7.77054 8.19122 2.84172 8.01495 2.09636 8.00117Z" fill="#0039A6"/>
<path d="M12 8C13.6569 8 15 6.65685 15 5C15 3.34315 13.6569 2 12 2C10.3431 2 9 3.34315 9 5C9 6.65685 10.3431 8 12 8Z" fill="#0039A6"/>
</svg>
