<svg width="32" height="32" viewBox="0 0 32 32" fill="none" xmlns="http://www.w3.org/2000/svg">
<path d="M19.75 27.75H12.25C12.1125 27.75 12 27.8625 12 28V29C12 29.5531 12.4469 30 13 30H19C19.5531 30 20 29.5531 20 29V28C20 27.8625 19.8875 27.75 19.75 27.75ZM16 2C10.3406 2 5.75 6.59062 5.75 12.25C5.75 16.0231 7.79013 19.3202 10.8251 21.0991C10.8559 21.1171 10.875 21.1501 10.875 21.1858V24.75C10.875 25.3031 11.3219 25.75 11.875 25.75H20.125C20.6781 25.75 21.125 25.3031 21.125 24.75V21.1858C21.125 21.1501 21.1441 21.1171 21.1749 21.0991C24.2099 19.3202 26.25 16.0231 26.25 12.25C26.25 6.59062 21.6594 2 16 2ZM19.9969 19.1812L18.9249 19.8024C18.894 19.8202 18.875 19.8532 18.875 19.8889V23.4C18.875 23.4552 18.8302 23.5 18.775 23.5H13.225C13.1698 23.5 13.125 23.4552 13.125 23.4V19.8889C13.125 19.8532 13.106 19.8202 13.0751 19.8024L12.0031 19.1812C9.54375 17.7594 8 15.1406 8 12.25C8 7.83125 11.5813 4.25 16 4.25C20.4187 4.25 24 7.83125 24 12.25C24 15.1406 22.4563 17.7594 19.9969 19.1812Z" fill="#0039A6"/>
</svg>
