<svg width="24" height="24" viewBox="0 0 24 24" fill="none" xmlns="http://www.w3.org/2000/svg">
<path fill-rule="evenodd" clip-rule="evenodd" d="M4 2C2.89543 2 2 2.89543 2 4V20C2 21.1046 2.89543 22 4 22H20C21.1046 22 22 21.1046 22 20V4C22 2.89543 21.1046 2 20 2H4ZM5.15209 9.28728C5.01343 9.29795 4.88809 9.31128 4.77609 9.32728V14.9353C4.84543 14.9459 4.94943 14.9539 5.08809 14.9593C5.22676 14.9699 5.37076 14.9779 5.52009 14.9833C5.67476 14.9939 5.82143 15.0019 5.96009 15.0073C6.10409 15.0126 6.21876 15.0153 6.30409 15.0153C6.84276 15.0153 7.29343 14.9326 7.65609 14.7673C8.02409 14.6019 8.32009 14.3833 8.54409 14.1113C8.76809 13.8393 8.92809 13.5273 9.02409 13.1753C9.12009 12.8233 9.16809 12.4579 9.16809 12.0793C9.16809 11.6633 9.11743 11.2819 9.01609 10.9353C8.91476 10.5886 8.75476 10.2899 8.53609 10.0393C8.31743 9.78862 8.03209 9.59395 7.68009 9.45528C7.32809 9.31662 6.90409 9.24728 6.40809 9.24728C6.29609 9.24728 6.16809 9.24995 6.02409 9.25528C5.88543 9.25528 5.74143 9.25795 5.59209 9.26328C5.44276 9.26862 5.29609 9.27662 5.15209 9.28728ZM6.13609 10.2313C6.25876 10.2259 6.37876 10.2233 6.49609 10.2233C6.80009 10.2233 7.05076 10.2793 7.24809 10.3913C7.44543 10.5033 7.60009 10.6473 7.71209 10.8233C7.82943 10.9993 7.90943 11.1993 7.95209 11.4233C7.99476 11.6419 8.01609 11.8606 8.01609 12.0793C8.01609 12.3299 7.99209 12.5753 7.94409 12.8153C7.89609 13.0499 7.81076 13.2579 7.68809 13.4393C7.57076 13.6206 7.40809 13.7673 7.20009 13.8793C6.99743 13.9859 6.74143 14.0393 6.43209 14.0393H6.31209C6.25876 14.0339 6.20276 14.0313 6.14409 14.0313C6.08543 14.0259 6.02943 14.0233 5.97609 14.0233C5.92809 14.0179 5.89343 14.0126 5.87209 14.0073V10.2553C5.93076 10.2446 6.01876 10.2366 6.13609 10.2313ZM10.5958 9.97528C10.1851 10.4766 9.97978 11.1939 9.97978 12.1273C9.97978 12.5646 10.0278 12.9619 10.1238 13.3193C10.2198 13.6766 10.3638 13.9833 10.5558 14.2393C10.7531 14.4953 11.0011 14.6926 11.2998 14.8313C11.5984 14.9699 11.9504 15.0393 12.3558 15.0393C13.1131 15.0393 13.6971 14.7886 14.1078 14.2873C14.5238 13.7806 14.7318 13.0606 14.7318 12.1273C14.7318 11.6899 14.6838 11.2926 14.5878 10.9353C14.4918 10.5779 14.3451 10.2713 14.1478 10.0153C13.9504 9.75928 13.7024 9.56195 13.4038 9.42328C13.1051 9.28462 12.7558 9.21528 12.3558 9.21528C11.5931 9.21528 11.0064 9.46862 10.5958 9.97528ZM11.2038 12.9113C11.1558 12.6713 11.1318 12.4099 11.1318 12.1273C11.1318 11.4606 11.2384 10.9726 11.4518 10.6633C11.6651 10.3486 11.9664 10.1913 12.3558 10.1913C12.5798 10.1913 12.7691 10.2419 12.9238 10.3433C13.0784 10.4393 13.2038 10.5753 13.2998 10.7513C13.3958 10.9273 13.4651 11.1326 13.5078 11.3673C13.5558 11.6019 13.5798 11.8553 13.5798 12.1273C13.5798 12.8099 13.4731 13.3033 13.2598 13.6073C13.0464 13.9113 12.7451 14.0633 12.3558 14.0633C12.1424 14.0633 11.9584 14.0153 11.8038 13.9193C11.6491 13.8233 11.5211 13.6899 11.4198 13.5193C11.3238 13.3486 11.2518 13.1459 11.2038 12.9113ZM18.8512 14.9593C19.1178 14.9059 19.3365 14.8179 19.5072 14.6953L19.2832 13.7993C19.1605 13.8739 19.0165 13.9353 18.8512 13.9833C18.6858 14.0313 18.4832 14.0553 18.2432 14.0553C17.9872 14.0553 17.7605 14.0099 17.5632 13.9193C17.3712 13.8233 17.2085 13.6926 17.0752 13.5273C16.9472 13.3566 16.8512 13.1539 16.7872 12.9193C16.7232 12.6793 16.6912 12.4153 16.6912 12.1273C16.6912 11.4659 16.8245 10.9779 17.0912 10.6633C17.3632 10.3486 17.7205 10.1913 18.1632 10.1913C18.4032 10.1913 18.6058 10.2046 18.7712 10.2313C18.9418 10.2579 19.0885 10.3006 19.2112 10.3593L19.4272 9.43128C19.2832 9.37262 19.0992 9.32195 18.8752 9.27928C18.6565 9.23662 18.3872 9.21528 18.0672 9.21528C17.7685 9.21528 17.4698 9.26595 17.1712 9.36728C16.8725 9.46328 16.6005 9.62595 16.3552 9.85528C16.1152 10.0793 15.9178 10.3779 15.7632 10.7513C15.6138 11.1193 15.5392 11.5779 15.5392 12.1273C15.5392 12.6553 15.6058 13.1059 15.7392 13.4793C15.8778 13.8473 16.0618 14.1486 16.2912 14.3833C16.5205 14.6126 16.7845 14.7806 17.0832 14.8873C17.3872 14.9886 17.7072 15.0393 18.0432 15.0393C18.3205 15.0393 18.5898 15.0126 18.8512 14.9593Z" fill="#004899"/>
</svg>
