<svg width="24" height="24" viewBox="0 0 24 24" fill="none" xmlns="http://www.w3.org/2000/svg">
<path fill-rule="evenodd" clip-rule="evenodd" d="M4 2C2.89543 2 2 2.89543 2 4V20C2 21.1046 2.89543 22 4 22H20C21.1046 22 22 21.1046 22 20V4C22 2.89543 21.1046 2 20 2H4ZM3.58497 9.63978C3.45497 9.64978 3.33747 9.66228 3.23247 9.67728V14.9348C3.29747 14.9448 3.39497 14.9523 3.52497 14.9573C3.65497 14.9673 3.78997 14.9748 3.92997 14.9798C4.07497 14.9898 4.21247 14.9973 4.34247 15.0023C4.47747 15.0073 4.58497 15.0098 4.66497 15.0098C5.16997 15.0098 5.59247 14.9323 5.93247 14.7773C6.27747 14.6223 6.55497 14.4173 6.76497 14.1623C6.97497 13.9073 7.12497 13.6148 7.21497 13.2848C7.30497 12.9548 7.34997 12.6123 7.34997 12.2573C7.34997 11.8673 7.30247 11.5098 7.20747 11.1848C7.11247 10.8598 6.96247 10.5798 6.75747 10.3448C6.55247 10.1098 6.28497 9.92728 5.95497 9.79728C5.62497 9.66728 5.22747 9.60228 4.76247 9.60228C4.65747 9.60228 4.53747 9.60478 4.40247 9.60978C4.27247 9.60978 4.13747 9.61228 3.99747 9.61728C3.85747 9.62228 3.71997 9.62978 3.58497 9.63978ZM4.50747 10.5248C4.62247 10.5198 4.73497 10.5173 4.84497 10.5173C5.12997 10.5173 5.36497 10.5698 5.54997 10.6748C5.73497 10.7798 5.87997 10.9148 5.98497 11.0798C6.09497 11.2448 6.16997 11.4323 6.20997 11.6423C6.24997 11.8473 6.26997 12.0523 6.26997 12.2573C6.26997 12.4923 6.24747 12.7223 6.20247 12.9473C6.15747 13.1673 6.07747 13.3623 5.96247 13.5323C5.85247 13.7023 5.69997 13.8398 5.50497 13.9448C5.31497 14.0448 5.07497 14.0948 4.78497 14.0948H4.67247C4.62247 14.0898 4.56997 14.0873 4.51497 14.0873C4.45997 14.0823 4.40747 14.0798 4.35747 14.0798C4.31247 14.0748 4.27997 14.0698 4.25997 14.0648V10.5473C4.31497 10.5373 4.39747 10.5298 4.50747 10.5248ZM8.50093 10.2848C8.11593 10.7548 7.92343 11.4273 7.92343 12.3023C7.92343 12.7123 7.96843 13.0848 8.05843 13.4198C8.14843 13.7548 8.28343 14.0423 8.46343 14.2823C8.64843 14.5223 8.88093 14.7073 9.16093 14.8373C9.44093 14.9673 9.77093 15.0323 10.1509 15.0323C10.8609 15.0323 11.4084 14.7973 11.7934 14.3273C12.1834 13.8523 12.3784 13.1773 12.3784 12.3023C12.3784 11.8923 12.3334 11.5198 12.2434 11.1848C12.1534 10.8498 12.0159 10.5623 11.8309 10.3223C11.6459 10.0823 11.4134 9.89728 11.1334 9.76728C10.8534 9.63728 10.5259 9.57228 10.1509 9.57228C9.43593 9.57228 8.88593 9.80978 8.50093 10.2848ZM9.07093 13.0373C9.02593 12.8123 9.00343 12.5673 9.00343 12.3023C9.00343 11.6773 9.10343 11.2198 9.30343 10.9298C9.50343 10.6348 9.78593 10.4873 10.1509 10.4873C10.3609 10.4873 10.5384 10.5348 10.6834 10.6298C10.8284 10.7198 10.9459 10.8473 11.0359 11.0123C11.1259 11.1773 11.1909 11.3698 11.2309 11.5898C11.2759 11.8098 11.2984 12.0473 11.2984 12.3023C11.2984 12.9423 11.1984 13.4048 10.9984 13.6898C10.7984 13.9748 10.5159 14.1173 10.1509 14.1173C9.95093 14.1173 9.77843 14.0723 9.63343 13.9823C9.48843 13.8923 9.36843 13.7673 9.27343 13.6073C9.18343 13.4473 9.11593 13.2573 9.07093 13.0373ZM16.0528 14.9573C16.3028 14.9073 16.5078 14.8248 16.6678 14.7098L16.4578 13.8698C16.3428 13.9398 16.2078 13.9973 16.0528 14.0423C15.8978 14.0873 15.7078 14.1098 15.4828 14.1098C15.2428 14.1098 15.0303 14.0673 14.8453 13.9823C14.6653 13.8923 14.5128 13.7698 14.3878 13.6148C14.2678 13.4548 14.1778 13.2648 14.1178 13.0448C14.0578 12.8198 14.0278 12.5723 14.0278 12.3023C14.0278 11.6823 14.1528 11.2248 14.4028 10.9298C14.6578 10.6348 14.9928 10.4873 15.4078 10.4873C15.6328 10.4873 15.8228 10.4998 15.9778 10.5248C16.1378 10.5498 16.2753 10.5898 16.3903 10.6448L16.5928 9.77478C16.4578 9.71978 16.2853 9.67228 16.0753 9.63228C15.8703 9.59228 15.6178 9.57228 15.3178 9.57228C15.0378 9.57228 14.7578 9.61978 14.4778 9.71478C14.1978 9.80478 13.9428 9.95728 13.7128 10.1723C13.4878 10.3823 13.3028 10.6623 13.1578 11.0123C13.0178 11.3573 12.9478 11.7873 12.9478 12.3023C12.9478 12.7973 13.0103 13.2198 13.1353 13.5698C13.2653 13.9148 13.4378 14.1973 13.6528 14.4173C13.8678 14.6323 14.1153 14.7898 14.3953 14.8898C14.6803 14.9848 14.9803 15.0323 15.2953 15.0323C15.5553 15.0323 15.8078 15.0073 16.0528 14.9573ZM16.6964 9.67728L18.1589 12.2573L16.5464 14.9273H17.6639L18.5939 13.3073L18.7889 12.7523L18.9914 13.3073L19.9139 14.9273H21.1364L19.5464 12.2048L21.0614 9.67728H19.9439L19.0964 11.1923L18.9239 11.7248L18.7439 11.1923L17.9339 9.67728H16.6964Z" fill="#004899"/>
</svg>
