<svg width="24" height="24" viewBox="0 0 24 24" fill="none" xmlns="http://www.w3.org/2000/svg">
<path fill-rule="evenodd" clip-rule="evenodd" d="M4 2C2.89543 2 2 2.89543 2 4V20C2 21.1046 2.89543 22 4 22H20C21.1046 22 22 21.1046 22 20V4C22 2.89543 21.1046 2 20 2H4ZM10.7346 12.0073H8.64663V12.6713L9.85463 12.7993V13.8553C9.76396 13.9246 9.65196 13.9779 9.51863 14.0153C9.38529 14.0473 9.24929 14.0633 9.11063 14.0633C8.90796 14.0633 8.71596 14.0259 8.53463 13.9513C8.35863 13.8766 8.20396 13.7619 8.07063 13.6073C7.93729 13.4473 7.83329 13.2473 7.75863 13.0073C7.68396 12.7619 7.64663 12.4713 7.64663 12.1353C7.64663 11.7833 7.68396 11.4846 7.75863 11.2393C7.83863 10.9939 7.94796 10.7939 8.08663 10.6393C8.23063 10.4793 8.39863 10.3646 8.59063 10.2953C8.78263 10.2259 8.99329 10.1913 9.22263 10.1913C9.47863 10.1913 9.68929 10.2073 9.85463 10.2393C10.02 10.2659 10.1693 10.3059 10.3026 10.3593L10.5266 9.43928C10.3826 9.38595 10.188 9.33528 9.94263 9.28728C9.70263 9.23928 9.42263 9.21528 9.10263 9.21528C8.78263 9.21528 8.46796 9.26862 8.15863 9.37528C7.84929 9.47662 7.56929 9.64462 7.31863 9.87928C7.07329 10.1086 6.87329 10.4099 6.71863 10.7833C6.56929 11.1513 6.49463 11.5993 6.49463 12.1273C6.49463 12.6339 6.55863 13.0713 6.68663 13.4393C6.81463 13.8073 6.99063 14.1113 7.21463 14.3513C7.43863 14.5859 7.70263 14.7593 8.00663 14.8713C8.31596 14.9833 8.64929 15.0393 9.00663 15.0393C9.31063 15.0393 9.61729 14.9966 9.92663 14.9113C10.2413 14.8259 10.5106 14.6899 10.7346 14.5033V12.0073ZM12.9536 9.32728H11.8576V14.9273H12.9536V9.32728ZM17.5469 9.32728H14.2269V14.9273H15.3229V12.6633H17.3709V11.6873H15.3229V10.3033H17.5469V9.32728Z" fill="#048750"/>
</svg>
