<svg width="24" height="24" viewBox="0 0 24 24" fill="none" xmlns="http://www.w3.org/2000/svg">
<path fill-rule="evenodd" clip-rule="evenodd" d="M4 2C2.89543 2 2 2.89543 2 4V20C2 21.1046 2.89543 22 4 22H20C21.1046 22 22 21.1046 22 20V4C22 2.89543 21.1046 2 20 2H4ZM5.69166 9.32728H4.59566V13.1433C4.59566 13.4153 4.56366 13.6339 4.49966 13.7993C4.44099 13.9646 4.29966 14.0473 4.07566 14.0473C3.89966 14.0473 3.74232 14.0126 3.60366 13.9433L3.36366 14.8393C3.49699 14.8979 3.65432 14.9433 3.83566 14.9753C4.01699 15.0073 4.18499 15.0233 4.33966 15.0233C4.58499 15.0233 4.79299 14.9806 4.96366 14.8953C5.13432 14.8046 5.27299 14.6873 5.37966 14.5433C5.49166 14.3939 5.57166 14.2233 5.61966 14.0313C5.66766 13.8393 5.69166 13.6366 5.69166 13.4233V9.32728ZM7.63553 9.28728C7.36886 9.30862 7.12353 9.34062 6.89953 9.38328V14.9273H7.99553V12.9993C8.0222 13.0046 8.06486 13.0099 8.12353 13.0153L8.31553 13.0313H8.49953H8.62753C8.90486 13.0313 9.17153 12.9966 9.42753 12.9273C9.68886 12.8579 9.92086 12.7459 10.1235 12.5913C10.3262 12.4366 10.4889 12.2393 10.6115 11.9993C10.7342 11.7539 10.7955 11.4553 10.7955 11.1033C10.7955 10.7139 10.7235 10.3993 10.5795 10.1593C10.4409 9.91395 10.2595 9.72462 10.0355 9.59128C9.81153 9.45262 9.5582 9.36195 9.27553 9.31928C8.9982 9.27128 8.72086 9.24728 8.44353 9.24728C8.17686 9.24728 7.90753 9.26062 7.63553 9.28728ZM8.22753 10.2073C8.32353 10.1966 8.42486 10.1913 8.53153 10.1913C8.6702 10.1913 8.8062 10.2046 8.93953 10.2313C9.07286 10.2579 9.1902 10.3059 9.29153 10.3753C9.3982 10.4446 9.48353 10.5379 9.54753 10.6553C9.61153 10.7673 9.64353 10.9113 9.64353 11.0873C9.64353 11.2953 9.60886 11.4633 9.53953 11.5913C9.47553 11.7193 9.38753 11.8206 9.27553 11.8953C9.16353 11.9646 9.03553 12.0126 8.89153 12.0393C8.75286 12.0659 8.61153 12.0793 8.46753 12.0793H8.36353H8.22753C8.17953 12.0739 8.1342 12.0686 8.09153 12.0633C8.04886 12.0579 8.01686 12.0526 7.99553 12.0473V10.2313C8.0542 10.2206 8.13153 10.2126 8.22753 10.2073ZM14.9977 9.32728H11.6777V14.9273H15.0377V13.9513H12.7737V12.5833H14.7977V11.6073H12.7737V10.3033H14.9977V9.32728ZM20.1213 12.0073H18.0333V12.6713L19.2413 12.7993V13.8553C19.1507 13.9246 19.0387 13.9779 18.9053 14.0153C18.772 14.0473 18.636 14.0633 18.4973 14.0633C18.2947 14.0633 18.1027 14.0259 17.9213 13.9513C17.7453 13.8766 17.5907 13.7619 17.4573 13.6073C17.324 13.4473 17.22 13.2473 17.1453 13.0073C17.0707 12.7619 17.0333 12.4713 17.0333 12.1353C17.0333 11.7833 17.0707 11.4846 17.1453 11.2393C17.2253 10.9939 17.3347 10.7939 17.4733 10.6393C17.6173 10.4793 17.7853 10.3646 17.9773 10.2953C18.1693 10.2259 18.38 10.1913 18.6093 10.1913C18.8653 10.1913 19.076 10.2073 19.2413 10.2393C19.4067 10.2659 19.556 10.3059 19.6893 10.3593L19.9133 9.43928C19.7693 9.38595 19.5747 9.33528 19.3293 9.28728C19.0893 9.23928 18.8093 9.21528 18.4893 9.21528C18.1693 9.21528 17.8547 9.26862 17.5453 9.37528C17.236 9.47662 16.956 9.64462 16.7053 9.87928C16.46 10.1086 16.26 10.4099 16.1053 10.7833C15.956 11.1513 15.8813 11.5993 15.8813 12.1273C15.8813 12.6339 15.9453 13.0713 16.0733 13.4393C16.2013 13.8073 16.3773 14.1113 16.6013 14.3513C16.8253 14.5859 17.0893 14.7593 17.3933 14.8713C17.7027 14.9833 18.036 15.0393 18.3933 15.0393C18.6973 15.0393 19.004 14.9966 19.3133 14.9113C19.628 14.8259 19.8973 14.6899 20.1213 14.5033V12.0073Z" fill="#048750"/>
</svg>
