<svg width="24" height="24" viewBox="0 0 24 24" fill="none" xmlns="http://www.w3.org/2000/svg">
<path fill-rule="evenodd" clip-rule="evenodd" d="M4 2C2.89543 2 2 2.89543 2 4V20C2 21.1046 2.89543 22 4 22H20C21.1046 22 22 21.1046 22 20V4C22 2.89543 21.1046 2 20 2H4ZM7.92447 9.32728H6.82847V13.1433C6.82847 13.4153 6.79647 13.6339 6.73247 13.7993C6.6738 13.9646 6.53247 14.0473 6.30847 14.0473C6.13247 14.0473 5.97514 14.0126 5.83647 13.9433L5.59647 14.8393C5.7298 14.8979 5.88714 14.9433 6.06847 14.9753C6.2498 15.0073 6.4178 15.0233 6.57247 15.0233C6.8178 15.0233 7.0258 14.9806 7.19647 14.8953C7.36714 14.8046 7.5058 14.6873 7.61247 14.5433C7.72447 14.3939 7.80447 14.2233 7.85247 14.0313C7.90047 13.8393 7.92447 13.6366 7.92447 13.4233V9.32728ZM9.86834 9.28728C9.60168 9.30862 9.35634 9.34062 9.13234 9.38328V14.9273H10.2283V12.9993C10.255 13.0046 10.2977 13.0099 10.3563 13.0153L10.5483 13.0313H10.7323H10.8603C11.1377 13.0313 11.4043 12.9966 11.6603 12.9273C11.9217 12.8579 12.1537 12.7459 12.3563 12.5913C12.559 12.4366 12.7217 12.2393 12.8443 11.9993C12.967 11.7539 13.0283 11.4553 13.0283 11.1033C13.0283 10.7139 12.9563 10.3993 12.8123 10.1593C12.6737 9.91395 12.4923 9.72462 12.2683 9.59128C12.0443 9.45262 11.791 9.36195 11.5083 9.31928C11.231 9.27128 10.9537 9.24728 10.6763 9.24728C10.4097 9.24728 10.1403 9.26062 9.86834 9.28728ZM10.4603 10.2073C10.5563 10.1966 10.6577 10.1913 10.7643 10.1913C10.903 10.1913 11.039 10.2046 11.1723 10.2313C11.3057 10.2579 11.423 10.3059 11.5243 10.3753C11.631 10.4446 11.7163 10.5379 11.7803 10.6553C11.8443 10.7673 11.8763 10.9113 11.8763 11.0873C11.8763 11.2953 11.8417 11.4633 11.7723 11.5913C11.7083 11.7193 11.6203 11.8206 11.5083 11.8953C11.3963 11.9646 11.2683 12.0126 11.1243 12.0393C10.9857 12.0659 10.8443 12.0793 10.7003 12.0793H10.5963H10.4603C10.4123 12.0739 10.367 12.0686 10.3243 12.0633C10.2817 12.0579 10.2497 12.0526 10.2283 12.0473V10.2313C10.287 10.2206 10.3643 10.2126 10.4603 10.2073ZM17.8885 12.0073H15.8005V12.6713L17.0085 12.7993V13.8553C16.9179 13.9246 16.8059 13.9779 16.6725 14.0153C16.5392 14.0473 16.4032 14.0633 16.2645 14.0633C16.0619 14.0633 15.8699 14.0259 15.6885 13.9513C15.5125 13.8766 15.3579 13.7619 15.2245 13.6073C15.0912 13.4473 14.9872 13.2473 14.9125 13.0073C14.8379 12.7619 14.8005 12.4713 14.8005 12.1353C14.8005 11.7833 14.8379 11.4846 14.9125 11.2393C14.9925 10.9939 15.1019 10.7939 15.2405 10.6393C15.3845 10.4793 15.5525 10.3646 15.7445 10.2953C15.9365 10.2259 16.1472 10.1913 16.3765 10.1913C16.6325 10.1913 16.8432 10.2073 17.0085 10.2393C17.1739 10.2659 17.3232 10.3059 17.4565 10.3593L17.6805 9.43928C17.5365 9.38595 17.3419 9.33528 17.0965 9.28728C16.8565 9.23928 16.5765 9.21528 16.2565 9.21528C15.9365 9.21528 15.6219 9.26862 15.3125 9.37528C15.0032 9.47662 14.7232 9.64462 14.4725 9.87928C14.2272 10.1086 14.0272 10.4099 13.8725 10.7833C13.7232 11.1513 13.6485 11.5993 13.6485 12.1273C13.6485 12.6339 13.7125 13.0713 13.8405 13.4393C13.9685 13.8073 14.1445 14.1113 14.3685 14.3513C14.5925 14.5859 14.8565 14.7593 15.1605 14.8713C15.4699 14.9833 15.8032 15.0393 16.1605 15.0393C16.4645 15.0393 16.7712 14.9966 17.0805 14.9113C17.3952 14.8259 17.6645 14.6899 17.8885 14.5033V12.0073Z" fill="#048750"/>
</svg>
