<svg width="24" height="24" viewBox="0 0 24 24" fill="none" xmlns="http://www.w3.org/2000/svg">
<path d="M10.6244 13.1973C10.603 13.262 10.6512 13.3286 10.7193 13.3286H13.2305C13.2983 13.3286 13.3465 13.2626 13.3258 13.1981L12.0869 9.33948C12.0573 9.24728 11.927 9.24677 11.8967 9.33873L10.6244 13.1973Z" fill="#0039A6"/>
<path d="M12 0.75C5.787 0.75 0.75 5.78662 0.75 12C0.75 18.2134 5.787 23.25 12 23.25C18.213 23.25 23.25 18.213 23.25 12C23.25 5.78662 18.213 0.75 12 0.75ZM14.7606 17.4405C14.7171 17.4405 14.6786 17.4124 14.6653 17.3711L13.9922 15.2731C13.9789 15.2317 13.9404 15.2036 13.8969 15.2036H10.0349C9.99178 15.2036 9.95349 15.2313 9.93998 15.2723L9.24765 17.3718C9.23413 17.4128 9.19584 17.4405 9.15268 17.4405H6.98863C6.91948 17.4405 6.8712 17.372 6.89445 17.3069L10.7073 6.62588C10.7215 6.58607 10.7592 6.5595 10.8015 6.5595H13.2324C13.2748 6.5595 13.3126 6.5862 13.3267 6.62615L17.1057 17.3071C17.1287 17.3722 17.0804 17.4405 17.0114 17.4405H14.7606Z" fill="#0039A6"/>
</svg>
