<svg width="24" height="24" viewBox="0 0 24 24" fill="none" xmlns="http://www.w3.org/2000/svg">
<path fill-rule="evenodd" clip-rule="evenodd" d="M19 5L19 19C19 19.2652 19.1054 19.5196 19.2929 19.7071C19.4804 19.8946 19.7348 20 20 20C20.2652 20 20.5196 19.8946 20.7071 19.7071C20.8946 19.5196 21 19.2652 21 19L21 5C21 4.73478 20.8946 4.48043 20.7071 4.29289C20.5196 4.10536 20.2652 4 20 4C19.7348 4 19.4804 4.10536 19.2929 4.29289C19.1054 4.48043 19 4.73478 19 5ZM13.175 13L9.933 16.243L11.347 17.657L17.004 12L11.347 6.343L9.933 7.757L13.175 11L2 11L2 13L13.175 13Z" fill="#0039A6"/>
</svg>
