<svg width="32" height="32" viewBox="0 0 32 32" fill="none" xmlns="http://www.w3.org/2000/svg">
<path d="M15.9997 1.33301C10.1197 1.33301 5.33301 6.11967 5.33301 11.9997C5.33301 19.4263 14.613 29.7863 15.013 30.2263L15.9997 31.3197L16.9863 30.2263C17.3863 29.7863 26.6663 19.4263 26.6663 11.9997C26.6663 6.11967 21.8797 1.33301 15.9997 1.33301ZM15.9997 27.293C13.093 23.813 7.99967 16.7197 7.99967 11.9997C7.99967 7.58634 11.5863 3.99967 15.9997 3.99967C20.413 3.99967 23.9997 7.58634 23.9997 11.9997C23.9997 17.1063 18.333 24.4797 15.9997 27.293ZM13.9597 14.893L11.613 12.533L9.71967 14.4263L13.9597 18.6663L21.973 10.653L20.093 8.75967L13.9597 14.893Z" fill="#0039A6"/>
</svg>
