<?xml version="1.0" encoding="utf-8"?>
<!-- Generator: Adobe Illustrator 23.0.2, SVG Export Plug-In . SVG Version: 6.00 Build 0)  -->
<svg version="1.1" id="Слой_1" xmlns="http://www.w3.org/2000/svg" xmlns:xlink="http://www.w3.org/1999/xlink" x="0px" y="0px"
	 viewBox="0 0 24 24" style="enable-background:new 0 0 24 24;" xml:space="preserve">
<style type="text/css">
	.st0{fill:#999999;}
</style>
<g>
	<path class="st0" d="M12,22C6.5,22,2,17.5,2,12C2,6.5,6.5,2,12,2c5.5,0,10,4.5,10,10C22,17.5,17.5,22,12,22z M12,3.5
		c-4.7,0-8.5,3.8-8.5,8.5c0,4.7,3.8,8.5,8.5,8.5c4.7,0,8.5-3.8,8.5-8.5C20.5,7.3,16.7,3.5,12,3.5z"/>
</g>
<path class="st0" d="M12.7,12.7v2.7c0,0.2-0.1,0.3-0.2,0.5C12.3,15.9,12.2,16,12,16s-0.3-0.1-0.5-0.2c-0.1-0.1-0.2-0.3-0.2-0.5v-2.7
	H8.7c-0.2,0-0.3-0.1-0.5-0.2C8.1,12.3,8,12.2,8,12s0.1-0.3,0.2-0.5c0.1-0.1,0.3-0.2,0.5-0.2h2.7V8.7c0-0.2,0.1-0.3,0.2-0.5
	C11.7,8.1,11.8,8,12,8s0.3,0.1,0.5,0.2c0.1,0.1,0.2,0.3,0.2,0.5v2.7h2.7c0.2,0,0.3,0.1,0.5,0.2c0.1,0.1,0.2,0.3,0.2,0.5
	s-0.1,0.3-0.2,0.5c-0.1,0.1-0.3,0.2-0.5,0.2H12.7z"/>
</svg>
