<svg width="24" height="24" viewBox="0 0 24 24" fill="none" xmlns="http://www.w3.org/2000/svg">
<path fill-rule="evenodd" clip-rule="evenodd" d="M4 2C2.89543 2 2 2.89543 2 4V20C2 21.1046 2.89543 22 4 22H20C21.1046 22 22 21.1046 22 20V4C22 2.89543 21.1046 2 20 2H4ZM5.46053 9.28728C5.19386 9.30862 4.94853 9.34062 4.72453 9.38328V14.9273H5.82053V12.9993C5.8472 13.0046 5.88986 13.0099 5.94853 13.0153L6.14053 13.0313H6.32453H6.45253C6.72986 13.0313 6.99653 12.9966 7.25253 12.9273C7.51386 12.8579 7.74586 12.7459 7.94853 12.5913C8.1512 12.4366 8.31386 12.2393 8.43653 11.9993C8.5592 11.7539 8.62053 11.4553 8.62053 11.1033C8.62053 10.7139 8.54853 10.3993 8.40453 10.1593C8.26586 9.91395 8.08453 9.72462 7.86053 9.59128C7.63653 9.45262 7.3832 9.36195 7.10053 9.31928C6.8232 9.27128 6.54586 9.24728 6.26853 9.24728C6.00186 9.24728 5.73253 9.26062 5.46053 9.28728ZM6.05253 10.2073C6.14853 10.1966 6.24986 10.1913 6.35653 10.1913C6.4952 10.1913 6.6312 10.2046 6.76453 10.2313C6.89786 10.2579 7.0152 10.3059 7.11653 10.3753C7.2232 10.4446 7.30853 10.5379 7.37253 10.6553C7.43653 10.7673 7.46853 10.9113 7.46853 11.0873C7.46853 11.2953 7.43386 11.4633 7.36453 11.5913C7.30053 11.7193 7.21253 11.8206 7.10053 11.8953C6.98853 11.9646 6.86053 12.0126 6.71653 12.0393C6.57786 12.0659 6.43653 12.0793 6.29253 12.0793H6.18853H6.05253C6.00453 12.0739 5.9592 12.0686 5.91653 12.0633C5.87386 12.0579 5.84186 12.0526 5.82053 12.0473V10.2313C5.8792 10.2206 5.95653 10.2126 6.05253 10.2073ZM10.6547 11.1273L11.0947 12.0073L13.1987 14.9673H13.9987V9.32728H12.9587V12.2713L13.0867 13.1273H13.0467L12.6227 12.2713L10.5027 9.28728H9.70266V14.9273H10.7427V12.0073L10.6147 11.1273H10.6547ZM19.4245 12.0073H17.3365V12.6713L18.5445 12.7993V13.8553C18.4538 13.9246 18.3418 13.9779 18.2085 14.0153C18.0751 14.0473 17.9391 14.0633 17.8005 14.0633C17.5978 14.0633 17.4058 14.0259 17.2245 13.9513C17.0485 13.8766 16.8938 13.7619 16.7605 13.6073C16.6271 13.4473 16.5231 13.2473 16.4485 13.0073C16.3738 12.7619 16.3365 12.4713 16.3365 12.1353C16.3365 11.7833 16.3738 11.4846 16.4485 11.2393C16.5285 10.9939 16.6378 10.7939 16.7765 10.6393C16.9205 10.4793 17.0885 10.3646 17.2805 10.2953C17.4725 10.2259 17.6831 10.1913 17.9125 10.1913C18.1685 10.1913 18.3791 10.2073 18.5445 10.2393C18.7098 10.2659 18.8591 10.3059 18.9925 10.3593L19.2165 9.43928C19.0725 9.38595 18.8778 9.33528 18.6325 9.28728C18.3925 9.23928 18.1125 9.21528 17.7925 9.21528C17.4725 9.21528 17.1578 9.26862 16.8485 9.37528C16.5391 9.47662 16.2591 9.64462 16.0085 9.87928C15.7631 10.1086 15.5631 10.4099 15.4085 10.7833C15.2591 11.1513 15.1845 11.5993 15.1845 12.1273C15.1845 12.6339 15.2485 13.0713 15.3765 13.4393C15.5045 13.8073 15.6805 14.1113 15.9045 14.3513C16.1285 14.5859 16.3925 14.7593 16.6965 14.8713C17.0058 14.9833 17.3391 15.0393 17.6965 15.0393C18.0005 15.0393 18.3071 14.9966 18.6165 14.9113C18.9311 14.8259 19.2005 14.6899 19.4245 14.5033V12.0073Z" fill="#048750"/>
</svg>
