<svg width="24" height="24" viewBox="0 0 24 24" fill="none" xmlns="http://www.w3.org/2000/svg">
<path d="M14.9 4C14.9552 4 15 4.04477 15 4.1V10.9C15 10.9552 14.9552 11 14.9 11H5.21142C5.1849 11 5.15946 11.0105 5.14071 11.0293L4.58 11.59L4.17071 11.9993C4.10771 12.0623 4 12.0177 4 11.9286V4.1C4 4.04477 4.04477 4 4.1 4H14.9ZM16 2H3C2.45 2 2 2.45 2 3V16.7586C2 16.8477 2.10771 16.8923 2.17071 16.8293L5.97071 13.0293C5.98946 13.0105 6.0149 13 6.04142 13H16C16.55 13 17 12.55 17 12V3C17 2.45 16.55 2 16 2ZM21 6H19.1C19.0448 6 19 6.04477 19 6.1V14.9C19 14.9552 18.9552 15 18.9 15H6.1C6.04477 15 6 15.0448 6 15.1V17C6 17.55 6.45 18 7 18H17.9586C17.9851 18 18.0105 18.0105 18.0293 18.0293L21.8293 21.8293C21.8923 21.8923 22 21.8477 22 21.7586V7C22 6.45 21.55 6 21 6Z" fill="#0039A6"/>
</svg>
