<svg width="24" height="24" viewBox="0 0 24 24" fill="none" xmlns="http://www.w3.org/2000/svg">
<path fill-rule="evenodd" clip-rule="evenodd" d="M12 22C6.477 22 2 17.523 2 12C2 6.477 6.477 2 12 2C17.523 2 22 6.477 22 12C22 17.523 17.523 22 12 22ZM12 20C14.1217 20 16.1566 19.1571 17.6569 17.6569C19.1571 16.1566 20 14.1217 20 12C20 9.87827 19.1571 7.84344 17.6569 6.34315C16.1566 4.84285 14.1217 4 12 4C9.87827 4 7.84344 4.84285 6.34315 6.34315C4.84285 7.84344 4 9.87827 4 12C4 14.1217 4.84285 16.1566 6.34315 17.6569C7.84344 19.1571 9.87827 20 12 20ZM11 16H13V18H11V16ZM11 14.008C11 14.008 13 14 13 14.008C13 13.006 16 12 16 10C16 7.79 14.227 6 12.009 6C11.483 5.99882 10.9618 6.10141 10.4755 6.30189C9.98916 6.50238 9.54714 6.79683 9.17475 7.16839C8.80236 7.53994 8.50692 7.9813 8.30534 8.46719C8.10376 8.95307 8 9.47395 8 10H10C10 8.9 10.9 8 12 8C13.1 8 14 8.9 14 10C14 10.9 11 12.367 11 14.008Z" fill="#0039A6"/>
</svg>
