<svg width="24" height="24" viewBox="0 0 24 24" fill="none" xmlns="http://www.w3.org/2000/svg">
<path fill-rule="evenodd" clip-rule="evenodd" d="M4 2C2.89543 2 2 2.89543 2 4V20C2 21.1046 2.89543 22 4 22H20C21.1046 22 22 21.1046 22 20V4C22 2.89543 21.1046 2 20 2H4ZM6.15638 9.32728C6.01771 9.34328 5.88704 9.36195 5.76438 9.38328V14.9273H6.86038V12.6313L7.43638 12.7353L8.70838 14.9273H9.97238L8.69238 12.7913L8.30037 12.5433C8.65771 12.4313 8.94304 12.2313 9.15638 11.9433C9.36971 11.6553 9.47638 11.2819 9.47638 10.8233C9.47638 10.5139 9.41504 10.2579 9.29238 10.0553C9.17504 9.84728 9.01504 9.68462 8.81238 9.56728C8.61504 9.44995 8.38838 9.36728 8.13238 9.31928C7.88171 9.27128 7.62571 9.24728 7.36438 9.24728C7.25238 9.24728 7.12971 9.24995 6.99638 9.25528C6.86304 9.26062 6.72438 9.26862 6.58038 9.27928C6.44171 9.28995 6.30038 9.30595 6.15638 9.32728ZM7.10838 10.2313C7.22038 10.2259 7.33238 10.2233 7.44438 10.2233C7.73238 10.2233 7.95104 10.2926 8.10038 10.4313C8.24971 10.5646 8.32438 10.7513 8.32438 10.9913C8.32438 11.3113 8.23371 11.5406 8.05238 11.6793C7.87104 11.8179 7.62838 11.8873 7.32438 11.8873H6.86038V10.2633C6.91904 10.2473 7.00171 10.2366 7.10838 10.2313ZM12.7303 10.3033H14.3623V9.32728H9.99425V10.3033H11.6342V14.9273H12.7303V10.3033ZM18.4531 9.32728H15.1331V14.9273H16.2291V12.6633H18.2771V11.6873H16.2291V10.3033H18.4531V9.32728Z" fill="#004899"/>
</svg>
