<svg width="24" height="24" viewBox="0 0 24 24" fill="none" xmlns="http://www.w3.org/2000/svg">
<path fill-rule="evenodd" clip-rule="evenodd" d="M4 2C2.89543 2 2 2.89543 2 4V20C2 21.1046 2.89543 22 4 22H20C21.1046 22 22 21.1046 22 20V4C22 2.89543 21.1046 2 20 2H4ZM9.17869 10.3033H10.8107V9.32728H6.44269V10.3033H8.08269V14.9273H9.17869V10.3033ZM12.7896 9.32728H11.6936V14.9273H12.7896V9.32728ZM17.3828 9.32728H14.0628V14.9273H15.1588V12.6633H17.2068V11.6873H15.1588V10.3033H17.3828V9.32728Z" fill="#048750"/>
</svg>
