<svg width="24" height="24" viewBox="0 0 24 24" fill="none" xmlns="http://www.w3.org/2000/svg">
<path fill-rule="evenodd" clip-rule="evenodd" d="M4 2C2.89543 2 2 2.89543 2 4V20C2 21.1046 2.89543 22 4 22H20C21.1046 22 22 21.1046 22 20V4C22 2.89543 21.1046 2 20 2H4ZM7.04744 10.3033H8.67944V9.32728H4.31144V10.3033H5.95144V14.9273H7.04744V10.3033ZM10.6583 9.32728H9.56231V14.9273H10.6583V9.32728ZM15.2516 9.32728H11.9316V14.9273H13.0276V12.6633H15.0756V11.6873H13.0276V10.3033H15.2516V9.32728ZM19.5141 9.32728H16.1941V14.9273H17.2901V12.6633H19.3381V11.6873H17.2901V10.3033H19.5141V9.32728Z" fill="#048750"/>
</svg>
