<svg width="32" height="32" viewBox="0 0 32 32" fill="none" xmlns="http://www.w3.org/2000/svg">
<path d="M15.4837 10.6262C15.4837 10.6814 15.4389 10.7262 15.3837 10.7262H10.1717C10.1165 10.7262 10.0717 10.771 10.0717 10.8262V25.2333C10.0717 25.2886 10.0269 25.3333 9.97171 25.3333H6.77265C6.71743 25.3333 6.67265 25.2886 6.67265 25.2333V10.8262C6.67265 10.771 6.62788 10.7262 6.57265 10.7262H1.43301C1.37778 10.7262 1.33301 10.6814 1.33301 10.6262V8.1C1.33301 8.04477 1.37778 8 1.43301 8H15.3837C15.4389 8 15.4837 8.04477 15.4837 8.1V10.6262Z" fill="#0039A6"/>
<path d="M21.493 8C21.5387 8 21.5785 8.03098 21.5899 8.07525L23.1433 14.1569C23.1685 14.2556 23.3078 14.2579 23.3362 14.1601L25.1054 8.07209C25.1178 8.02938 25.157 8 25.2015 8H29.233C29.2882 8 29.333 8.04477 29.333 8.1V25.2333C29.333 25.2886 29.2882 25.3333 29.233 25.3333H26.3232C26.268 25.3333 26.2232 25.2886 26.2232 25.2333V20.2024L26.3552 12.8071C26.3572 12.6912 26.1935 12.6652 26.1596 12.776L24.0873 19.5483C24.0745 19.5903 24.0357 19.619 23.9917 19.619H22.4657C22.421 19.619 22.3818 19.5895 22.3695 19.5466L20.5395 13.1516C20.5073 13.0391 20.3412 13.064 20.3433 13.181L20.4738 20.2024V25.2333C20.4738 25.2886 20.429 25.3333 20.3738 25.3333H17.464C17.4088 25.3333 17.364 25.2886 17.364 25.2333V8.1C17.364 8.04477 17.4088 8 17.464 8H21.493Z" fill="#0039A6"/>
</svg>
