<svg width="24" height="24" viewBox="0 0 24 24" fill="none" xmlns="http://www.w3.org/2000/svg">
<rect x="4" y="4" width="16" height="16" rx="2" fill="white"/>
<path d="M15.1111 16.4444H13.7778L12 9.77778L10.2222 16.4444H8.88889L6.75556 7.55556H8.26667L9.63556 14.2222L11.3778 7.55556H12.6222L14.3733 14.2222L15.7333 7.55556H17.2444L15.1111 16.4444ZM18.2222 4H5.77778C4.79111 4 4 4.79111 4 5.77778V18.2222C4 18.6937 4.1873 19.1459 4.5207 19.4793C4.8541 19.8127 5.30628 20 5.77778 20H18.2222C18.6937 20 19.1459 19.8127 19.4793 19.4793C19.8127 19.1459 20 18.6937 20 18.2222V5.77778C20 5.30628 19.8127 4.8541 19.4793 4.5207C19.1459 4.1873 18.6937 4 18.2222 4Z" fill="#426CD0"/>
</svg>
