<svg width="844" height="190" viewBox="0 0 844 190" fill="none" xmlns="http://www.w3.org/2000/svg">
<path d="M321.807 44.9766C330.61 44.9766 336.176 50.5421 336.176 58.4697C336.176 66.3973 330.61 71.9951 321.807 71.9951H312.973V87.8503H309.445V44.9766H321.807ZM321.807 68.4681C328.83 68.4681 332.649 64.65 332.649 58.4697C332.649 52.2894 328.83 48.5359 321.807 48.5359H312.973V68.5005L321.807 68.4681Z" fill="#808285"/>
<path d="M341.192 72.5779C341.192 68.3728 342.863 64.34 345.837 61.3665C348.81 58.3931 352.844 56.7227 357.05 56.7227C361.255 56.7227 365.289 58.3931 368.262 61.3665C371.236 64.34 372.907 68.3728 372.907 72.5779C372.907 76.7829 371.236 80.8158 368.262 83.7892C365.289 86.7626 361.255 88.4331 357.05 88.4331C352.844 88.4331 348.81 86.7626 345.837 83.7892C342.863 80.8158 341.192 76.7829 341.192 72.5779ZM369.379 72.5779C369.379 69.3082 368.08 66.1725 365.768 63.8605C363.456 61.5485 360.32 60.2496 357.05 60.2496C353.779 60.2496 350.643 61.5485 348.331 63.8605C346.019 66.1725 344.72 69.3082 344.72 72.5779C344.72 75.8475 346.019 78.9832 348.331 81.2952C350.643 83.6072 353.779 84.9061 357.05 84.9061C360.32 84.9061 363.456 83.6072 365.768 81.2952C368.08 78.9832 369.379 75.8475 369.379 72.5779Z" fill="#808285"/>
<path d="M406.11 84.9063C403.077 87.4702 399.207 88.8292 395.237 88.7245C393.134 88.7445 391.05 88.3351 389.112 87.5211C387.174 86.7072 385.422 85.506 383.965 83.9911C382.507 82.4763 381.374 80.6797 380.636 78.7116C379.898 76.7435 379.569 74.6453 379.671 72.5457C379.645 69.367 380.566 66.2525 382.316 63.5988C384.067 60.9451 386.567 58.8722 389.499 57.6439C392.432 56.4156 395.663 56.0875 398.783 56.7014C401.902 57.3153 404.768 58.8434 407.016 61.0911L405.528 64.0357C402.855 61.4385 399.287 59.9673 395.56 59.9262C393.893 59.8445 392.227 60.1169 390.673 60.7257C389.119 61.3346 387.711 62.2659 386.543 63.4583C385.375 64.6507 384.473 66.0771 383.896 67.6435C383.32 69.2099 383.082 70.8806 383.198 72.5457C383.082 74.2107 383.32 75.8815 383.896 77.4479C384.473 79.0143 385.375 80.4407 386.543 81.6331C387.711 82.8255 389.119 83.7568 390.673 84.3656C392.227 84.9745 393.893 85.2469 395.56 85.1651C397.372 85.1685 399.165 84.8063 400.834 84.1002C402.502 83.3941 404.01 82.3586 405.269 81.0557H406.143L406.11 84.9063Z" fill="#808285"/>
<path d="M437.566 60.8321H418.149V87.8507H414.622V57.3052H441.061V87.8507H437.534L437.566 60.8321Z" fill="#808285"/>
<path d="M474.879 68.7601V87.851H471.643L471.352 82.2855H471.061C470.021 84.1987 468.495 85.8041 466.638 86.9402C464.78 88.0763 462.655 88.703 460.478 88.7571C459.176 88.8638 457.866 88.7011 456.629 88.2792C455.392 87.8573 454.256 87.1852 453.29 86.3049C452.325 85.4245 451.551 84.3546 451.017 83.1621C450.483 81.9696 450.201 80.6798 450.187 79.3734C450.187 73.7755 454.297 69.6661 461.352 69.6661C464.95 69.6215 468.463 70.7582 471.352 72.9019V68.7601C471.352 62.871 468.407 59.9588 462.841 59.9588C458.647 60.1488 454.627 61.6928 451.385 64.3595H450.802V60.5413C454.222 57.8724 458.438 56.4257 462.776 56.4319C464.416 56.3123 466.062 56.551 467.6 57.1316C469.138 57.7121 470.531 58.6204 471.683 59.7935C472.835 60.9666 473.717 62.3763 474.269 63.9247C474.821 65.4731 475.029 67.1231 474.879 68.7601ZM471.352 76.9789C468.735 74.4926 465.253 73.1231 461.643 73.1607C456.077 73.1607 453.715 75.5228 453.715 79.341C453.715 83.1592 456.077 85.1977 460.77 85.1977C468.116 85.1977 471.352 76.9789 471.352 76.9789Z" fill="#808285"/>
<path d="M480.478 60.8321V57.3052H506.368V60.8321H495.138V87.8507H491.643V60.8321H480.478Z" fill="#808285"/>
<path d="M536.885 81.0882H537.759V84.9064C534.416 87.5253 530.255 88.8777 526.011 88.7246C523.909 88.7446 521.825 88.3352 519.887 87.5212C517.948 86.7073 516.197 85.5061 514.739 83.9912C513.282 82.4763 512.149 80.6798 511.411 78.7117C510.672 76.7435 510.344 74.6454 510.445 72.5458C510.34 70.4696 510.657 68.3937 511.376 66.4431C512.095 64.4925 513.201 62.7076 514.628 61.1959C516.055 59.6843 517.774 58.4771 519.68 57.6472C521.586 56.8173 523.641 56.3818 525.72 56.367C527.661 56.3191 529.591 56.6809 531.383 57.4287C533.175 58.1766 534.79 59.2937 536.121 60.7073C537.452 62.1209 538.471 63.7991 539.11 65.6327C539.749 67.4662 539.994 69.4138 539.83 71.3485V73.0959H513.94C513.878 74.7182 514.157 76.3354 514.759 77.8433C515.361 79.3512 516.272 80.7163 517.433 81.8505C518.595 82.9846 519.982 83.8627 521.504 84.4281C523.026 84.9935 524.65 85.2335 526.27 85.1329C530.199 85.2127 534.005 83.7623 536.885 81.0882ZM536.011 69.6336C535.982 68.3178 535.692 67.0208 535.157 65.8182C534.622 64.6155 533.854 63.5311 532.896 62.6279C531.939 61.7247 530.811 61.0208 529.579 60.557C528.347 60.0932 527.035 59.8788 525.72 59.9263C522.96 59.8873 520.279 60.8489 518.173 62.6334C516.067 64.418 514.678 66.9046 514.264 69.6336H536.011Z" fill="#808285"/>
<path d="M570.962 74.034H551.545V87.8507H548.018V57.3052H551.545V70.5071H570.962V57.3052H574.49V87.8507H570.962V74.034Z" fill="#808285"/>
<path d="M580.962 60.8321V57.3052H606.852V60.8321H595.687V87.8507H592.224V60.8321H580.962Z" fill="#808285"/>
<path d="M315.367 141.758C308.539 141.467 304.753 137.681 304.753 132.731C304.753 127.78 308.539 123.994 315.367 123.703V121.373H317.989V123.703C324.849 123.994 328.636 127.78 328.636 132.731C328.636 137.681 324.849 141.467 317.989 141.758V144.088H315.367V141.758ZM315.367 126.162C310.125 126.162 307.374 129.074 307.374 132.633C307.374 136.193 310.125 139.105 315.367 139.105V126.162ZM317.989 139.105C323.231 139.105 326.014 136.193 326.014 132.633C326.014 129.074 323.231 126.162 317.989 126.162V139.105Z" fill="#808285"/>
<path d="M346.694 135.902V136.776H334.17C334.261 138.192 334.9 139.517 335.951 140.471C337.002 141.425 338.382 141.933 339.801 141.888C340.793 141.935 341.784 141.778 342.714 141.428C343.643 141.077 344.491 140.54 345.205 139.85H345.626V142.373C343.858 143.66 341.691 144.279 339.509 144.121C337.364 144.121 335.306 143.269 333.789 141.751C332.271 140.234 331.419 138.177 331.419 136.031C331.419 133.886 332.271 131.828 333.789 130.311C335.306 128.794 337.364 127.942 339.509 127.942C340.533 127.898 341.553 128.08 342.498 128.476C343.443 128.872 344.289 129.471 344.975 130.232C345.661 130.992 346.171 131.894 346.468 132.875C346.765 133.855 346.842 134.889 346.694 135.902ZM334.461 134.446H344.17C343.995 133.352 343.424 132.36 342.564 131.662C341.704 130.963 340.616 130.606 339.509 130.66C338.38 130.617 337.269 130.953 336.353 131.616C335.438 132.279 334.772 133.23 334.461 134.316V134.446Z" fill="#808285"/>
<path d="M347.697 141.467H349.315C350.449 139.955 351.063 138.116 351.063 136.225L351.483 128.654H362.13V141.597H364.461V148.068H361.969V143.797H350.189V147.874H347.697V141.467ZM353.522 136.225C353.543 138.094 352.989 139.924 351.936 141.467H359.639V130.984H353.813L353.522 136.225Z" fill="#808285"/>
<path d="M381.871 135.902V136.776H369.25C369.317 138.223 369.953 139.586 371.02 140.568C372.086 141.549 373.497 142.07 374.946 142.018C375.933 142.062 376.919 141.904 377.842 141.553C378.766 141.203 379.609 140.667 380.318 139.979H380.771V142.374C378.999 143.653 376.835 144.271 374.654 144.121C372.509 144.121 370.451 143.269 368.934 141.751C367.416 140.234 366.564 138.177 366.564 136.031C366.564 133.886 367.416 131.828 368.934 130.311C370.451 128.794 372.509 127.942 374.654 127.942C375.681 127.893 376.705 128.072 377.654 128.465C378.602 128.859 379.452 129.458 380.142 130.219C380.832 130.98 381.345 131.884 381.644 132.866C381.943 133.849 382.02 134.886 381.871 135.902ZM369.638 134.446H379.347C379.173 133.352 378.601 132.36 377.741 131.662C376.881 130.963 375.794 130.606 374.687 130.66C373.541 130.594 372.407 130.92 371.472 131.585C370.537 132.25 369.856 133.213 369.541 134.316L369.638 134.446Z" fill="#808285"/>
<path d="M393.716 144.218C392.641 144.263 391.573 144.016 390.627 143.504C389.682 142.991 388.892 142.231 388.344 141.306V150.204H385.884V128.654H388.214V131.113C388.763 130.188 389.552 129.428 390.498 128.916C391.444 128.403 392.511 128.156 393.586 128.201C395.732 128.201 397.79 129.053 399.307 130.57C400.824 132.087 401.677 134.145 401.677 136.29C401.677 138.436 400.824 140.493 399.307 142.011C397.79 143.528 395.732 144.38 393.586 144.38L393.716 144.218ZM393.424 141.888C394.57 142.013 395.727 141.787 396.742 141.24C397.756 140.693 398.581 139.851 399.107 138.825C399.633 137.8 399.836 136.639 399.688 135.496C399.54 134.353 399.049 133.282 398.279 132.424C397.509 131.566 396.497 130.962 395.377 130.691C394.256 130.42 393.08 130.496 392.003 130.908C390.927 131.32 390.001 132.049 389.347 132.998C388.694 133.948 388.344 135.073 388.344 136.226C388.3 136.932 388.397 137.641 388.63 138.309C388.862 138.978 389.226 139.593 389.698 140.12C390.171 140.647 390.744 141.075 391.384 141.379C392.023 141.682 392.717 141.855 393.424 141.888Z" fill="#808285"/>
<path d="M417.178 134.187V143.894H414.848L414.686 141.402C414.196 142.314 413.461 143.071 412.563 143.586C411.664 144.1 410.64 144.353 409.605 144.314C408.95 144.379 408.287 144.303 407.663 144.092C407.039 143.88 406.468 143.538 405.987 143.088C405.506 142.637 405.126 142.089 404.874 141.481C404.622 140.872 404.503 140.216 404.524 139.558C404.514 138.875 404.651 138.198 404.925 137.573C405.2 136.948 405.606 136.39 406.115 135.935C406.625 135.481 407.226 135.142 407.879 134.94C408.531 134.739 409.22 134.681 409.897 134.769C411.622 134.699 413.334 135.102 414.848 135.934V134.187C414.848 131.857 413.553 130.53 410.932 130.53C408.88 130.559 406.91 131.342 405.398 132.73H404.945V130.239C406.769 128.912 408.968 128.198 411.223 128.2C412.021 128.153 412.819 128.275 413.565 128.56C414.311 128.844 414.988 129.284 415.551 129.85C416.115 130.416 416.551 131.096 416.831 131.843C417.112 132.591 417.23 133.39 417.178 134.187ZM414.686 138.264C413.32 137.475 411.765 137.072 410.188 137.099C407.858 137.099 406.952 137.972 406.952 139.558C406.952 141.143 407.987 141.888 409.735 141.888C410.822 141.827 411.869 141.452 412.748 140.809C413.626 140.166 414.3 139.282 414.686 138.264Z" fill="#808285"/>
<path d="M425.042 137.39C424.621 141.759 422.712 143.862 419.929 144.088L419.346 141.597C421.094 141.306 422.13 140.303 422.421 137.39L423.295 128.654H434.201V143.797H431.741V130.854H425.625L425.042 137.39Z" fill="#808285"/>
<path d="M438.861 128.654H441.352V133.605H445.43C446.134 133.548 446.841 133.639 447.508 133.869C448.175 134.1 448.787 134.466 449.305 134.945C449.824 135.424 450.238 136.004 450.521 136.651C450.804 137.297 450.95 137.995 450.95 138.701C450.95 139.406 450.804 140.104 450.521 140.751C450.238 141.397 449.824 141.978 449.305 142.457C448.787 142.936 448.175 143.302 447.508 143.532C446.841 143.763 446.134 143.853 445.43 143.797H438.958L438.861 128.654ZM445.333 141.597C447.372 141.597 448.375 140.561 448.375 138.814C448.375 137.067 447.372 136.064 445.333 136.064H441.255V141.597H445.333Z" fill="#808285"/>
<path d="M456.789 137.229V143.7H454.297V128.654H456.789V134.899H465.527V128.654H467.986V143.797H465.527V137.326L456.789 137.229Z" fill="#808285"/>
<path d="M484.75 134.187V143.894H482.42V141.403C481.93 142.315 481.194 143.071 480.296 143.586C479.398 144.101 478.373 144.353 477.339 144.315C476.689 144.383 476.032 144.314 475.411 144.11C474.79 143.906 474.219 143.573 473.736 143.133C473.253 142.693 472.868 142.155 472.608 141.556C472.348 140.957 472.217 140.309 472.226 139.655C472.215 138.973 472.352 138.296 472.626 137.671C472.901 137.046 473.307 136.487 473.816 136.033C474.326 135.578 474.928 135.239 475.58 135.038C476.233 134.837 476.921 134.778 477.598 134.866C479.192 134.82 480.773 135.176 482.193 135.902V134.155C482.193 131.825 480.899 130.498 478.277 130.498C476.225 130.527 474.255 131.31 472.743 132.698H472.485V130.207C474.308 128.88 476.507 128.166 478.763 128.168C479.565 128.116 480.37 128.235 481.123 128.519C481.875 128.804 482.558 129.246 483.125 129.816C483.693 130.386 484.131 131.072 484.411 131.825C484.692 132.579 484.807 133.385 484.75 134.187ZM482.193 138.264C480.827 137.475 479.272 137.073 477.695 137.099C475.365 137.099 474.459 137.973 474.459 139.558C474.459 141.144 475.494 141.888 477.242 141.888C478.329 141.827 479.376 141.453 480.255 140.81C481.133 140.166 481.807 139.282 482.193 138.264Z" fill="#808285"/>
<path d="M488.827 133.604C488.817 132.9 488.958 132.203 489.241 131.558C489.524 130.913 489.941 130.337 490.466 129.868C490.991 129.398 491.61 129.047 492.282 128.838C492.954 128.628 493.663 128.565 494.361 128.653H501.19V143.797H498.73V138.555H495.494L490.543 143.797H487.306L492.42 138.393C491.366 138.122 490.436 137.499 489.783 136.629C489.13 135.758 488.793 134.692 488.827 133.604ZM494.361 130.983C492.322 130.983 491.287 131.986 491.287 133.604C491.287 135.222 492.322 136.225 494.361 136.225H498.73V130.983H494.361Z" fill="#808285"/>
<path d="M520.704 141.888C521.547 141.895 522.382 141.733 523.16 141.41C523.939 141.088 524.644 140.612 525.235 140.011H525.655V142.373C524.94 142.996 524.109 143.471 523.209 143.771C522.309 144.071 521.359 144.19 520.413 144.121C519.132 144.047 517.888 143.668 516.785 143.015C515.681 142.363 514.75 141.455 514.069 140.368C513.389 139.281 512.978 138.047 512.873 136.769C512.767 135.491 512.97 134.206 513.463 133.023C513.956 131.839 514.726 130.791 515.708 129.966C516.69 129.141 517.855 128.563 519.106 128.281C520.357 127.999 521.657 128.021 522.898 128.345C524.139 128.668 525.284 129.285 526.238 130.142L525.235 132.181C524.009 131.032 522.384 130.406 520.704 130.433C519.272 130.542 517.933 131.187 516.957 132.24C515.98 133.293 515.437 134.676 515.437 136.112C515.437 137.548 515.98 138.931 516.957 139.985C517.933 141.038 519.272 141.683 520.704 141.791V141.888Z" fill="#808285"/>
<path d="M533.228 137.39C532.84 141.759 530.898 143.862 528.147 144.088L527.565 141.597C529.312 141.306 530.315 140.303 530.607 137.39L531.48 128.654H542.419V143.797H539.927V130.854H533.972L533.228 137.39Z" fill="#808285"/>
<path d="M552.16 150.204H549.539L552.16 143.732L545.332 128.751H547.953L553.39 140.594L558.179 128.654H560.801L552.16 150.204Z" fill="#808285"/>
<path d="M574.004 136.225V143.797H571.545V136.225L564.263 143.797H561.027L568.762 136.064L561.48 128.654H564.716L571.707 136.064V128.654H574.166V136.064L581.156 128.654H584.392L577.111 136.064L584.846 143.797H581.609L574.004 136.225Z" fill="#808285"/>
<path d="M601.383 136.517C601.424 137.539 601.252 138.559 600.88 139.512C600.507 140.465 599.941 141.33 599.218 142.054C598.494 142.777 597.629 143.343 596.676 143.715C595.723 144.088 594.703 144.259 593.68 144.218C589.15 144.218 585.816 140.982 585.816 135.061C585.816 125.58 589.441 121.956 594.975 121.956C596.731 121.954 598.469 121.602 600.088 120.92V123.412C598.497 124.175 596.737 124.52 594.975 124.415C591.059 124.415 588.502 126.907 588.146 131.857C588.722 130.86 589.553 130.035 590.555 129.466C591.556 128.897 592.691 128.605 593.842 128.622C594.871 128.591 595.895 128.778 596.847 129.169C597.8 129.56 598.659 130.146 599.37 130.891C600.081 131.635 600.628 132.521 600.974 133.49C601.321 134.459 601.46 135.49 601.383 136.517ZM598.923 136.517C598.898 135.486 598.569 134.485 597.977 133.641C597.386 132.796 596.558 132.144 595.599 131.767C594.639 131.39 593.589 131.305 592.58 131.521C591.572 131.738 590.65 132.247 589.93 132.985C589.21 133.723 588.723 134.657 588.531 135.67C588.339 136.683 588.45 137.731 588.85 138.681C589.251 139.631 589.922 140.442 590.782 141.013C591.641 141.583 592.649 141.888 593.68 141.888C594.385 141.907 595.086 141.78 595.739 141.515C596.392 141.25 596.984 140.853 597.476 140.348C597.968 139.844 598.351 139.243 598.6 138.584C598.849 137.924 598.959 137.221 598.923 136.517Z" fill="#808285"/>
<path d="M617.401 134.187V143.895H615.071V141.403H614.877C614.396 142.315 613.667 143.072 612.773 143.588C611.88 144.103 610.859 144.355 609.829 144.315C609.177 144.383 608.519 144.314 607.896 144.11C607.273 143.907 606.701 143.574 606.215 143.135C605.729 142.695 605.342 142.158 605.078 141.559C604.814 140.959 604.68 140.311 604.683 139.656C604.672 138.97 604.81 138.29 605.086 137.662C605.362 137.035 605.771 136.474 606.285 136.019C606.798 135.564 607.404 135.226 608.06 135.027C608.716 134.828 609.408 134.773 610.088 134.867C611.747 134.786 613.399 135.143 614.877 135.902V134.155C614.877 131.825 613.55 130.499 610.929 130.499C608.878 130.536 606.911 131.318 605.395 132.699H605.169V130.207C606.993 128.88 609.191 128.166 611.447 128.169C612.247 128.121 613.048 128.244 613.797 128.53C614.545 128.817 615.224 129.26 615.788 129.829C616.351 130.399 616.787 131.083 617.065 131.834C617.344 132.586 617.458 133.388 617.401 134.187ZM614.877 138.264C613.501 137.472 611.935 137.069 610.347 137.1C608.017 137.1 607.11 137.973 607.11 139.559C607.11 141.144 608.114 141.888 609.861 141.888C610.958 141.832 612.014 141.46 612.904 140.817C613.794 140.174 614.479 139.288 614.877 138.264Z" fill="#808285"/>
<path d="M308.086 169.813V182.756H305.626V167.483H319.316V182.626H316.824V169.683L308.086 169.813Z" fill="#808285"/>
<path d="M330.513 183.047C328.924 183.047 327.371 182.576 326.051 181.693C324.73 180.81 323.701 179.554 323.095 178.086C322.488 176.618 322.331 175.003 322.644 173.445C322.956 171.888 323.724 170.458 324.849 169.337C325.975 168.216 327.408 167.454 328.967 167.148C330.526 166.842 332.141 167.006 333.607 167.618C335.073 168.231 336.324 169.264 337.202 170.588C338.08 171.912 338.545 173.467 338.539 175.055C338.58 176.118 338.4 177.179 338.011 178.169C337.622 179.16 337.031 180.059 336.277 180.81C335.523 181.561 334.622 182.147 333.63 182.532C332.637 182.918 331.576 183.093 330.513 183.047ZM330.513 180.718C331.647 180.75 332.765 180.443 333.723 179.835C334.682 179.228 335.437 178.348 335.892 177.309C336.347 176.27 336.481 175.118 336.278 174.002C336.074 172.886 335.541 171.856 334.748 171.045C333.955 170.233 332.938 169.677 331.827 169.448C330.715 169.218 329.561 169.326 328.511 169.757C327.462 170.188 326.565 170.922 325.935 171.866C325.306 172.81 324.973 173.921 324.979 175.055C324.943 175.797 325.061 176.539 325.324 177.233C325.588 177.928 325.992 178.561 326.512 179.092C327.031 179.624 327.654 180.042 328.343 180.322C329.031 180.602 329.77 180.736 330.513 180.718Z" fill="#808285"/>
<path d="M352.357 182.626H350.027V167.483H352.519V178.97L361.677 167.483H364.007V182.626H361.548V171.107L352.357 182.626Z" fill="#808285"/>
<path d="M370.415 176.058V182.529H367.956V167.483H370.415V173.728H379.153V167.483H381.645V182.626H379.153V176.155L370.415 176.058Z" fill="#808285"/>
<path d="M384.557 169.813V167.483H397.793V169.813H392.421V182.756H389.929V169.813H384.557Z" fill="#808285"/>
<path d="M413.521 174.732V175.605H400.997C401.064 177.053 401.7 178.416 402.767 179.397C403.833 180.379 405.244 180.9 406.693 180.847C407.68 180.891 408.666 180.733 409.589 180.383C410.513 180.032 411.356 179.496 412.065 178.809H412.518V181.203C410.746 182.482 408.582 183.1 406.402 182.95C404.256 182.95 402.198 182.098 400.681 180.581C399.163 179.064 398.311 177.006 398.311 174.861C398.311 172.715 399.163 170.658 400.681 169.141C402.198 167.624 404.256 166.772 406.402 166.772C407.42 166.737 408.433 166.927 409.37 167.327C410.306 167.727 411.144 168.328 411.823 169.087C412.502 169.846 413.006 170.745 413.3 171.72C413.593 172.696 413.669 173.724 413.521 174.732ZM401.288 173.146H410.997C410.823 172.052 410.251 171.06 409.391 170.362C408.531 169.663 407.444 169.307 406.337 169.36C405.19 169.324 404.066 169.679 403.148 170.367C402.23 171.055 401.575 172.035 401.288 173.146Z" fill="#808285"/>
<path d="M420.706 176.219C420.317 180.588 418.376 182.691 415.592 182.917L415.042 180.426C416.79 180.135 417.793 179.132 418.084 176.219L418.958 167.483H429.896V182.626H427.405V169.683H421.288L420.706 176.219Z" fill="#808285"/>
<path d="M437.987 176.219C437.566 180.588 435.657 182.691 432.874 182.917L432.291 180.426C434.039 180.135 435.074 179.132 435.365 176.219L436.239 167.483H447.178V182.626H444.686V169.683H438.569L437.987 176.219Z" fill="#808285"/>
<path d="M466.012 174.731V175.604H453.488C453.547 177.049 454.176 178.412 455.237 179.394C456.299 180.377 457.706 180.899 459.152 180.846C460.144 180.893 461.135 180.736 462.065 180.386C462.994 180.035 463.842 179.498 464.556 178.808H464.977V181.202C463.208 182.489 461.042 183.108 458.86 182.95C456.715 182.95 454.657 182.097 453.139 180.58C451.622 179.063 450.77 177.006 450.77 174.86C450.77 172.715 451.622 170.657 453.139 169.14C454.657 167.623 456.715 166.771 458.86 166.771C459.881 166.731 460.898 166.917 461.839 167.315C462.78 167.713 463.621 168.313 464.304 169.073C464.986 169.833 465.493 170.734 465.789 171.712C466.084 172.689 466.16 173.72 466.012 174.731ZM453.747 173.275H463.456C463.282 172.181 462.71 171.189 461.85 170.491C460.99 169.792 459.902 169.435 458.796 169.489C457.684 169.473 456.597 169.822 455.703 170.482C454.809 171.142 454.156 172.078 453.844 173.145L453.747 173.275Z" fill="#808285"/>
<path d="M471.773 175.055V182.626H469.249V167.483H471.74V174.893L479.475 167.483H482.711L474.847 174.893L483.132 182.626H479.896L471.773 175.055Z" fill="#808285"/>
<path d="M483.132 169.813V167.483H496.4V169.813H490.996V182.756H488.666V169.813H483.132Z" fill="#808285"/>
<path d="M504.394 189.033H501.772L504.394 182.562L497.533 167.58H500.187L505.559 179.52H505.721L510.51 167.58H513.131L504.394 189.033Z" fill="#808285"/>
<path d="M527.5 173.016V182.724H525.17L525.008 180.232C524.518 181.144 523.783 181.901 522.884 182.415C521.986 182.93 520.962 183.183 519.927 183.144C519.277 183.213 518.62 183.143 517.999 182.939C517.378 182.736 516.807 182.403 516.324 181.963C515.841 181.523 515.457 180.985 515.196 180.386C514.936 179.786 514.806 179.138 514.814 178.485C514.804 177.802 514.94 177.125 515.215 176.5C515.489 175.875 515.895 175.317 516.405 174.862C516.915 174.408 517.516 174.069 518.168 173.867C518.821 173.666 519.509 173.608 520.186 173.696C521.912 173.626 523.624 174.029 525.137 174.861V173.114C525.137 170.784 523.843 169.457 521.222 169.457C519.169 169.486 517.199 170.269 515.688 171.657H515.235V169.166C517.059 167.839 519.257 167.125 521.513 167.127C522.304 167.076 523.097 167.193 523.84 167.47C524.583 167.746 525.259 168.176 525.824 168.732C526.39 169.288 526.831 169.957 527.12 170.696C527.408 171.434 527.538 172.225 527.5 173.016ZM525.008 177.094C523.642 176.305 522.087 175.902 520.51 175.929C518.18 175.929 517.274 176.802 517.274 178.388C517.274 179.973 518.309 180.718 520.057 180.718C521.155 180.669 522.216 180.3 523.107 179.656C523.999 179.012 524.682 178.121 525.073 177.094H525.008Z" fill="#808285"/>
<path d="M535.72 176.219C535.299 180.588 533.39 182.691 530.607 182.917L530.024 180.426C531.772 180.135 532.808 179.132 533.099 176.219L533.973 167.483H544.879V182.626H542.419V169.683H536.303L535.72 176.219Z" fill="#808285"/>
<path d="M549.538 167.483H552.03V172.434H556.108C556.811 172.378 557.519 172.468 558.186 172.698C558.853 172.929 559.465 173.295 559.983 173.774C560.502 174.253 560.915 174.833 561.198 175.48C561.481 176.126 561.627 176.824 561.627 177.53C561.627 178.236 561.481 178.934 561.198 179.58C560.915 180.226 560.502 180.807 559.983 181.286C559.465 181.765 558.853 182.131 558.186 182.362C557.519 182.592 556.811 182.682 556.108 182.626H549.635L549.538 167.483ZM556.011 180.426C558.05 180.426 559.053 179.391 559.053 177.643C559.053 175.896 558.05 174.893 556.011 174.893H551.933V180.426H556.011Z" fill="#808285"/>
<path d="M567.435 176.058V182.529H564.975V167.483H567.435V173.728H576.205V167.483H578.664V182.626H576.205V176.155L567.435 176.058Z" fill="#808285"/>
<path d="M589.149 183.047C587.561 183.047 586.008 182.576 584.687 181.693C583.367 180.81 582.338 179.554 581.732 178.086C581.125 176.618 580.968 175.003 581.28 173.445C581.593 171.888 582.36 170.458 583.486 169.337C584.612 168.216 586.045 167.454 587.604 167.148C589.163 166.842 590.777 167.006 592.243 167.618C593.709 168.231 594.96 169.264 595.838 170.588C596.716 171.912 597.182 173.467 597.175 175.055C597.212 176.117 597.029 177.175 596.638 178.164C596.247 179.152 595.656 180.049 594.903 180.799C594.15 181.549 593.251 182.136 592.261 182.523C591.271 182.909 590.212 183.088 589.149 183.047ZM589.149 180.718C590.284 180.75 591.402 180.443 592.36 179.835C593.319 179.228 594.074 178.348 594.529 177.309C594.984 176.27 595.118 175.118 594.914 174.002C594.711 172.886 594.178 171.856 593.385 171.045C592.592 170.233 591.575 169.677 590.463 169.448C589.352 169.218 588.198 169.326 587.148 169.757C586.098 170.188 585.201 170.922 584.572 171.866C583.943 172.81 583.61 173.921 583.616 175.055C583.58 175.797 583.697 176.539 583.961 177.233C584.225 177.928 584.629 178.561 585.148 179.092C585.668 179.624 586.291 180.042 586.979 180.322C587.668 180.602 588.407 180.736 589.149 180.718Z" fill="#808285"/>
<path d="M602.677 182.626H600.347V167.483H602.839V178.97L612.029 167.483H614.327V182.626H611.868V171.107L602.677 182.626ZM603.551 163.697V161.076C604.031 161.608 604.614 162.037 605.265 162.337C605.916 162.638 606.62 162.803 607.337 162.823C608.054 162.807 608.76 162.643 609.411 162.342C610.063 162.042 610.645 161.611 611.123 161.076V163.697C610.014 164.472 608.69 164.879 607.337 164.862C605.984 164.879 604.66 164.472 603.551 163.697Z" fill="#808285"/>
<path d="M633.841 180.717C634.684 180.724 635.519 180.561 636.298 180.239C637.076 179.916 637.782 179.441 638.372 178.84H638.793V181.202C638.078 181.825 637.246 182.3 636.346 182.6C635.447 182.9 634.496 183.018 633.55 182.949C631.405 182.949 629.347 182.097 627.829 180.58C626.312 179.063 625.46 177.005 625.46 174.86C625.46 172.714 626.312 170.657 627.829 169.14C629.347 167.623 631.405 166.77 633.55 166.77C634.614 166.695 635.682 166.838 636.688 167.188C637.695 167.538 638.621 168.09 639.408 168.809L638.372 170.848C637.146 169.699 635.521 169.073 633.841 169.1C632.409 169.208 631.071 169.854 630.094 170.907C629.117 171.96 628.575 173.343 628.575 174.779C628.575 176.215 629.117 177.598 630.094 178.651C631.071 179.704 632.409 180.35 633.841 180.458V180.717Z" fill="#808285"/>
<path d="M649.569 183.047C647.98 183.047 646.427 182.576 645.107 181.693C643.786 180.81 642.758 179.554 642.151 178.086C641.545 176.618 641.388 175.003 641.7 173.445C642.012 171.888 642.78 170.458 643.906 169.337C645.031 168.216 646.464 167.454 648.023 167.148C649.582 166.842 651.197 167.006 652.663 167.618C654.129 168.231 655.38 169.264 656.258 170.588C657.136 171.912 657.601 173.467 657.595 175.055C657.636 176.118 657.457 177.179 657.067 178.169C656.678 179.16 656.088 180.059 655.334 180.81C654.58 181.561 653.678 182.147 652.686 182.532C651.694 182.918 650.633 183.093 649.569 183.047ZM649.569 180.718C650.702 180.743 651.817 180.431 652.771 179.819C653.726 179.208 654.476 178.326 654.926 177.286C655.376 176.246 655.505 175.095 655.298 173.981C655.09 172.867 654.555 171.84 653.761 171.032C652.966 170.224 651.949 169.671 650.838 169.444C649.728 169.218 648.575 169.327 647.527 169.759C646.48 170.191 645.585 170.926 644.957 171.869C644.329 172.813 643.997 173.922 644.003 175.055C643.967 175.8 644.085 176.544 644.351 177.241C644.617 177.938 645.024 178.573 645.547 179.104C646.069 179.636 646.697 180.054 647.389 180.332C648.081 180.61 648.824 180.741 649.569 180.718Z" fill="#808285"/>
<path d="M676.365 175.346C676.406 176.368 676.235 177.388 675.863 178.341C675.49 179.294 674.924 180.159 674.201 180.883C673.477 181.606 672.611 182.172 671.658 182.544C670.705 182.917 669.685 183.088 668.663 183.047C664.132 183.047 660.799 179.811 660.799 173.89C660.799 164.409 664.424 160.785 669.958 160.785C671.714 160.783 673.452 160.431 675.071 159.75V162.241C673.479 163.004 671.719 163.35 669.958 163.244C666.042 163.244 663.485 165.736 663.129 170.686C663.705 169.689 664.536 168.864 665.537 168.295C666.539 167.726 667.673 167.435 668.825 167.451C669.854 167.42 670.878 167.607 671.83 167.998C672.782 168.389 673.642 168.976 674.353 169.72C675.064 170.464 675.61 171.35 675.957 172.319C676.304 173.288 676.443 174.319 676.365 175.346ZM673.906 175.346C673.88 174.315 673.551 173.315 672.96 172.47C672.369 171.625 671.541 170.973 670.581 170.596C669.621 170.219 668.572 170.134 667.563 170.35C666.555 170.567 665.633 171.076 664.913 171.814C664.192 172.552 663.706 173.486 663.514 174.499C663.322 175.512 663.433 176.56 663.833 177.51C664.233 178.46 664.905 179.272 665.764 179.842C666.623 180.412 667.632 180.717 668.663 180.717C669.368 180.736 670.069 180.609 670.722 180.344C671.375 180.079 671.966 179.682 672.459 179.177C672.951 178.673 673.334 178.072 673.583 177.413C673.832 176.753 673.942 176.05 673.906 175.346Z" fill="#808285"/>
<path d="M686.851 180.717C687.693 180.724 688.528 180.562 689.307 180.239C690.085 179.917 690.791 179.441 691.381 178.84H691.802V181.203C691.087 181.825 690.255 182.3 689.355 182.6C688.456 182.9 687.505 183.019 686.559 182.95C685.279 182.877 684.035 182.498 682.931 181.845C681.827 181.192 680.896 180.284 680.216 179.197C679.535 178.11 679.125 176.876 679.019 175.598C678.914 174.32 679.116 173.035 679.61 171.852C680.103 170.668 680.873 169.62 681.854 168.795C682.836 167.97 684.001 167.392 685.252 167.11C686.503 166.828 687.804 166.85 689.045 167.174C690.286 167.497 691.431 168.114 692.384 168.971L691.381 171.01C690.155 169.862 688.53 169.235 686.851 169.263C685.418 169.371 684.08 170.016 683.103 171.069C682.127 172.122 681.584 173.505 681.584 174.941C681.584 176.377 682.127 177.761 683.103 178.814C684.08 179.867 685.418 180.512 686.851 180.62V180.717Z" fill="#808285"/>
<path d="M693.711 169.813V167.483H706.947V169.813H701.575V182.756H699.019V169.813H693.711Z" fill="#808285"/>
<path d="M709.86 167.483H716.332C719.568 167.483 721.413 169.23 721.413 171.398C721.505 172.07 721.371 172.752 721.031 173.339C720.691 173.925 720.165 174.381 719.536 174.634C720.366 174.819 721.108 175.283 721.638 175.948C722.168 176.613 722.454 177.44 722.449 178.29C722.449 180.75 720.539 182.659 717.206 182.659H709.763L709.86 167.483ZM712.352 169.813V173.599H716.429C718.177 173.599 719.051 172.854 719.051 171.689C719.051 170.525 718.177 169.813 716.429 169.813H712.352ZM717.303 175.928H712.352V180.297H717.303C719.051 180.297 720.054 179.423 720.054 178.096C720.054 176.77 719.051 175.928 717.303 175.928Z" fill="#808285"/>
<path d="M740.312 174.731V175.604H727.788C727.847 177.049 728.476 178.412 729.538 179.394C730.599 180.377 732.006 180.899 733.452 180.846C734.444 180.893 735.435 180.736 736.365 180.386C737.294 180.035 738.142 179.498 738.856 178.808H739.277V181.202C737.508 182.489 735.342 183.108 733.16 182.95C731.015 182.95 728.957 182.097 727.439 180.58C725.922 179.063 725.07 177.006 725.07 174.86C725.07 172.715 725.922 170.657 727.439 169.14C728.957 167.623 731.015 166.771 733.16 166.771C734.181 166.731 735.198 166.917 736.139 167.315C737.08 167.713 737.921 168.313 738.604 169.073C739.287 169.833 739.793 170.734 740.089 171.712C740.384 172.689 740.46 173.72 740.312 174.731ZM728.144 173.145H737.853C737.679 172.051 737.107 171.06 736.247 170.361C735.387 169.662 734.299 169.306 733.193 169.359C732.046 169.323 730.922 169.678 730.004 170.366C729.086 171.055 728.43 172.035 728.144 173.145Z" fill="#808285"/>
<path d="M746.72 176.058V182.529H744.325V167.483H746.817V173.728H755.555V167.483H758.014V182.626H755.555V176.155L746.72 176.058Z" fill="#808285"/>
<path d="M765.069 176.058V182.529H762.577V167.483H765.069V173.728H773.807V167.483H776.266V182.626H773.807V176.155L765.069 176.058Z" fill="#808285"/>
<path d="M788.079 183.047C786.49 183.047 784.937 182.576 783.616 181.693C782.296 180.81 781.267 179.554 780.661 178.086C780.054 176.618 779.897 175.003 780.21 173.445C780.522 171.888 781.289 170.458 782.415 169.337C783.541 168.216 784.974 167.454 786.533 167.148C788.092 166.842 789.707 167.006 791.173 167.618C792.638 168.231 793.89 169.264 794.768 170.588C795.646 171.912 796.111 173.467 796.104 175.055C796.141 176.117 795.958 177.175 795.567 178.164C795.176 179.152 794.586 180.049 793.833 180.799C793.079 181.549 792.18 182.136 791.19 182.523C790.2 182.909 789.141 183.088 788.079 183.047ZM788.079 180.718C789.213 180.75 790.331 180.443 791.289 179.835C792.248 179.228 793.003 178.348 793.458 177.309C793.913 176.27 794.047 175.118 793.844 174.002C793.64 172.886 793.107 171.856 792.314 171.045C791.521 170.233 790.504 169.677 789.393 169.448C788.281 169.218 787.127 169.326 786.077 169.757C785.028 170.188 784.131 170.922 783.501 171.866C782.872 172.81 782.539 173.921 782.545 175.055C782.509 175.797 782.627 176.539 782.89 177.233C783.154 177.928 783.558 178.561 784.078 179.092C784.597 179.624 785.22 180.042 785.909 180.322C786.597 180.602 787.336 180.736 788.079 180.718Z" fill="#808285"/>
<path d="M807.01 180.716C807.848 180.726 808.68 180.565 809.453 180.242C810.227 179.92 810.926 179.442 811.508 178.839H811.961V181.202C810.511 182.45 808.628 183.078 806.719 182.949C804.573 182.949 802.515 182.097 800.998 180.58C799.481 179.062 798.628 177.005 798.628 174.859C798.628 172.714 799.481 170.656 800.998 169.139C802.515 167.622 804.573 166.77 806.719 166.77C807.778 166.694 808.841 166.835 809.843 167.186C810.845 167.537 811.764 168.089 812.544 168.809L811.508 170.847C810.29 169.707 808.679 169.081 807.01 169.1C806.228 169.041 805.443 169.144 804.702 169.402C803.962 169.661 803.283 170.07 802.708 170.603C802.133 171.136 801.675 171.782 801.361 172.5C801.047 173.219 800.885 173.995 800.885 174.779C800.885 175.563 801.047 176.338 801.361 177.057C801.675 177.775 802.133 178.421 802.708 178.954C803.283 179.487 803.962 179.896 804.702 180.155C805.443 180.413 806.228 180.516 807.01 180.457V180.716Z" fill="#808285"/>
<path d="M813.839 169.813V167.483H827.107V169.813H821.703V182.756H819.243V169.813H813.839Z" fill="#808285"/>
<path d="M832.35 182.626H830.02V167.483H832.479V178.97L841.67 167.483H844V182.626H841.411V171.107L832.35 182.626Z" fill="#808285"/>
<path d="M164.722 104.903V60.7993H87.7656V104.903C87.7656 107.232 87.7656 110.08 88.0892 113.186L106.503 101.408L126.244 88.7886L146.082 101.473L164.399 113.251L164.722 104.903Z" fill="white"/>
<path d="M87.6362 14.8836C86.1432 12.2163 83.979 9.98536 81.358 8.41209C79.5986 7.42025 77.5737 7.00174 75.5652 7.21486H75.1768C74.3813 7.34575 73.6198 7.63342 72.9365 8.06114C72.2531 8.48886 71.6616 9.04811 71.1963 9.70639C70.6944 10.4117 70.454 11.2699 70.5167 12.1332C70.7751 13.1686 71.2856 14.124 72.0027 14.9143C72.7197 15.7047 73.6212 16.3055 74.6267 16.6633C76.2208 17.3404 77.6959 18.269 78.9955 19.4137C79.7314 20.0833 80.2404 20.9654 80.4518 21.9375C80.4923 22.3085 80.4129 22.6827 80.2253 23.0053C79.9993 23.3944 79.6759 23.7178 79.2868 23.9437C78.6354 24.3586 77.9103 24.6442 77.1509 24.785H76.3419C75.6961 24.7945 75.0525 24.7072 74.4325 24.5262C72.6926 23.9589 71.1084 22.9952 69.8047 21.711C69.1373 21.0463 68.5207 20.3324 67.9601 19.5754L66.4067 17.6016L64.2385 14.916L64.012 14.6571L63.8501 14.463C62.7704 13.0107 61.4839 11.7243 60.0314 10.6448C57.8626 8.98719 55.1412 8.22299 52.4264 8.50916H52.038C51.3738 8.63193 50.7307 8.8499 50.1287 9.15631C49.5003 9.49219 48.9317 9.92951 48.4458 10.4506C48.1205 10.8146 47.8581 11.2301 47.6692 11.6802C47.4456 12.2003 47.3459 12.7652 47.3779 13.3304C47.6341 14.6489 48.402 15.8123 49.5138 16.5662C50.3918 17.2175 51.3106 17.8119 52.2646 18.3459H52.4587C53.1268 18.6204 53.713 19.0623 54.1608 19.629C54.6086 20.1957 54.9029 20.8682 55.0153 21.5816C55.056 21.9128 55.025 22.2489 54.9245 22.5671C54.824 22.8853 54.6563 23.1782 54.4328 23.426C53.8 23.9359 53.0383 24.2607 52.2322 24.3644H51.7791H50.7112C50.1219 24.3325 49.5369 24.2458 48.9636 24.1055C48.2699 23.9329 47.6049 23.6604 46.9896 23.2966C45.2816 22.0492 43.7471 20.5802 42.4265 18.9283L39.8052 16.1779C38.7946 14.9792 37.5218 14.0289 36.0853 13.4005C34.6487 12.7721 33.0869 12.4824 31.5205 12.5539H31.1969C30.6342 12.6426 30.0885 12.8172 29.5788 13.0716C28.9787 13.3506 28.4481 13.7596 28.0254 14.2688C27.8604 14.5135 27.7195 14.7735 27.6047 15.0454L29.2876 15.919C29.3204 15.615 29.4715 15.3361 29.7083 15.1425C30.1998 14.684 30.8219 14.39 31.4882 14.3012H31.8442C33.0928 14.3406 34.3181 14.6503 35.4354 15.2089C36.5528 15.7676 37.5358 16.5618 38.3165 17.5369L40.7113 20.0608C42.3155 21.827 44.0696 23.4509 45.954 24.9144C46.9452 25.5125 48.0451 25.9084 49.1902 26.0793C50.1459 26.2082 51.1146 26.2082 52.0704 26.0793H52.4911C53.7649 25.9535 54.9605 25.407 55.8891 24.5262C56.2861 24.0942 56.5843 23.581 56.7631 23.0223C56.942 22.4635 56.9971 21.8726 56.9247 21.2904C56.7761 20.3087 56.3804 19.3809 55.7747 18.5941C55.1689 17.8073 54.3731 17.1874 53.462 16.7927H53.3001C52.4219 16.343 51.5876 15.8122 50.8083 15.2072C50.4328 14.9808 50.1072 14.6805 49.8513 14.3246C49.5954 13.9686 49.4145 13.5643 49.3196 13.1363C49.2395 12.8726 49.2395 12.591 49.3196 12.3274C49.5507 11.7977 49.9195 11.3396 50.3876 11.0007C50.9513 10.6184 51.592 10.3644 52.2646 10.2565H52.4911C54.724 10.1691 56.9221 10.8296 58.737 12.1332C59.5905 12.7321 60.3628 13.4391 61.0347 14.2364C61.6172 14.8512 62.2644 15.6602 63.1382 16.6956L65.0799 19.1548C66.0713 20.5194 67.1524 21.8166 68.3161 23.0377C69.5586 24.219 70.992 25.1817 72.5555 25.8852C73.7248 26.4192 74.9918 26.7056 76.2771 26.7265H77.1185H77.4422C78.4817 26.5574 79.4741 26.1715 80.3547 25.594C81.0145 25.2011 81.561 24.6436 81.9405 23.9761C82.2852 23.3436 82.4318 22.622 82.3612 21.9052C82.1331 20.5433 81.4483 19.2994 80.4195 18.3782C79.0054 17.0364 77.3753 15.9425 75.5975 15.1425C73.0733 13.9452 72.5555 12.6509 72.5232 11.9067C72.4923 11.5334 72.5632 11.1587 72.7285 10.8225C72.8938 10.4863 73.1472 10.2012 73.4617 9.99761C74.0355 9.64766 74.6738 9.41658 75.3386 9.3181H75.9535C77.455 9.23052 78.9497 9.57887 80.2577 10.3212C82.592 11.723 84.5213 13.7079 85.8563 16.0808L87.5391 15.1748L87.6362 14.8836Z" fill="#808285"/>
<path d="M164.172 14.8846C165.663 12.2266 167.814 9.99772 170.418 8.41306C172.187 7.41455 174.224 6.99583 176.243 7.21583H176.599C178.154 7.44431 179.565 8.25368 180.547 9.48086C181.054 10.183 181.284 11.0467 181.195 11.9077C181.033 13.655 179.576 15.1434 177.117 16.4377C175.522 17.1751 174.066 18.1821 172.813 19.4146C172.055 20.0662 171.541 20.9563 171.356 21.9385C171.316 22.2919 171.372 22.6497 171.518 22.974C171.763 23.3482 172.082 23.6677 172.457 23.9123C173.111 24.3223 173.835 24.6076 174.593 24.7536H175.434C176.06 24.7462 176.681 24.6481 177.279 24.4624C179.012 23.8806 180.593 22.9188 181.906 21.6473C182.592 20.9908 183.22 20.2762 183.783 19.5117L185.369 17.5379C186.081 16.6642 186.793 15.7259 187.537 14.8522L187.699 14.6257V14.4316C188.79 12.9779 190.087 11.6916 191.55 10.6134C193.716 8.94976 196.44 8.18488 199.155 8.47777H199.511C200.178 8.59245 200.822 8.81081 201.421 9.12492C202.055 9.45148 202.625 9.88996 203.104 10.4192C203.439 10.7819 203.712 11.1973 203.913 11.6488C204.142 12.1668 204.231 12.7358 204.172 13.2991C204.052 13.9543 203.801 14.5787 203.434 15.1347C203.067 15.6907 202.591 16.1669 202.036 16.5348C201.168 17.2005 200.248 17.7956 199.285 18.3145C198.617 18.589 198.031 19.0309 197.583 19.5976C197.135 20.1644 196.841 20.8368 196.728 21.5502C196.678 21.8817 196.705 22.2202 196.806 22.5399C196.907 22.8595 197.08 23.1519 197.311 23.3946C197.944 23.9046 198.705 24.2294 199.511 24.333H199.867H200.903C201.503 24.3035 202.099 24.2168 202.683 24.0741C203.377 23.9015 204.042 23.629 204.657 23.2652C206.365 22.0178 207.899 20.5489 209.22 18.8969L211.971 16.1789C212.991 14.9854 214.271 14.0413 215.713 13.4187C217.154 12.7962 218.719 12.5117 220.288 12.5872H220.579C221.143 12.6712 221.689 12.8461 222.197 13.1049C222.802 13.376 223.334 13.7863 223.75 14.3021C223.925 14.5463 224.077 14.8063 224.204 15.0787L222.521 15.9524C222.46 15.6576 222.314 15.3873 222.1 15.1758C221.6 14.7112 220.965 14.4168 220.288 14.3345H220.061C218.813 14.3761 217.588 14.6867 216.471 15.2452C215.354 15.8037 214.371 16.5968 213.589 17.5702L211.194 20.0941C209.563 21.8709 207.764 23.4855 205.822 24.9154C204.832 25.5166 203.732 25.9128 202.586 26.0803C201.63 26.2092 200.661 26.2092 199.706 26.0803H199.285C198.011 25.9544 196.815 25.4079 195.887 24.5271C195.491 24.0932 195.192 23.5807 195.008 23.0232C194.824 22.4656 194.759 21.8755 194.819 21.2914C194.989 20.3158 195.405 19.3997 196.028 18.6296C196.651 17.8596 197.46 17.2611 198.379 16.8907H198.541C199.419 16.4411 200.253 15.9102 201.032 15.3052C201.772 14.8271 202.303 14.0875 202.521 13.2343C202.586 12.9685 202.586 12.6912 202.521 12.4254C202.268 11.9096 201.903 11.4565 201.453 11.0987C200.887 10.7219 200.247 10.4683 199.576 10.3545H199.35C197.107 10.2673 194.898 10.9274 193.071 12.2313C192.237 12.8415 191.476 13.5473 190.806 14.3345C190.223 14.9493 189.544 15.7582 188.702 16.7937L186.761 19.2528C185.769 20.6175 184.688 21.9147 183.525 23.1358C182.259 24.278 180.816 25.2069 179.253 25.8861C178.084 26.4202 176.816 26.7066 175.531 26.7274H174.754H174.431C173.376 26.4806 172.385 26.0179 171.518 25.3684C170.873 24.9571 170.331 24.4037 169.933 23.7505C169.597 23.1153 169.462 22.3933 169.544 21.6797C169.781 20.3134 170.477 19.069 171.518 18.1527C172.926 16.8181 174.544 15.7248 176.308 14.9169C178.864 13.7197 179.35 12.4254 179.544 11.6812C179.575 11.3078 179.504 10.9331 179.339 10.5969C179.173 10.2607 178.92 9.97566 178.606 9.77208C178.019 9.4243 177.371 9.19354 176.696 9.09257H176.114C174.522 8.92224 172.916 9.25011 171.518 10.0309C169.174 11.4307 167.234 13.4154 165.887 15.7906L164.204 14.8846H164.172Z" fill="#808285"/>
<path d="M146.082 101.473L126.212 88.7886L106.471 101.408L88.0894 113.251C88.3852 116.555 89.0695 119.814 90.1282 122.958C90.5489 124.22 91.0667 125.45 91.6168 126.712L126.212 104.45L160.807 126.615C161.429 125.253 161.98 123.86 162.457 122.44C163.43 119.455 164.081 116.375 164.399 113.251L146.082 101.473Z" fill="#ED1C24"/>
<path d="M52.9118 50.3482C52.9118 49.7334 52.75 49.1186 52.6853 48.5038C31.8442 47.8567 19.4172 40.7704 11.7798 32.0338C5.8258 24.8965 2.36067 16.0134 1.90936 6.73022C15.0249 21.9019 32.9051 32.1699 52.6206 35.852H52.9118L53.8503 36.0138L54.5299 36.1756L58.3486 36.9198H58.7046C64.5039 37.5063 70.2422 38.5888 75.8565 40.1556C77.9691 41.0248 79.7412 42.5582 80.9049 44.5238C82.3186 47.1168 82.9799 50.053 82.8143 53.0015H84.6589C84.818 49.7088 84.056 46.4368 82.4583 43.5531C81.4054 41.8886 79.9466 40.519 78.2189 39.5731C73.1704 36.758 66.1155 36.661 58.8017 35.2372L54.2063 34.3312L53.2031 34.1371C32.9584 30.3578 14.6935 19.5653 1.6181 3.65625L0 4.27104V4.62698C0.0156778 15.0667 3.67866 25.1728 10.3558 33.1987C18.2521 42.453 31.5206 49.7658 52.9118 50.3482Z" fill="#808285"/>
<path d="M199.673 34.04L198.832 34.2018L193.783 35.2049C187.149 36.4992 180.839 36.7257 175.952 38.7318C173.478 39.6479 171.367 41.3391 169.933 43.5531C168.332 46.4475 167.57 49.7306 167.732 53.0339H169.577C169.401 50.0702 170.074 47.1179 171.518 44.5238C172.399 43.1504 173.627 42.0341 175.078 41.2881C179.479 38.7642 186.534 38.5701 194.204 37.114L198.023 36.3697L199.253 36.1432H199.997H200.256C219.857 32.3754 237.619 22.1168 250.676 7.02144C250.275 16.2769 246.866 25.1491 240.967 32.2927C233.524 41.0292 221 48.0508 200.418 48.7627C200.418 49.4098 200.418 50.0246 200.159 50.6394C221.356 49.9599 234.527 42.7118 242.229 33.4899C248.922 25.3703 252.532 15.1483 252.423 4.62698V4.27104L250.838 3.65625C237.846 19.4368 219.748 30.1837 199.673 34.04Z" fill="#808285"/>
<path d="M70.6137 82.8675L69.9341 82.4469C68.0882 85.7239 65.3972 88.4461 62.1415 90.3298C58.8858 92.2135 55.1845 93.1899 51.4231 93.1573C48.5634 93.13 45.7251 92.6606 43.009 91.7659C47.5578 90.7105 51.9216 88.9761 55.9537 86.621C59.8187 84.4766 63.2356 81.6095 66.0183 78.1757C65.5976 77.6903 65.1769 77.2373 64.7886 76.752C62.1344 80.1301 58.834 82.9461 55.08 85.0355C50.3062 87.8184 45.0636 89.7046 39.6109 90.601L39.3521 92.3483C43.1421 94.0784 47.2568 94.9828 51.4231 95.0016C55.4611 95.0368 59.4363 94.0013 62.9438 92.0005C66.4513 89.9997 69.3657 87.1052 71.3904 83.6118L70.6137 82.8999" fill="#808285"/>
<path d="M78.3483 89.1453C76.3182 94.081 75.2949 99.3726 75.3386 104.709C75.3451 106.212 75.4316 107.713 75.5975 109.207C72.6854 105.505 71.0302 100.971 70.8727 96.2639C70.9261 92.582 72.0506 88.9954 74.1089 85.9419L72.6849 84.7446C70.3898 88.152 69.1411 92.1561 69.0928 96.2639C69.3296 102.522 71.9182 108.462 76.3419 112.896L77.8952 112.087C77.4445 109.675 77.217 107.227 77.2156 104.774C77.1933 99.7996 78.1272 94.8674 79.9664 90.2454L78.413 89.21" fill="#808285"/>
<path d="M64.0766 75.7818L62.9763 74.4228C56.6849 78.8591 49.2167 81.3257 41.5203 81.5091C37.2609 81.5402 33.0427 80.6747 29.1398 78.9688C25.2369 77.2629 21.7368 74.7549 18.8669 71.6077C23.9772 72.5878 29.1652 73.1076 34.3683 73.1609C42.7838 73.3748 51.1082 71.3776 58.5104 67.3689C58.2515 66.8188 57.9602 66.3011 57.7013 65.751C50.5283 69.5596 42.4863 71.4332 34.3683 71.1871C28.47 71.1228 22.5933 70.4615 16.8281 69.2132L15.8896 70.637C18.887 74.5829 22.7658 77.7732 27.2161 79.9531C31.6664 82.133 36.5649 83.2421 41.5203 83.1917C49.6495 83.0236 57.5411 80.4198 64.1737 75.7171" fill="#808285"/>
<path d="M57.1513 64.488L56.3746 62.7731C51.2887 63.8612 46.1063 64.4357 40.9056 64.488C31.6576 64.8854 22.5429 62.1741 15.016 56.7869C10.4049 53.1856 6.79477 48.4619 4.53074 43.0673C17.2176 50.2943 31.5793 54.0656 46.1806 54.0042C48.6077 54.0042 51.0672 54.0042 53.5268 53.713C53.5268 53.0982 53.2679 52.5157 53.1708 51.9009C50.8083 52.0627 48.4783 52.1598 46.1806 52.1598C31.0352 52.2075 16.172 48.0638 3.23626 40.1875L1.90942 41.2877C4.21641 48.0008 8.4344 53.8939 14.0452 58.243C21.8495 63.8517 31.3014 66.6983 40.9056 66.3324C46.3485 66.2778 51.771 65.6597 57.0866 64.488" fill="#808285"/>
<path d="M197.408 85.0355C193.675 83.0128 190.376 80.2751 187.699 76.9785L186.437 78.4022C189.214 81.7305 192.583 84.5169 196.373 86.6211C200.41 88.9656 204.772 90.6994 209.317 91.7659C206.612 92.6604 203.785 93.1298 200.936 93.1573C197.185 93.1975 193.492 92.231 190.242 90.3585C186.992 88.4861 184.303 85.7764 182.457 82.5117L181.098 83.806C183.125 87.2516 186.028 90.0994 189.512 92.06C192.997 94.0207 196.938 95.0245 200.936 94.9693C205.089 94.9315 209.189 94.0278 212.974 92.316L212.942 90.601C207.465 89.7194 202.198 87.8325 197.408 85.0355Z" fill="#808285"/>
<path d="M178.606 86.0717C180.56 89.091 181.615 92.6036 181.648 96.1997C181.515 100.906 179.87 105.445 176.955 109.143C177.121 107.649 177.208 106.148 177.214 104.645C177.257 99.3776 176.256 94.1538 174.269 89.2751L172.716 90.3106C174.508 94.8753 175.409 99.7412 175.37 104.645C175.41 107.118 175.204 109.59 174.755 112.023L176.308 112.831C180.732 108.397 183.32 102.458 183.557 96.1997C183.51 92.1712 182.308 88.2408 180.094 84.8745L178.67 86.0717" fill="#808285"/>
<path d="M218.184 71.1867C210.151 71.3735 202.205 69.4903 195.11 65.7183C194.851 66.2683 194.56 66.8184 194.269 67.3685C201.626 71.2647 209.861 73.2035 218.184 72.9987C223.377 72.9468 228.554 72.427 233.653 71.4456C230.783 74.5927 227.283 77.1008 223.38 78.8067C219.478 80.5126 215.259 81.3781 211 81.347C203.406 81.1776 196.032 78.7685 189.803 74.4224C189.447 74.9402 189.059 75.3932 188.67 75.8785C195.225 80.4777 202.995 83.0335 211 83.2237C215.955 83.2741 220.854 82.165 225.304 79.9851C229.754 77.8052 233.633 74.6149 236.631 70.669L235.692 69.2452C229.938 70.4933 224.072 71.1546 218.184 71.219" fill="#808285"/>
<path d="M206.372 52.1598C204.172 52.1598 201.939 52.1598 199.738 51.9333L199.35 53.7453C201.712 53.9071 204.042 54.0042 206.372 54.0042C220.973 54.061 235.333 50.2901 248.022 43.0673C245.698 48.4714 242.033 53.1934 237.375 56.7869C229.896 62.1462 220.841 64.8564 211.647 64.488C206.546 64.4449 201.461 63.8921 196.469 62.8378C196.211 63.4202 195.984 64.0027 195.725 64.5527C200.959 65.68 206.293 66.2762 211.647 66.3324C221.241 66.6985 230.683 63.8516 238.475 58.243C244.116 53.9021 248.368 48.0094 250.708 41.2877L249.349 40.1875C236.407 48.0774 221.53 52.2219 206.372 52.1598Z" fill="#808285"/>
<path d="M144.011 155.317C145.759 157.488 146.697 160.199 146.664 162.986C146.687 165.115 146.164 167.214 145.144 169.084C144.124 170.953 142.642 172.53 140.839 173.663C140.963 172.589 141.028 171.509 141.033 170.428C141.126 166.179 140.003 161.992 137.797 158.358L136.147 159.167C138.201 162.498 139.247 166.353 139.156 170.266C139.16 171.87 139.031 173.472 138.768 175.055L140.03 176.026C142.57 174.895 144.724 173.045 146.225 170.705C147.726 168.365 148.509 165.636 148.477 162.856C148.462 159.624 147.317 156.499 145.24 154.022L144.011 155.317Z" fill="#808285"/>
<path d="M154.982 146.903C157.286 149.227 158.577 152.367 158.574 155.639C158.581 157.4 158.192 159.141 157.436 160.732C156.68 162.322 155.576 163.723 154.205 164.829C154.205 164.505 154.205 164.214 154.205 163.923C154.18 159.282 152.557 154.791 149.609 151.206L148.671 151.853L148.186 152.339C150.841 155.623 152.322 159.7 152.393 163.923C152.392 164.828 152.284 165.729 152.069 166.608L153.428 167.612C155.539 166.404 157.294 164.662 158.515 162.56C159.737 160.458 160.382 158.07 160.386 155.639C160.399 151.896 158.947 148.296 156.341 145.608L154.982 146.838" fill="#808285"/>
<path d="M164.01 136.775C165.54 139.063 166.351 141.756 166.34 144.509C166.309 147.056 165.712 149.565 164.593 151.854C163.971 148.196 162.256 144.812 159.674 142.147L158.444 143.506C161.282 146.533 162.966 150.461 163.201 154.604L164.884 154.992C166.948 151.845 168.071 148.175 168.12 144.412C168.104 141.013 166.967 137.714 164.884 135.028C164.561 135.578 164.205 136.128 163.849 136.678" fill="#808285"/>
<path d="M128.121 29.8984C128.007 30.4852 127.942 31.0805 127.927 31.6781C127.923 32.9323 128.176 34.1739 128.671 35.3261C129.167 36.4783 129.894 37.5164 130.807 38.3761L132.069 37.0495C131.339 36.3589 130.758 35.5259 130.363 34.602C129.968 33.6781 129.767 32.683 129.771 31.6781C129.772 31.1224 129.837 30.5686 129.966 30.0279H128.121" fill="#808285"/>
<path d="M94.0114 26.5659C93.4815 26.1307 93.0492 25.5888 92.7426 24.9756C92.4359 24.3624 92.2618 23.6915 92.2315 23.0066V22.6506C92.4046 21.3555 92.999 20.1534 93.923 19.2295C94.8471 18.3056 96.0494 17.7112 97.3446 17.5381C96.7559 18.8629 96.4474 20.295 96.4385 21.7446C96.4331 23.1037 96.7787 24.4411 97.4417 25.6275C98.2164 25.5479 98.9971 25.5479 99.7718 25.6275C99.2761 25.0998 98.8894 24.4795 98.6339 23.8021C98.3785 23.1247 98.2593 22.4035 98.2831 21.6799C98.2988 20.701 98.4624 19.7301 98.7686 18.8001L99.2216 17.797C99.2155 17.7108 99.2155 17.6243 99.2216 17.5381L98.3802 16.6321L98.1537 16.1791L97.6035 15.5967C95.7743 15.7586 94.058 16.5505 92.7477 17.837C91.4374 19.1235 90.6144 20.8249 90.4192 22.6506V22.9742C90.4471 23.8932 90.6658 24.7963 91.0613 25.6263C91.4569 26.4562 92.0206 27.1949 92.7169 27.7955C93.0577 27.2997 93.4987 26.8808 94.0114 26.5659Z" fill="#808285"/>
<path d="M104.206 17.7964L103.558 18.5406C103.843 19.397 103.995 20.2916 104.011 21.1939C103.983 22.1289 103.731 23.0435 103.274 23.8602C102.818 24.6769 102.172 25.3716 101.39 25.8857C102.102 25.8857 102.814 26.2093 103.558 26.4035C104.941 24.9951 105.719 23.1026 105.727 21.1292C105.71 20.1977 105.569 19.2727 105.306 18.3788C106.375 18.7476 107.333 19.3823 108.089 20.2232C108.842 21.1335 109.254 22.2777 109.254 23.4589V23.8149C109.179 24.5972 108.916 25.3498 108.488 26.0088C108.06 26.6679 107.479 27.2139 106.795 27.6007L108.704 28.4743C109.382 27.9397 109.945 27.275 110.362 26.5192C110.779 25.7635 111.04 24.932 111.131 24.0737V23.556C111.13 21.934 110.557 20.3643 109.513 19.123C108.447 17.9117 107.054 17.0351 105.5 16.5991L104.497 17.5698L104.206 17.7964Z" fill="#808285"/>
<path d="M101.681 12.9423C101.776 12.7735 101.909 12.6294 102.07 12.5217H102.264C102.685 13.0655 102.892 13.7446 102.846 14.4308V14.9161L104.659 15.1103C104.675 14.8841 104.675 14.657 104.659 14.4308C104.691 14.0431 104.691 13.6535 104.659 13.2659C104.572 12.8292 104.431 12.4052 104.238 12.004C104.067 11.6831 103.836 11.3977 103.558 11.1627C103.246 10.8988 102.864 10.7304 102.458 10.6773H102.231C102.081 10.659 101.929 10.659 101.778 10.6773C101.515 10.7288 101.263 10.8275 101.034 10.9685C100.507 11.3682 100.085 11.8901 99.8043 12.4893C99.5301 13.141 99.345 13.8267 99.2542 14.5278L101.099 14.6896C101.143 14.0676 101.344 13.4667 101.681 12.9423Z" fill="#808285"/>
<path d="M133.784 160.17L132.199 160.849C132.683 162.742 132.922 164.688 132.91 166.641C132.948 169.541 132.421 172.421 131.357 175.119C130.351 177.737 128.581 179.992 126.276 181.591C124.141 180.124 122.495 178.049 121.551 175.637C120.558 173.079 120.064 170.355 120.095 167.612C120.095 165.43 120.366 163.256 120.904 161.141L119.221 160.396C118.588 162.738 118.272 165.154 118.283 167.58C118.217 170.536 118.711 173.479 119.739 176.252C120.889 179.231 122.979 181.753 125.694 183.435H126.665C129.522 181.634 131.732 178.971 132.975 175.831C134.121 172.904 134.692 169.784 134.658 166.641C134.672 164.456 134.389 162.279 133.817 160.17H133.784Z" fill="#808285"/>
<path d="M112.134 170.265C112.139 171.347 112.204 172.427 112.328 173.501C110.526 172.375 109.044 170.804 108.024 168.94C107.003 167.076 106.48 164.981 106.503 162.856C106.508 160.115 107.444 157.456 109.157 155.316L107.604 154.378C105.703 156.856 104.679 159.895 104.691 163.017C104.7 165.789 105.515 168.498 107.038 170.814C108.561 173.129 110.725 174.951 113.267 176.057L114.529 175.054C114.257 173.472 114.116 171.871 114.108 170.265C114.022 167.376 114.495 164.498 115.5 161.788C115.802 161.045 116.148 160.321 116.535 159.62L116.794 159.232L115.144 158.552C113.059 162.143 112.017 166.244 112.134 170.395" fill="#808285"/>
<path d="M104.885 152.533L103.364 151.466C100.579 155.026 99.0437 159.404 98.9951 163.923C98.9951 164.247 98.9951 164.538 98.9951 164.829C97.6234 163.731 96.5178 162.337 95.7612 160.751C95.0046 159.165 94.6166 157.429 94.6263 155.672C94.607 152.541 95.7616 149.516 97.8625 147.194L96.5033 145.965C94.0906 148.623 92.7526 152.083 92.7493 155.672C92.7563 158.103 93.4029 160.489 94.6243 162.59C95.8456 164.692 97.5986 166.435 99.7071 167.644L101.066 166.609C100.849 165.73 100.741 164.828 100.743 163.923C100.812 159.782 102.245 155.778 104.82 152.533" fill="#808285"/>
<path d="M94.4321 143.894L93.17 142.567C90.7945 145.181 89.2021 148.41 88.5746 151.886C87.4597 149.596 86.863 147.088 86.8271 144.541C86.8131 141.957 87.5312 139.421 88.8982 137.228C88.5099 136.678 88.1539 136.128 87.7979 135.545C85.9538 138.18 84.9806 141.325 85.0148 144.541C85.0329 148.309 86.1583 151.988 88.251 155.122L89.9014 154.701C90.165 151.464 91.2208 148.341 92.9758 145.609C93.4152 144.959 93.902 144.342 94.4321 143.764" fill="#808285"/>
<path d="M101.487 33.1029C101.413 33.2369 101.306 33.3493 101.175 33.4288C101.045 33.5083 100.896 33.5521 100.743 33.5559C100.527 33.5485 100.322 33.4618 100.167 33.3125C100.012 33.1632 99.9172 32.9618 99.9013 32.747C100.441 32.8105 100.972 32.9298 101.487 33.1029ZM98.0243 33.1029C98.0958 33.758 98.4057 34.364 98.895 34.8056C99.3843 35.2471 100.019 35.4933 100.678 35.4974C101.202 35.5013 101.716 35.3538 102.158 35.0725C102.6 34.7912 102.952 34.3881 103.17 33.9118C104.432 34.4619 105.759 35.1414 107.021 35.6591L107.733 33.9766C106.503 33.4588 105.112 32.747 103.688 32.1322C102.333 31.4663 100.858 31.0811 99.3512 30.9997C98.5661 30.9938 97.7904 31.171 97.0858 31.5174C96.337 31.9398 95.7035 32.5398 95.2412 33.2647L96.7946 34.2678C97.0704 33.7896 97.4738 33.3975 97.9596 33.1353" fill="#808285"/>
<path d="M96.0828 43.2614C96.742 43.2732 97.3877 43.4513 97.9597 43.7791L98.8335 42.1612C97.9934 41.6867 97.0475 41.4308 96.0828 41.417C94.659 41.5118 93.2806 41.9564 92.0699 42.7113C91.0919 43.3204 89.9822 43.6866 88.8337 43.7791C88.1429 43.7725 87.4646 43.5946 86.8596 43.2614L86.0505 44.9116C86.9122 45.3529 87.8655 45.5857 88.8337 45.5911C90.2761 45.5127 91.6768 45.0792 92.9113 44.3292C93.8939 43.7299 95.0011 43.3646 96.1475 43.2614" fill="#808285"/>
<path d="M125.629 2.68568C125.778 2.4055 125.976 2.15361 126.212 1.94145H126.406C126.725 2.32966 126.957 2.78217 127.085 3.26811C127.304 4.04743 127.413 4.85329 127.409 5.66257H129.448C129.421 4.37468 129.123 3.10688 128.574 1.94145C128.372 1.44662 128.075 0.995984 127.7 0.614794C127.303 0.223478 126.769 0.00284263 126.212 0C125.668 0.0205285 125.15 0.239171 124.755 0.614794C124.193 1.21707 123.792 1.9517 123.59 2.75039C123.31 3.69567 123.168 4.67661 123.17 5.66257H125.014C124.994 4.64322 125.181 3.63033 125.564 2.68568" fill="#808285"/>
<path d="M121.875 38.4085C122.785 37.5464 123.51 36.5078 124.005 35.3561C124.501 34.2045 124.756 32.964 124.755 31.7105C124.756 31.1012 124.691 30.4936 124.561 29.8984C123.943 29.9311 123.328 29.9959 122.717 30.0926C122.849 30.6215 122.914 31.1651 122.911 31.7105C122.912 32.7147 122.709 33.7087 122.314 34.6321C121.919 35.5555 121.34 36.3889 120.613 37.0818L121.875 38.4085Z" fill="#808285"/>
<path d="M84.7559 33.2636C84.4851 33.9772 84.3427 34.7331 84.3352 35.4963C84.3862 36.681 84.7364 37.8335 85.3533 38.8463C85.9701 39.8591 86.8334 40.6992 87.8627 41.2883L89.1248 41.0294C89.6745 40.2296 90.4153 39.5798 91.28 39.139C92.1447 38.6982 93.1059 38.4805 94.0762 38.5055C95.5979 38.5433 97.0871 38.9544 98.4127 39.7028C99.401 40.2249 100.237 40.9941 100.84 41.9354C100.346 43.7202 99.1884 45.2485 97.6036 46.2066C95.8223 47.2569 93.781 47.784 91.7137 47.7274L90.9694 49.1835C91.6394 50.0958 92.5104 50.8417 93.5149 51.3635C94.5194 51.8854 95.6305 52.1691 96.7622 52.1928C97.7637 52.1917 98.7467 51.9237 99.6101 51.4162C100.066 51.0913 100.499 50.7345 100.905 50.3484C101.584 49.7336 102.328 48.9894 103.105 48.3746C103.674 47.852 104.347 47.4551 105.079 47.2097H105.791C106.493 47.2094 107.171 47.4622 107.701 47.9216C107.979 48.2001 108.195 48.5344 108.334 48.9026C108.474 49.2707 108.533 49.6642 108.51 50.0572V50.2837C108.52 50.7575 108.444 51.2292 108.283 51.6751C108.11 52.2343 107.823 52.7519 107.442 53.1959H109.642C109.799 52.884 109.929 52.5593 110.031 52.2251C110.212 51.6255 110.321 51.0063 110.354 50.3808V50.0572C110.385 49.4516 110.293 48.8461 110.085 48.2765C109.877 47.7069 109.557 47.1848 109.144 46.7412C108.73 46.2976 108.232 45.9416 107.678 45.6941C107.125 45.4467 106.527 45.3128 105.921 45.3006C105.555 45.2532 105.186 45.2532 104.82 45.3006C103.465 45.7544 102.235 46.519 101.228 47.5333L99.7719 48.86C99.4715 49.1787 99.1348 49.461 98.7686 49.7012C98.2061 50.0515 97.5542 50.2313 96.8917 50.219C95.8611 50.1907 94.8608 49.8648 94.0114 49.2806C95.6776 49.0808 97.2795 48.5174 98.7039 47.6304C100.71 46.3628 102.148 44.3685 102.717 42.0649V41.4501C101.937 40.0534 100.752 38.9254 99.3188 38.2143C97.7249 37.3243 95.934 36.846 94.1085 36.8229C93 36.796 91.899 37.0107 90.8819 37.4521C89.8647 37.8936 88.956 38.5512 88.2186 39.3792C87.5997 38.9583 87.0913 38.3945 86.7364 37.7355C86.3815 37.0765 86.1906 36.3417 86.1798 35.5934C86.186 35.0521 86.2845 34.5159 86.4711 34.0078C86.5834 33.6654 86.7591 33.3471 86.9889 33.0695C87.3717 32.5868 87.8666 32.2048 88.4306 31.9567C88.9945 31.7086 89.6105 31.6019 90.2251 31.6457C90.9272 31.6562 91.6244 31.7651 92.2963 31.9693L92.9759 32.1958H93.1377L94.4645 31.4839C94.4952 31.2009 94.6016 30.9314 94.7724 30.7037C94.9432 30.4759 95.1722 30.2984 95.4354 30.1896C96.3775 29.7573 97.4096 29.5576 98.445 29.6072C102.169 29.833 105.785 30.9422 108.995 32.843C110.944 33.8163 113.095 34.3152 115.273 34.2991H116.05H116.503C116.313 34.6071 116.085 34.8898 115.823 35.1403L115.241 35.6581C115.02 35.8614 114.781 36.0454 114.529 36.2081C115.489 37.1056 116.386 38.0678 117.215 39.088C120.278 43.1966 122.379 47.9404 123.364 52.9694H125.241C124.261 47.5355 122.046 42.3989 118.768 37.9555C118.218 37.2759 117.636 36.6288 117.021 35.9816H117.28C118.299 35.2784 119.141 34.3479 119.739 33.2636L118.639 31.9693C117.579 32.2237 116.492 32.3432 115.403 32.3252C113.394 32.3701 111.409 31.8905 109.642 30.9339L109.351 30.7721C108.671 30.4161 107.959 30.0602 107.28 29.769H106.956L105.112 29.1218L104.173 28.7983L103.105 28.507H102.49C101.978 28.392 101.459 28.3056 100.937 28.2482C100.116 28.0885 99.2817 28.0019 98.445 27.9893C97.1046 27.9457 95.7731 28.223 94.5616 28.7983L93.8496 29.1218C93.4665 29.4479 93.1482 29.843 92.9111 30.2867C91.9978 30.0074 91.0505 29.855 90.0956 29.8337C89.2158 29.8142 88.3429 29.9931 87.5417 30.3572C86.7405 30.7213 86.0317 31.2613 85.4679 31.9369C85.1129 32.3698 84.8388 32.863 84.6588 33.393" fill="#808285"/>
<path d="M153.299 17.8933C153.9 19.1005 154.22 20.4278 154.237 21.7762C154.297 23.2878 153.762 24.7627 152.749 25.8856C153.512 25.8061 154.282 25.8061 155.046 25.8856C155.709 24.6992 156.055 23.3618 156.049 22.0027C156.02 20.7314 155.78 19.4738 155.337 18.2816C155.337 18.0227 155.111 17.8286 155.014 17.5697C156.33 17.7091 157.561 18.2852 158.511 19.206C159.461 20.1267 160.076 21.3392 160.257 22.6498V22.9734C160.236 23.6506 160.076 24.3163 159.787 24.9288C159.497 25.5413 159.084 26.0873 158.574 26.5327C159.093 26.8384 159.536 27.259 159.868 27.7623C160.572 27.1685 161.141 26.4312 161.538 25.5997C161.934 24.7683 162.148 23.8619 162.166 22.9411V22.6498C161.941 20.8545 161.103 19.1917 159.794 17.9421C158.485 16.6924 156.786 15.9323 154.982 15.79L154.367 16.1783L153.946 16.6313L153.137 17.5373V17.7962" fill="#808285"/>
<path d="M141.454 24.0737C141.545 24.932 141.806 25.7635 142.223 26.5192C142.64 27.275 143.204 27.9397 143.881 28.4743C144.528 28.1508 145.176 27.8596 145.823 27.6007C145.141 27.2246 144.556 26.6959 144.112 26.056C143.669 25.4161 143.379 24.6823 143.266 23.9119V23.556C143.278 22.3713 143.702 21.2275 144.464 20.3202C145.205 19.4773 146.153 18.8417 147.215 18.4759C146.963 19.3713 146.833 20.2963 146.826 21.2263C146.794 23.1729 147.526 25.0548 148.865 26.4682C149.577 26.274 150.321 26.0799 151.001 25.9505C150.232 25.42 149.606 24.7087 149.177 23.8792C148.748 23.0498 148.53 22.1276 148.541 21.1939C148.547 20.2933 148.689 19.3987 148.962 18.5406L148.218 17.7964L147.959 17.5698L146.923 16.5991C145.377 17.0515 143.988 17.9254 142.91 19.123C141.875 20.3674 141.314 21.9376 141.325 23.556V24.0414L141.454 24.0737Z" fill="#808285"/>
<path d="M149.545 14.9815V14.4961C149.522 13.9596 149.633 13.4258 149.868 12.943L150.127 12.587H150.321C150.916 13.1685 151.263 13.9565 151.292 14.7874L153.104 14.6256C153.017 13.8954 152.809 13.1847 152.49 12.5223C152.49 12.3282 152.328 12.134 152.231 11.9723C151.982 11.6321 151.688 11.3273 151.357 11.0662C151.123 10.9362 150.873 10.8382 150.613 10.775C150.462 10.7599 150.31 10.7599 150.16 10.775H149.933C149.516 10.822 149.122 10.9908 148.8 11.2604C148.189 11.8348 147.79 12.5987 147.668 13.4283C147.636 13.816 147.636 14.2056 147.668 14.5932C147.652 14.8194 147.652 15.0465 147.668 15.2727L149.545 14.9815Z" fill="#808285"/>
<path d="M152.619 32.746C152.603 32.9608 152.509 33.1623 152.353 33.3116C152.198 33.4609 151.993 33.5476 151.778 33.5549C151.625 33.5512 151.476 33.5073 151.345 33.4278C151.214 33.3483 151.107 33.236 151.033 33.1019C151.545 32.9172 152.078 32.7976 152.619 32.746ZM151.778 35.367C152.442 35.3709 153.085 35.1283 153.581 34.686C154.077 34.2437 154.392 33.6332 154.464 32.9725C154.936 33.2523 155.336 33.6405 155.629 34.105L157.15 33.1019C156.734 32.3949 156.137 31.812 155.42 31.4137C154.703 31.0154 153.892 30.8162 153.072 30.8369C151.607 30.9463 150.178 31.3421 148.865 32.0018C147.441 32.6166 146.05 33.3284 144.82 33.8462L145.532 35.5288C146.826 35.011 148.121 34.3315 149.415 33.7815C149.628 34.2552 149.974 34.6571 150.41 34.9385C150.847 35.2199 151.355 35.3687 151.875 35.367" fill="#808285"/>
<path d="M163.687 43.7791C162.54 43.677 161.433 43.3116 160.451 42.7113C159.245 41.9696 157.881 41.5259 156.47 41.417C155.505 41.4308 154.559 41.6867 153.719 42.1612L154.561 43.7791C155.143 43.4473 155.8 43.2691 156.47 43.2614C157.618 43.3551 158.728 43.7212 159.706 44.3292C160.943 45.0743 162.342 45.5074 163.784 45.5911C164.752 45.5857 165.705 45.3529 166.567 44.9116L165.758 43.2614C165.154 43.5985 164.475 43.7766 163.784 43.7791" fill="#808285"/>
<path d="M158.574 29.122L157.959 28.7013C156.759 28.1251 155.438 27.8476 154.108 27.8924C153.26 27.9049 152.416 27.9915 151.583 28.1512C151.072 28.2087 150.564 28.2951 150.062 28.4101H149.447L148.379 28.7013L147.441 29.0249C146.858 29.219 146.308 29.4455 145.726 29.7044H145.402C144.723 29.9956 144.011 30.3515 143.299 30.7075L143.007 30.8693C141.237 31.8568 139.242 32.3696 137.215 32.3577C136.125 32.3757 135.038 32.2561 133.978 32.0018L132.878 33.2961C133.206 33.8584 133.585 34.3892 134.011 34.8816C134.4 35.3173 134.846 35.6982 135.338 36.0141H135.597C134.982 36.6613 134.431 37.3084 133.881 37.9556C130.611 42.4154 128.397 47.5606 127.409 53.0018H129.286C130.267 47.9661 132.381 43.2194 135.467 39.1204C136.277 38.0844 137.176 37.1208 138.153 36.2406C137.895 36.0706 137.647 35.887 137.409 35.6905C137.193 35.5439 136.997 35.3699 136.826 35.1728C136.537 34.9194 136.286 34.6251 136.082 34.2992H136.535H137.279C139.523 34.3414 141.743 33.8419 143.752 32.8431C146.958 30.9342 150.576 29.8244 154.302 29.6073C155.326 29.5629 156.347 29.7625 157.279 30.1898C157.541 30.3047 157.77 30.4834 157.945 30.7095C158.12 30.9355 158.236 31.2018 158.282 31.4841L159.577 32.1959C160.506 31.7883 161.507 31.5684 162.522 31.5488C163.136 31.5049 163.752 31.6117 164.316 31.8598C164.88 32.1079 165.375 32.4898 165.758 32.9725C165.988 33.2501 166.163 33.5685 166.276 33.9109C166.477 34.4147 166.576 34.9538 166.567 35.4964C166.555 36.2364 166.366 36.9628 166.017 37.6156C165.668 38.2683 165.169 38.8285 164.56 39.2499C163.815 38.4055 162.891 37.7379 161.856 37.2957C160.82 36.8535 159.699 36.6478 158.574 36.6936C156.738 36.7168 154.936 37.1949 153.331 38.085C151.954 38.8173 150.827 39.9441 150.095 41.3208V41.9356C150.633 44.2869 152.074 46.3323 154.108 47.6305C155.543 48.5182 157.156 49.0814 158.832 49.2807C157.981 49.86 156.982 50.1854 155.952 50.2191C155.279 50.2358 154.615 50.0559 154.043 49.7014C153.683 49.4526 153.347 49.171 153.04 48.8601C152.392 48.2776 151.583 47.5011 150.742 46.8215C149.956 46.1066 149.014 45.5858 147.991 45.3007C147.637 45.2532 147.278 45.2532 146.923 45.3007C146.309 45.2866 145.699 45.3993 145.13 45.6318C144.561 45.8643 144.047 46.2115 143.619 46.6519C143.19 47.0923 142.857 47.6162 142.641 48.191C142.424 48.7659 142.329 49.3792 142.36 49.9926V50.3162C142.359 50.9425 142.457 51.565 142.651 52.1605C142.764 52.4954 142.905 52.8201 143.072 53.1313H145.24C144.882 52.6712 144.599 52.1581 144.399 51.6105C144.271 51.1568 144.195 50.69 144.172 50.2191V49.9926C144.145 49.6198 144.196 49.2455 144.323 48.894C144.45 48.5425 144.65 48.2219 144.91 47.953C145.17 47.6842 145.483 47.4733 145.83 47.334C146.177 47.1948 146.55 47.1304 146.923 47.1451H147.603C148.646 47.5321 149.586 48.1519 150.354 48.9571L151.81 50.2838C152.209 50.6775 152.642 51.0349 153.104 51.3516C153.966 51.8635 154.95 52.1319 155.952 52.1282C157.078 52.0996 158.183 51.8135 159.182 51.2919C160.18 50.7703 161.046 50.0269 161.713 49.1189L160.968 47.6628C158.911 47.7239 156.879 47.1963 155.111 46.142C153.537 45.1718 152.383 43.6484 151.875 41.8708C152.486 40.9253 153.334 40.1558 154.334 39.6382C155.635 38.924 157.09 38.5354 158.574 38.5057C159.539 38.4801 160.496 38.6979 161.356 39.139C162.215 39.58 162.95 40.2301 163.493 41.0295L164.755 41.2884C165.776 40.715 166.636 39.8918 167.253 38.8958C167.87 37.8998 168.224 36.7636 168.282 35.5935C168.285 34.8322 168.154 34.0764 167.894 33.3608C167.691 32.8345 167.407 32.3432 167.052 31.9047C166.497 31.2279 165.794 30.6867 164.998 30.3223C164.201 29.9578 163.332 29.7797 162.457 29.8015C161.499 29.8128 160.548 29.9767 159.641 30.2868C159.38 29.8214 159.015 29.4227 158.574 29.122Z" fill="#808285"/>
<path d="M82.8468 55.9136V104.903C82.3813 113.93 84.254 122.924 88.2836 131.015C88.7043 131.792 89.1574 132.569 89.6428 133.378L90.646 134.963C96.6653 143.926 107.28 152.922 125.888 160.17H126.212H126.535C145.467 152.824 156.114 143.635 162.134 134.542L163.007 133.151C163.428 132.439 163.849 131.727 164.237 131.015C168.258 122.922 170.12 113.927 169.642 104.903V55.9136H82.8468ZM167.797 93.3513V104.903C168.27 113.625 166.475 122.32 162.587 130.142C157.409 139.849 147.085 150.139 126.244 158.293C105.403 150.139 95.112 139.849 89.934 130.142C86.0453 122.32 84.2502 113.625 84.7238 104.903V57.758H167.797V93.3513Z" fill="#808285"/>
<path d="M133.008 28.1505H133.396C134.32 28.368 135.229 28.6491 136.114 28.9918L137.538 27.5681C136.599 27.1865 135.637 26.8624 134.658 26.5974C132.998 26.2188 131.31 25.9807 129.61 25.8855C128.542 25.8855 127.409 25.8855 126.374 25.8855C124.994 25.7979 123.611 25.7979 122.231 25.8855C120.613 26.1069 119.013 26.4421 117.442 26.8886C116.574 27.1569 115.72 27.4701 114.885 27.827L116.309 29.2183C119.47 28.0057 122.826 27.3807 126.212 27.374C128.477 27.39 130.734 27.6503 132.943 28.1505" fill="#808285"/>
<path d="M137.797 8.41345C136.287 7.01048 134.292 6.24534 132.231 6.27785C131.48 6.28583 130.731 6.37259 129.998 6.53671L129.351 7.70158C129.714 8.90855 129.9 10.1622 129.901 11.4227C129.912 13.7111 129.272 15.9555 128.056 17.8942C127.756 18.4083 127.398 18.886 126.988 19.3179L128.509 20.3857C129.101 19.7032 129.612 18.9539 130.03 18.1531C131.152 16.0882 131.731 13.7724 131.713 11.4227C131.708 10.3328 131.578 9.24711 131.325 8.18695H132.231C133.819 8.15935 135.358 8.73789 136.535 9.80483C137.088 10.3421 137.525 10.9866 137.82 11.6988C138.115 12.411 138.261 13.1759 138.25 13.9466C138.206 15.8806 137.647 17.768 136.632 19.415C135.645 20.9572 134.564 22.4376 133.396 23.848L134.529 24.1069L135.305 24.3657C136.33 23.0794 137.27 21.7283 138.121 20.321C139.293 18.3648 139.919 16.1299 139.933 13.8495C139.942 12.8326 139.746 11.8243 139.357 10.8848C138.968 9.94528 138.393 9.09377 137.668 8.38109" fill="#808285"/>
<path d="M117.442 24.1715C117.814 24.0554 118.192 23.9582 118.574 23.8803C117.403 22.4387 116.322 20.9258 115.338 19.3502C114.343 17.7082 113.796 15.8337 113.752 13.9142C113.728 13.1292 113.872 12.3481 114.173 11.6228C114.474 10.8975 114.927 10.2447 115.5 9.70768C116.662 8.66224 118.177 8.09572 119.739 8.12216H120.645C120.383 9.18122 120.241 10.2668 120.225 11.3579C120.227 13.9953 120.954 16.5813 122.328 18.8325C122.656 19.355 123.035 19.8429 123.461 20.2886L125.014 19.4149C123.134 17.2291 122.11 14.4352 122.134 11.5521C122.138 10.2917 122.323 9.03851 122.684 7.83094L122.005 6.47193C121.259 6.32505 120.499 6.25995 119.739 6.27778C117.678 6.24527 115.684 7.01041 114.173 8.41338C113.437 9.11987 112.854 9.9695 112.459 10.91C112.063 11.8504 111.865 12.8618 111.875 13.8818C111.909 16.1639 112.545 18.3965 113.72 20.3533C114.604 21.7959 115.565 23.1893 116.6 24.5274L117.377 24.2686" fill="#808285"/>
<path fill-rule="evenodd" clip-rule="evenodd" d="M108.898 87.0423L103.364 85.6833L106.341 80.8296V80.6355L101.455 83.6124L100.128 78.0469H99.8689L98.5097 83.6124L93.6554 80.6031L93.4613 80.7973L96.4386 85.6833L90.8723 86.9776V87.3659L96.4386 88.6925L93.4289 93.5785L93.6231 93.7726L98.3479 90.6016L99.6424 96.1347H99.9337L101.261 90.6016L106.147 93.8374L106.341 93.6432L103.364 88.7572L108.898 87.3659V87.0423Z" fill="#ED1C24"/>
<path fill-rule="evenodd" clip-rule="evenodd" d="M135.37 73.4519L129.804 72.0929L132.813 67.2393L132.684 67.0451L127.797 70.022L126.47 64.4565H126.212L124.885 70.022L119.998 67.0128L119.804 67.2069L122.781 72.0929L117.247 73.4196V73.6784L122.814 75.0375L119.739 79.8911V80.0852L124.626 77.1083L126.212 82.6738H126.47L127.83 77.1083L132.684 80.1176V79.9235L129.707 75.0375L135.273 73.7108L135.37 73.4519Z" fill="#ED1C24"/>
<path fill-rule="evenodd" clip-rule="evenodd" d="M161.81 87.0423L156.276 85.6833L159.253 80.8296V80.6355L154.367 83.6124L153.04 78.0469H152.781L151.422 83.6124L146.567 80.6031L146.373 80.7973L149.35 85.6833L143.784 86.9776V87.3659L149.35 88.6925L146.341 93.5785L146.535 93.7726L151.292 90.6016L152.587 96.1347H152.878L154.205 90.6016L159.091 93.6109L159.286 93.4167L156.276 88.5307L161.81 87.3659V87.0423Z" fill="#ED1C24"/>
<path d="M126.212 104.45L91.6167 126.583C96.0503 136.29 105.597 146.612 126.244 154.604C146.891 146.612 156.438 136.258 160.871 126.615L126.212 104.45ZM138.283 131.954L130.839 133.734L134.82 140.205L134.626 140.432L128.153 136.419L126.341 143.862H126.212L124.464 136.452L117.992 140.432L117.798 140.205L121.81 133.734L114.367 131.922V131.631L121.81 129.851L117.83 123.379L118.056 123.153L124.529 127.165L126.212 119.723H126.535L128.283 127.133L134.755 123.153L134.949 123.379L130.969 129.851L138.38 131.663L138.283 131.954Z" fill="#0054A6"/>
</svg>
