<svg width="19" height="21" viewBox="0 0 19 21" fill="none" xmlns="http://www.w3.org/2000/svg">
<path d="M14.5 8.09375H4.5V6.09375H14.5V8.09375ZM14.5 12.0938H4.5V10.0938H14.5V12.0938ZM11.5 16.0938H4.5V14.0938H11.5V16.0938ZM9.5 2.09375C9.76522 2.09375 10.0196 2.19911 10.2071 2.38664C10.3946 2.57418 10.5 2.82853 10.5 3.09375C10.5 3.35897 10.3946 3.61332 10.2071 3.80086C10.0196 3.98839 9.76522 4.09375 9.5 4.09375C9.23478 4.09375 8.98043 3.98839 8.79289 3.80086C8.60536 3.61332 8.5 3.35897 8.5 3.09375C8.5 2.82853 8.60536 2.57418 8.79289 2.38664C8.98043 2.19911 9.23478 2.09375 9.5 2.09375ZM16.5 2.09375H12.32C11.9 0.93375 10.8 0.09375 9.5 0.09375C8.2 0.09375 7.1 0.93375 6.68 2.09375H2.5C1.96957 2.09375 1.46086 2.30446 1.08579 2.67954C0.710714 3.05461 0.5 3.56332 0.5 4.09375V18.0938C0.5 18.6242 0.710714 19.1329 1.08579 19.508C1.46086 19.883 1.96957 20.0938 2.5 20.0938H16.5C17.0304 20.0938 17.5391 19.883 17.9142 19.508C18.2893 19.1329 18.5 18.6242 18.5 18.0938V4.09375C18.5 3.56332 18.2893 3.05461 17.9142 2.67954C17.5391 2.30446 17.0304 2.09375 16.5 2.09375Z" fill="#0039A6"/>
</svg>
