<svg width="32" height="32" viewBox="0 0 32 32" fill="none" xmlns="http://www.w3.org/2000/svg">
<path d="M16 0C7.16353 0 0 7.16353 0 16C0 24.8365 7.16353 32 16 32C24.8365 32 32 24.8365 32 16C32 7.16353 24.8365 0 16 0ZM20.7008 9.17099C19.9403 9.17099 19.1749 9.17099 18.4147 9.17099C17.9335 9.13984 17.4371 9.50714 17.3491 9.98832C17.3387 10.8212 17.3439 11.6538 17.3439 12.4867C18.4611 12.4919 19.5785 12.4867 20.696 12.4919C20.6132 13.6969 20.4633 14.8971 20.2875 16.087C19.2995 16.0973 18.3115 16.087 17.3235 16.0921C17.3131 19.6457 17.3287 23.194 17.3183 26.7479C15.8491 26.7531 14.3855 26.7427 12.9163 26.7531C12.8903 23.1995 12.9163 19.646 12.9007 16.0921C12.1869 16.087 11.4679 16.0973 10.7541 16.087C10.7592 14.892 10.7541 13.6973 10.7541 12.5075C11.4679 12.4971 12.1869 12.5075 12.9007 12.5023C12.9215 11.3436 12.8799 10.1798 12.9215 9.02109C12.999 8.09507 13.3456 7.16937 14.0337 6.5331C14.8666 5.74173 16.0457 5.47274 17.1632 5.4416C18.3426 5.43121 19.5221 5.4364 20.7012 5.4364C20.706 6.683 20.706 7.9244 20.7008 9.17099Z" fill="white"/>
</svg>
