<svg width="19" height="19" viewBox="0 0 19 19" fill="none" xmlns="http://www.w3.org/2000/svg">
<path d="M14.6289 0.695312H2.62891C1.51891 0.695312 0.628906 1.59531 0.628906 2.69531V16.6953C0.628906 17.7953 1.51891 18.6953 2.62891 18.6953H16.6289C17.7289 18.6953 18.6289 17.7953 18.6289 16.6953V4.69531L14.6289 0.695312ZM9.62891 16.6953C7.96891 16.6953 6.62891 15.3553 6.62891 13.6953C6.62891 12.0353 7.96891 10.6953 9.62891 10.6953C11.2889 10.6953 12.6289 12.0353 12.6289 13.6953C12.6289 15.3553 11.2889 16.6953 9.62891 16.6953ZM12.6289 6.69531H2.62891V2.69531H12.6289V6.69531Z" fill="#0039A6"/>
</svg>
