<svg width="189" height="148" viewBox="0 0 189 148" fill="none" xmlns="http://www.w3.org/2000/svg">
<g filter="url(#filter0_d)">
<path d="M16 83.3006V46H81V83.3006C81 88.0067 81 94.9788 76.9264 102.474C76.6608 102.997 76.3951 103.52 76.0409 104.042C75.8638 104.304 75.6866 104.653 75.5095 104.914L75.421 105.088C70.2847 112.845 61.4292 119.12 49.0313 123.826L48.5886 124L48.1458 123.826C35.9251 119.12 27.0695 112.932 21.9332 105.35C21.6676 105.001 21.4019 104.653 21.1362 104.217C20.6935 103.607 20.4278 103.084 20.0736 102.474C16 94.9788 16 87.9196 16 83.3006Z" fill="url(#paint0_radial)"/>
</g>
<path d="M64.1003 62.4667H32.9003C30.9936 62.4667 29.4336 64.0267 29.4336 65.9333V86.7333C29.4336 88.64 30.9936 90.2 32.9003 90.2H45.0336V93.6667H41.5669V97.1333H55.4336V93.6667H51.9669V90.2H64.1003C66.0069 90.2 67.5669 88.64 67.5669 86.7333V65.9333C67.5669 64.0267 66.0069 62.4667 64.1003 62.4667ZM64.1003 86.7333H32.9003V65.9333H64.1003V86.7333Z" fill="#0039A6"/>
<g filter="url(#filter1_d)">
<path d="M108 83.3006V46H173V83.3006C173 88.0067 173 94.9788 168.926 102.474C168.661 102.997 168.395 103.52 168.041 104.042C167.864 104.304 167.687 104.653 167.51 104.914L167.421 105.088C162.285 112.845 153.429 119.12 141.031 123.826L140.589 124L140.146 123.826C127.925 119.12 119.069 112.932 113.933 105.35C113.668 105.001 113.402 104.653 113.136 104.217C112.693 103.607 112.428 103.084 112.074 102.474C108 94.9788 108 87.9196 108 83.3006Z" fill="url(#paint1_radial)"/>
</g>
<path d="M123.167 93.6667H157.834V86.7334H123.167V93.6667ZM126.634 88.4667H130.1V91.9334H126.634V88.4667ZM123.167 65.9334V72.8667H157.834V65.9334H123.167ZM130.1 71.1334H126.634V67.6667H130.1V71.1334ZM123.167 83.2667H157.834V76.3334H123.167V83.2667ZM126.634 78.0667H130.1V81.5334H126.634V78.0667Z" fill="#0039A6"/>
<g filter="url(#filter2_d)">
<path d="M62 45.3006V8H127V45.3006C127 50.0067 127 56.9788 122.926 64.4737C122.661 64.9967 122.395 65.5196 122.041 66.0425C121.864 66.3039 121.687 66.6525 121.51 66.914L121.421 67.0883C116.285 74.8447 107.429 81.1196 95.0313 85.8257L94.5886 86L94.1458 85.8257C81.9251 81.1196 73.0695 74.9318 67.9332 67.3497C67.6676 67.0011 67.4019 66.6525 67.1362 66.2168C66.6935 65.6067 66.4278 65.0838 66.0736 64.4737C62 56.9788 62 49.9196 62 45.3006Z" fill="url(#paint2_radial)"/>
</g>
<path d="M87.567 29.6666H101.434C102.813 29.6666 104.135 30.2145 105.111 31.1897C106.086 32.1648 106.634 33.4875 106.634 34.8666V48.7333C106.634 50.1124 106.086 51.4351 105.111 52.4102C104.135 53.3854 102.813 53.9333 101.434 53.9333H87.567C86.1879 53.9333 84.8652 53.3854 83.89 52.4102C82.9148 51.4351 82.367 50.1124 82.367 48.7333V34.8666C82.367 33.4875 82.9148 32.1648 83.89 31.1897C84.8652 30.2145 86.1879 29.6666 87.567 29.6666ZM87.567 33.1333C87.1073 33.1333 86.6664 33.3159 86.3413 33.641C86.0163 33.966 85.8337 34.4069 85.8337 34.8666V48.7333C85.8337 49.193 86.0163 49.6339 86.3413 49.9589C86.6664 50.284 87.1073 50.4666 87.567 50.4666H101.434C101.893 50.4666 102.334 50.284 102.659 49.9589C102.984 49.6339 103.167 49.193 103.167 48.7333V34.8666C103.167 34.4069 102.984 33.966 102.659 33.641C102.334 33.3159 101.893 33.1333 101.434 33.1333H87.567ZM91.0337 36.5999H97.967C98.4267 36.5999 98.8676 36.7826 99.1926 37.1076C99.5177 37.4327 99.7003 37.8736 99.7003 38.3333V45.2666C99.7003 45.7263 99.5177 46.1672 99.1926 46.4923C98.8676 46.8173 98.4267 47 97.967 47H91.0337C90.574 47 90.1331 46.8173 89.808 46.4923C89.4829 46.1672 89.3003 45.7263 89.3003 45.2666V38.3333C89.3003 37.8736 89.4829 37.4327 89.808 37.1076C90.1331 36.7826 90.574 36.5999 91.0337 36.5999ZM92.767 40.0666V43.5333H96.2337V40.0666H92.767ZM87.567 24.4666C88.0267 24.4666 88.4676 24.6492 88.7926 24.9743C89.1177 25.2994 89.3003 25.7402 89.3003 26.1999V29.6666C89.3003 30.1263 89.1177 30.5672 88.7926 30.8923C88.4676 31.2173 88.0267 31.3999 87.567 31.3999C87.1073 31.3999 86.6664 31.2173 86.3413 30.8923C86.0163 30.5672 85.8337 30.1263 85.8337 29.6666V26.1999C85.8337 25.7402 86.0163 25.2994 86.3413 24.9743C86.6664 24.6492 87.1073 24.4666 87.567 24.4666ZM78.9003 33.1333H82.367C82.8267 33.1333 83.2676 33.3159 83.5926 33.641C83.9177 33.966 84.1003 34.4069 84.1003 34.8666C84.1003 35.3263 83.9177 35.7672 83.5926 36.0923C83.2676 36.4173 82.8267 36.5999 82.367 36.5999H78.9003C78.4406 36.5999 77.9997 36.4173 77.6747 36.0923C77.3496 35.7672 77.167 35.3263 77.167 34.8666C77.167 34.4069 77.3496 33.966 77.6747 33.641C77.9997 33.3159 78.4406 33.1333 78.9003 33.1333ZM106.634 33.1333H110.1C110.56 33.1333 111.001 33.3159 111.326 33.641C111.651 33.966 111.834 34.4069 111.834 34.8666C111.834 35.3263 111.651 35.7672 111.326 36.0923C111.001 36.4173 110.56 36.5999 110.1 36.5999H106.634C106.174 36.5999 105.733 36.4173 105.408 36.0923C105.083 35.7672 104.9 35.3263 104.9 34.8666C104.9 34.4069 105.083 33.966 105.408 33.641C105.733 33.3159 106.174 33.1333 106.634 33.1333ZM78.9003 40.0666H82.367C82.8267 40.0666 83.2676 40.2492 83.5926 40.5743C83.9177 40.8994 84.1003 41.3402 84.1003 41.7999C84.1003 42.2597 83.9177 42.7005 83.5926 43.0256C83.2676 43.3507 82.8267 43.5333 82.367 43.5333H78.9003C78.4406 43.5333 77.9997 43.3507 77.6747 43.0256C77.3496 42.7005 77.167 42.2597 77.167 41.7999C77.167 41.3402 77.3496 40.8994 77.6747 40.5743C77.9997 40.2492 78.4406 40.0666 78.9003 40.0666ZM106.634 40.0666H110.1C110.56 40.0666 111.001 40.2492 111.326 40.5743C111.651 40.8994 111.834 41.3402 111.834 41.7999C111.834 42.2597 111.651 42.7005 111.326 43.0256C111.001 43.3507 110.56 43.5333 110.1 43.5333H106.634C106.174 43.5333 105.733 43.3507 105.408 43.0256C105.083 42.7005 104.9 42.2597 104.9 41.7999C104.9 41.3402 105.083 40.8994 105.408 40.5743C105.733 40.2492 106.174 40.0666 106.634 40.0666ZM78.9003 47H82.367C82.8267 47 83.2676 47.1826 83.5926 47.5076C83.9177 47.8327 84.1003 48.2736 84.1003 48.7333C84.1003 49.193 83.9177 49.6339 83.5926 49.9589C83.2676 50.284 82.8267 50.4666 82.367 50.4666H78.9003C78.4406 50.4666 77.9997 50.284 77.6747 49.9589C77.3496 49.6339 77.167 49.193 77.167 48.7333C77.167 48.2736 77.3496 47.8327 77.6747 47.5076C77.9997 47.1826 78.4406 47 78.9003 47ZM106.634 47H110.1C110.56 47 111.001 47.1826 111.326 47.5076C111.651 47.8327 111.834 48.2736 111.834 48.7333C111.834 49.193 111.651 49.6339 111.326 49.9589C111.001 50.284 110.56 50.4666 110.1 50.4666H106.634C106.174 50.4666 105.733 50.284 105.408 49.9589C105.083 49.6339 104.9 49.193 104.9 48.7333C104.9 48.2736 105.083 47.8327 105.408 47.5076C105.733 47.1826 106.174 47 106.634 47ZM87.567 52.2C88.0267 52.2 88.4676 52.3826 88.7926 52.7076C89.1177 53.0327 89.3003 53.4736 89.3003 53.9333V57.4C89.3003 57.8597 89.1177 58.3005 88.7926 58.6256C88.4676 58.9507 88.0267 59.1333 87.567 59.1333C87.1073 59.1333 86.6664 58.9507 86.3413 58.6256C86.0163 58.3005 85.8337 57.8597 85.8337 57.4V53.9333C85.8337 53.4736 86.0163 53.0327 86.3413 52.7076C86.6664 52.3826 87.1073 52.2 87.567 52.2ZM101.434 24.4666C101.893 24.4666 102.334 24.6492 102.659 24.9743C102.984 25.2994 103.167 25.7402 103.167 26.1999V29.6666C103.167 30.1263 102.984 30.5672 102.659 30.8923C102.334 31.2173 101.893 31.3999 101.434 31.3999C100.974 31.3999 100.533 31.2173 100.208 30.8923C99.8829 30.5672 99.7003 30.1263 99.7003 29.6666V26.1999C99.7003 25.7402 99.8829 25.2994 100.208 24.9743C100.533 24.6492 100.974 24.4666 101.434 24.4666ZM101.434 52.2C101.893 52.2 102.334 52.3826 102.659 52.7076C102.984 53.0327 103.167 53.4736 103.167 53.9333V57.4C103.167 57.8597 102.984 58.3005 102.659 58.6256C102.334 58.9507 101.893 59.1333 101.434 59.1333C100.974 59.1333 100.533 58.9507 100.208 58.6256C99.8829 58.3005 99.7003 57.8597 99.7003 57.4V53.9333C99.7003 53.4736 99.8829 53.0327 100.208 52.7076C100.533 52.3826 100.974 52.2 101.434 52.2ZM94.5003 24.4666C94.96 24.4666 95.4009 24.6492 95.726 24.9743C96.051 25.2994 96.2337 25.7402 96.2337 26.1999V29.6666C96.2337 30.1263 96.051 30.5672 95.726 30.8923C95.4009 31.2173 94.96 31.3999 94.5003 31.3999C94.0406 31.3999 93.5997 31.2173 93.2747 30.8923C92.9496 30.5672 92.767 30.1263 92.767 29.6666V26.1999C92.767 25.7402 92.9496 25.2994 93.2747 24.9743C93.5997 24.6492 94.0406 24.4666 94.5003 24.4666ZM94.5003 52.2C94.96 52.2 95.4009 52.3826 95.726 52.7076C96.051 53.0327 96.2337 53.4736 96.2337 53.9333V57.4C96.2337 57.8597 96.051 58.3005 95.726 58.6256C95.4009 58.9507 94.96 59.1333 94.5003 59.1333C94.0406 59.1333 93.5997 58.9507 93.2747 58.6256C92.9496 58.3005 92.767 57.8597 92.767 57.4V53.9333C92.767 53.4736 92.9496 53.0327 93.2747 52.7076C93.5997 52.3826 94.0406 52.2 94.5003 52.2Z" fill="#0039A6"/>
<defs>
<filter id="filter0_d" x="0" y="38" width="97" height="110" filterUnits="userSpaceOnUse" color-interpolation-filters="sRGB">
<feFlood flood-opacity="0" result="BackgroundImageFix"/>
<feColorMatrix in="SourceAlpha" type="matrix" values="0 0 0 0 0 0 0 0 0 0 0 0 0 0 0 0 0 0 127 0" result="hardAlpha"/>
<feOffset dy="8"/>
<feGaussianBlur stdDeviation="8"/>
<feColorMatrix type="matrix" values="0 0 0 0 0.116667 0 0 0 0 0.41712 0 0 0 0 1 0 0 0 0.16 0"/>
<feBlend mode="normal" in2="BackgroundImageFix" result="effect1_dropShadow"/>
<feBlend mode="normal" in="SourceGraphic" in2="effect1_dropShadow" result="shape"/>
</filter>
<filter id="filter1_d" x="92" y="38" width="97" height="110" filterUnits="userSpaceOnUse" color-interpolation-filters="sRGB">
<feFlood flood-opacity="0" result="BackgroundImageFix"/>
<feColorMatrix in="SourceAlpha" type="matrix" values="0 0 0 0 0 0 0 0 0 0 0 0 0 0 0 0 0 0 127 0" result="hardAlpha"/>
<feOffset dy="8"/>
<feGaussianBlur stdDeviation="8"/>
<feColorMatrix type="matrix" values="0 0 0 0 0.116667 0 0 0 0 0.41712 0 0 0 0 1 0 0 0 0.16 0"/>
<feBlend mode="normal" in2="BackgroundImageFix" result="effect1_dropShadow"/>
<feBlend mode="normal" in="SourceGraphic" in2="effect1_dropShadow" result="shape"/>
</filter>
<filter id="filter2_d" x="46" y="0" width="97" height="110" filterUnits="userSpaceOnUse" color-interpolation-filters="sRGB">
<feFlood flood-opacity="0" result="BackgroundImageFix"/>
<feColorMatrix in="SourceAlpha" type="matrix" values="0 0 0 0 0 0 0 0 0 0 0 0 0 0 0 0 0 0 127 0" result="hardAlpha"/>
<feOffset dy="8"/>
<feGaussianBlur stdDeviation="8"/>
<feColorMatrix type="matrix" values="0 0 0 0 0.116667 0 0 0 0 0.41712 0 0 0 0 1 0 0 0 0.16 0"/>
<feBlend mode="normal" in2="BackgroundImageFix" result="effect1_dropShadow"/>
<feBlend mode="normal" in="SourceGraphic" in2="effect1_dropShadow" result="shape"/>
</filter>
<radialGradient id="paint0_radial" cx="0" cy="0" r="1" gradientUnits="userSpaceOnUse" gradientTransform="translate(81 11.55) rotate(113.385) scale(104.809 87.3411)">
<stop stop-color="#E0E9FF"/>
<stop offset="0.03125" stop-color="#D0DDFF"/>
<stop offset="1" stop-color="white"/>
</radialGradient>
<radialGradient id="paint1_radial" cx="0" cy="0" r="1" gradientUnits="userSpaceOnUse" gradientTransform="translate(173 11.55) rotate(113.385) scale(104.809 87.3411)">
<stop stop-color="#E0E9FF"/>
<stop offset="0.03125" stop-color="#D0DDFF"/>
<stop offset="1" stop-color="white"/>
</radialGradient>
<radialGradient id="paint2_radial" cx="0" cy="0" r="1" gradientUnits="userSpaceOnUse" gradientTransform="translate(127 -26.45) rotate(113.385) scale(104.809 87.3411)">
<stop stop-color="#E0E9FF"/>
<stop offset="0.03125" stop-color="#D0DDFF"/>
<stop offset="1" stop-color="white"/>
</radialGradient>
</defs>
</svg>
