<svg width="189" height="148" viewBox="0 0 189 148" fill="none" xmlns="http://www.w3.org/2000/svg">
<g filter="url(#filter0_d)">
<path d="M108 83.3006V46H173V83.3006C173 88.0067 173 94.9788 168.926 102.474C168.661 102.997 168.395 103.52 168.041 104.042C167.864 104.304 167.687 104.653 167.51 104.914L167.421 105.088C162.285 112.845 153.429 119.12 141.031 123.826L140.589 124L140.146 123.826C127.925 119.12 119.069 112.932 113.933 105.35C113.668 105.001 113.402 104.653 113.136 104.217C112.693 103.607 112.428 103.084 112.074 102.474C108 94.9788 108 87.9196 108 83.3006Z" fill="url(#paint0_radial)"/>
</g>
<path d="M140.499 60.7334C132.855 60.7334 126.633 66.956 126.633 74.6C126.633 84.2547 138.697 97.7227 139.217 98.2947L140.499 99.716L141.782 98.2947C142.302 97.7227 154.366 84.2547 154.366 74.6C154.366 66.956 148.143 60.7334 140.499 60.7334ZM140.499 94.4814C136.721 89.9574 130.099 80.736 130.099 74.6C130.099 68.8627 134.762 64.2 140.499 64.2C146.237 64.2 150.899 68.8627 150.899 74.6C150.899 81.2387 143.533 90.824 140.499 94.4814ZM137.847 78.3614L134.797 75.2934L132.335 77.7547L137.847 83.2667L148.265 72.8494L145.821 70.388L137.847 78.3614Z" fill="#0039A6"/>
<g filter="url(#filter1_d)">
<path d="M16 83.3006V46H81V83.3006C81 88.0067 81 94.9788 76.9264 102.474C76.6608 102.997 76.3951 103.52 76.0409 104.042C75.8638 104.304 75.6866 104.653 75.5095 104.914L75.421 105.088C70.2847 112.845 61.4292 119.12 49.0313 123.826L48.5886 124L48.1458 123.826C35.9251 119.12 27.0695 112.932 21.9332 105.35C21.6676 105.001 21.4019 104.653 21.1362 104.217C20.6935 103.607 20.4278 103.084 20.0736 102.474C16 94.9788 16 87.9196 16 83.3006Z" fill="url(#paint1_radial)"/>
</g>
<path d="M42.2787 85.9194C42.2787 85.5275 42.2036 85.1608 42.0533 84.8191C41.9138 84.4775 41.6669 84.161 41.3128 83.8696C40.9693 83.5681 40.5132 83.2968 39.9443 83.0556C39.3862 82.8044 38.6886 82.5733 37.8515 82.3623C36.8318 82.1011 35.8552 81.7745 34.9214 81.3826C33.9984 80.9907 33.1827 80.5184 32.4744 79.9658C31.766 79.4131 31.1972 78.77 30.7679 78.0365C30.3493 77.303 30.14 76.4589 30.14 75.5043C30.14 74.5799 30.3493 73.7409 30.7679 72.9872C31.1864 72.2336 31.766 71.5905 32.5066 71.058C33.2471 70.5254 34.1218 70.1184 35.1307 69.8371C36.1396 69.5457 37.2343 69.4 38.4149 69.4C39.6384 69.4 40.7547 69.5658 41.7635 69.8974C42.7831 70.229 43.6579 70.6962 44.3877 71.2991C45.1175 71.892 45.6863 72.6004 46.0942 73.4243C46.4882 74.2203 46.6919 75.0913 46.7052 76.0374C46.706 76.0926 46.6612 76.1374 46.6059 76.1374H42.3905C42.337 76.1374 42.2931 76.0952 42.2897 76.0418C42.2604 75.5863 42.1656 75.166 42.005 74.7809C41.844 74.3689 41.5972 74.0172 41.2645 73.7258C40.9425 73.4243 40.5346 73.1932 40.0409 73.0325C39.558 72.8616 38.9891 72.7762 38.3344 72.7762C37.7334 72.7762 37.1968 72.8466 36.7245 72.9872C36.263 73.1179 35.8713 73.3088 35.5493 73.56C35.2273 73.8012 34.9805 74.0926 34.8087 74.4342C34.6477 74.7658 34.5672 75.1275 34.5672 75.5194C34.5672 75.9314 34.6746 76.3032 34.8892 76.6348C35.1146 76.9664 35.4366 77.2678 35.8552 77.5391C36.2737 77.8004 36.7782 78.0415 37.3685 78.2626C37.9695 78.4837 38.6457 78.6897 39.397 78.8806C40.4702 79.172 41.4576 79.5287 42.3592 79.9507C43.2607 80.3727 44.0335 80.8752 44.6775 81.458C45.3322 82.0307 45.8366 82.6889 46.1908 83.4325C46.5557 84.166 46.7381 84.9849 46.7381 85.8893C46.7381 86.8539 46.5289 87.713 46.1103 88.4667C45.7024 89.2102 45.1336 89.8433 44.4038 90.3658C43.6739 90.8783 42.8046 91.2701 41.7957 91.5414C40.7868 91.8027 39.6867 91.9333 38.4954 91.9333C37.7549 91.9333 37.0143 91.868 36.2737 91.7374C35.5439 91.6168 34.8409 91.4259 34.1648 91.1646C33.4993 90.9034 32.8768 90.5768 32.2973 90.1849C31.7177 89.793 31.2133 89.3358 30.784 88.8133C30.3654 88.2908 30.0327 87.698 29.7858 87.0348C29.5595 86.3992 29.4417 85.699 29.4323 84.9342C29.4316 84.879 29.4764 84.8342 29.5316 84.8342H33.7782C33.8321 84.8342 33.8763 84.8771 33.8789 84.931C33.9088 85.5528 34.0309 86.0883 34.2453 86.5374C34.4706 87.0097 34.7819 87.3965 35.179 87.698C35.5869 87.9994 36.0698 88.2205 36.6279 88.3612C37.1968 88.5018 37.8193 88.5722 38.4954 88.5722C39.0964 88.5722 39.6277 88.5069 40.0892 88.3762C40.5615 88.2456 40.9586 88.0647 41.2806 87.8336C41.6025 87.6025 41.8494 87.3262 42.0211 87.0046C42.1928 86.673 42.2787 86.3113 42.2787 85.9194Z" fill="#0039A6"/>
<path d="M55.3872 69.7014C55.4324 69.7014 55.472 69.7318 55.4838 69.7754L57.5951 77.6107C57.6213 77.7076 57.7579 77.71 57.7873 77.614L60.1914 69.7721C60.2043 69.7301 60.2431 69.7014 60.287 69.7014H65.7316C65.7869 69.7014 65.8316 69.7462 65.8316 69.8014V91.547C65.8316 91.6022 65.7869 91.647 65.7316 91.647H61.7781C61.7228 91.647 61.6781 91.6022 61.6781 91.547V85.1507L61.8585 75.563C61.8607 75.4479 61.6987 75.4209 61.6634 75.5304L58.8187 84.3429C58.8054 84.3842 58.7669 84.4122 58.7235 84.4122H56.6328C56.5887 84.4122 56.5499 84.3833 56.5371 84.3411L54.0156 75.9888C53.982 75.8775 53.8176 75.9034 53.8199 76.0196L53.9988 85.1507V91.547C53.9988 91.6022 53.954 91.647 53.8988 91.647H49.9453C49.89 91.647 49.8453 91.6022 49.8453 91.547V69.8014C49.8453 69.7462 49.89 69.7014 49.9453 69.7014H55.3872Z" fill="#0039A6"/>
<g filter="url(#filter2_d)">
<path d="M61 45.3006V8H126V45.3006C126 50.0067 126 56.9788 121.926 64.4737C121.661 64.9967 121.395 65.5196 121.041 66.0425C120.864 66.3039 120.687 66.6525 120.51 66.914L120.421 67.0883C115.285 74.8447 106.429 81.1196 94.0313 85.8257L93.5886 86L93.1458 85.8257C80.9251 81.1196 72.0695 74.9318 66.9332 67.3497C66.6676 67.0011 66.4019 66.6525 66.1362 66.2168C65.6935 65.6067 65.4278 65.0838 65.0736 64.4737C61 56.9788 61 49.9196 61 45.3006Z" fill="url(#paint2_radial)"/>
</g>
<path d="M92.8275 34.844C92.8275 34.8993 92.7827 34.944 92.7275 34.944H85.8919C85.8367 34.944 85.7919 34.9888 85.7919 35.044V53.8333C85.7919 53.8886 85.7472 53.9333 85.6919 53.9333H81.4732C81.418 53.9333 81.3732 53.8886 81.3732 53.8333V35.044C81.3732 34.9888 81.3284 34.944 81.2732 34.944H74.5316C74.4764 34.944 74.4316 34.8993 74.4316 34.844V31.5C74.4316 31.4448 74.4764 31.4 74.5316 31.4H92.7275C92.7827 31.4 92.8275 31.4448 92.8275 31.5V34.844Z" fill="#0039A6"/>
<path d="M100.663 31.4C100.709 31.4 100.748 31.431 100.76 31.4752L102.812 39.5105C102.837 39.6091 102.977 39.6114 103.005 39.5136L105.342 31.4721C105.354 31.4294 105.394 31.4 105.438 31.4H110.732C110.787 31.4 110.832 31.4448 110.832 31.5V53.8333C110.832 53.8886 110.787 53.9333 110.732 53.9333H106.889C106.834 53.9333 106.789 53.8886 106.789 53.8333V47.2631L106.964 37.4356C106.966 37.3197 106.803 37.2937 106.769 37.4046L104.006 46.434C103.993 46.476 103.954 46.5048 103.91 46.5048H101.881C101.837 46.5048 101.798 46.4752 101.785 46.4323L99.3369 37.8766C99.3047 37.7641 99.1386 37.789 99.1408 37.906L99.3146 47.2631V53.8333C99.3146 53.8886 99.2699 53.9333 99.2146 53.9333H95.3719C95.3167 53.9333 95.2719 53.8886 95.2719 53.8333V31.5C95.2719 31.4448 95.3167 31.4 95.3719 31.4H100.663Z" fill="#0039A6"/>
<defs>
<filter id="filter0_d" x="92" y="38" width="97" height="110" filterUnits="userSpaceOnUse" color-interpolation-filters="sRGB">
<feFlood flood-opacity="0" result="BackgroundImageFix"/>
<feColorMatrix in="SourceAlpha" type="matrix" values="0 0 0 0 0 0 0 0 0 0 0 0 0 0 0 0 0 0 127 0" result="hardAlpha"/>
<feOffset dy="8"/>
<feGaussianBlur stdDeviation="8"/>
<feColorMatrix type="matrix" values="0 0 0 0 0.116667 0 0 0 0 0.41712 0 0 0 0 1 0 0 0 0.16 0"/>
<feBlend mode="normal" in2="BackgroundImageFix" result="effect1_dropShadow"/>
<feBlend mode="normal" in="SourceGraphic" in2="effect1_dropShadow" result="shape"/>
</filter>
<filter id="filter1_d" x="0" y="38" width="97" height="110" filterUnits="userSpaceOnUse" color-interpolation-filters="sRGB">
<feFlood flood-opacity="0" result="BackgroundImageFix"/>
<feColorMatrix in="SourceAlpha" type="matrix" values="0 0 0 0 0 0 0 0 0 0 0 0 0 0 0 0 0 0 127 0" result="hardAlpha"/>
<feOffset dy="8"/>
<feGaussianBlur stdDeviation="8"/>
<feColorMatrix type="matrix" values="0 0 0 0 0.116667 0 0 0 0 0.41712 0 0 0 0 1 0 0 0 0.16 0"/>
<feBlend mode="normal" in2="BackgroundImageFix" result="effect1_dropShadow"/>
<feBlend mode="normal" in="SourceGraphic" in2="effect1_dropShadow" result="shape"/>
</filter>
<filter id="filter2_d" x="45" y="0" width="97" height="110" filterUnits="userSpaceOnUse" color-interpolation-filters="sRGB">
<feFlood flood-opacity="0" result="BackgroundImageFix"/>
<feColorMatrix in="SourceAlpha" type="matrix" values="0 0 0 0 0 0 0 0 0 0 0 0 0 0 0 0 0 0 127 0" result="hardAlpha"/>
<feOffset dy="8"/>
<feGaussianBlur stdDeviation="8"/>
<feColorMatrix type="matrix" values="0 0 0 0 0.116667 0 0 0 0 0.41712 0 0 0 0 1 0 0 0 0.16 0"/>
<feBlend mode="normal" in2="BackgroundImageFix" result="effect1_dropShadow"/>
<feBlend mode="normal" in="SourceGraphic" in2="effect1_dropShadow" result="shape"/>
</filter>
<radialGradient id="paint0_radial" cx="0" cy="0" r="1" gradientUnits="userSpaceOnUse" gradientTransform="translate(173 11.55) rotate(113.385) scale(104.809 87.3411)">
<stop stop-color="#E0E9FF"/>
<stop offset="0.03125" stop-color="#D0DDFF"/>
<stop offset="1" stop-color="white"/>
</radialGradient>
<radialGradient id="paint1_radial" cx="0" cy="0" r="1" gradientUnits="userSpaceOnUse" gradientTransform="translate(81 11.55) rotate(113.385) scale(104.809 87.3411)">
<stop stop-color="#E0E9FF"/>
<stop offset="0.03125" stop-color="#D0DDFF"/>
<stop offset="1" stop-color="white"/>
</radialGradient>
<radialGradient id="paint2_radial" cx="0" cy="0" r="1" gradientUnits="userSpaceOnUse" gradientTransform="translate(126 -26.45) rotate(113.385) scale(104.809 87.3411)">
<stop stop-color="#E0E9FF"/>
<stop offset="0.03125" stop-color="#D0DDFF"/>
<stop offset="1" stop-color="white"/>
</radialGradient>
</defs>
</svg>
