<svg width="221" height="126" viewBox="0 0 221 126" fill="none" xmlns="http://www.w3.org/2000/svg">
<g filter="url(#filter0_d)">
<path d="M127 52.952V8H205V52.952C205 58.6235 205 67.0257 200.112 76.0581C199.793 76.6883 199.474 77.3184 199.049 77.9486C198.837 78.2637 198.624 78.6838 198.411 78.9989L198.305 79.2089C192.142 88.5564 181.515 96.1184 166.638 101.79L166.106 102L165.575 101.79C150.91 96.1184 140.283 88.6615 134.12 79.524L134.12 79.5239C133.801 79.1039 133.482 78.6838 133.163 78.1587C132.632 77.4235 132.313 76.7933 131.888 76.0581C127 67.0257 127 58.5184 127 52.952Z" fill="url(#paint0_radial)"/>
</g>
<path d="M153.957 52.8485L156.453 57.1725C156.619 57.444 156.931 57.5485 157.223 57.444L160.268 56.2123C160.302 56.1989 160.339 56.2042 160.367 56.2259C160.984 56.7001 161.639 57.0979 162.369 57.4012C162.402 57.4149 162.426 57.445 162.431 57.4803L162.88 60.7445C162.943 61.0369 163.192 61.2667 163.504 61.2667H168.496C168.808 61.2667 169.058 61.0369 169.12 60.7236L169.57 57.4588C169.575 57.4238 169.598 57.3939 169.63 57.38C170.342 57.0768 171.016 56.6791 171.633 56.205C171.661 56.1833 171.699 56.178 171.732 56.1914L174.778 57.4231C175.069 57.5276 175.381 57.4231 175.547 57.1516L178.043 52.8276C178.21 52.556 178.127 52.2218 177.898 52.0129L175.303 49.9811C175.274 49.9588 175.26 49.9227 175.265 49.8868C175.321 49.5074 175.339 49.1109 175.339 48.7334C175.339 48.3339 175.301 47.9535 175.262 47.5557C175.258 47.5216 175.273 47.4881 175.3 47.467L177.898 45.4329C178.127 45.2449 178.21 44.8898 178.043 44.6183L175.547 40.2943C175.381 40.0227 175.069 39.9183 174.778 40.0227L171.732 41.2544C171.699 41.2678 171.661 41.2625 171.633 41.2408C171.017 40.7666 170.361 40.3689 169.631 40.0656C169.598 40.0519 169.575 40.0218 169.57 39.9864L169.12 36.7223C169.058 36.4298 168.808 36.2 168.496 36.2H163.504C163.192 36.2 162.943 36.4298 162.88 36.7431L162.43 40.0079C162.426 40.043 162.403 40.0728 162.37 40.0866C161.658 40.3887 160.967 40.767 160.368 41.2395C160.339 41.2619 160.301 41.2676 160.267 41.254L157.223 40.0227C156.931 39.9183 156.619 40.0227 156.453 40.2943L153.957 44.6183C153.791 44.8898 153.874 45.224 154.103 45.4329L156.698 47.465C156.727 47.4872 156.741 47.5229 156.736 47.5586C156.678 47.9553 156.64 48.3348 156.64 48.7334C156.64 49.1329 156.678 49.5132 156.718 49.9111C156.721 49.9451 156.707 49.9786 156.68 49.9997L154.082 52.0338C153.853 52.2427 153.791 52.5769 153.957 52.8485ZM166 45.1614C167.955 45.1614 169.557 46.7698 169.557 48.7334C169.557 50.6969 167.955 52.3054 166 52.3054C164.045 52.3054 162.443 50.6969 162.443 48.7334C162.443 46.7698 164.045 45.1614 166 45.1614ZM180.56 29.9334H151.44C149.131 29.9334 147.28 31.8134 147.28 34.1111V63.3556C147.28 65.6534 149.131 67.5334 151.44 67.5334H180.56C182.869 67.5334 184.72 65.6534 184.72 63.3556V34.1111C184.72 31.8134 182.869 29.9334 180.56 29.9334ZM180.56 63.2556C180.56 63.3108 180.515 63.3556 180.46 63.3556H151.54C151.485 63.3556 151.44 63.3108 151.44 63.2556V34.2112C151.44 34.1559 151.485 34.1111 151.54 34.1111H180.46C180.515 34.1111 180.56 34.1559 180.56 34.2111V63.2556Z" fill="#0039A6"/>
<g filter="url(#filter1_d)">
<path d="M16 52.952V8H94V52.952C94 58.6235 94 67.0257 89.1117 76.0581C88.7929 76.6883 88.4741 77.3184 88.049 77.9486C87.8365 78.2637 87.624 78.6838 87.4114 78.9989L87.3052 79.2089C81.1417 88.5564 70.515 96.1184 55.6376 101.79L55.1063 102L54.5749 101.79C39.9101 96.1184 29.2834 88.6615 23.1199 79.524L23.1198 79.5239C22.801 79.1039 22.4823 78.6838 22.1635 78.1587C21.6322 77.4235 21.3134 76.7933 20.8883 76.0581C16 67.0257 16 58.5184 16 52.952Z" fill="url(#paint1_radial)"/>
</g>
<path d="M60.8498 67.1417H49.1498C48.9353 67.1417 48.7598 67.3179 48.7598 67.5333V69.1C48.7598 69.9666 49.4569 70.6667 50.3198 70.6667H59.6798C60.5426 70.6667 61.2398 69.9666 61.2398 69.1V67.5333C61.2398 67.3179 61.0643 67.1417 60.8498 67.1417ZM54.9998 26.8C46.1711 26.8 39.0098 33.992 39.0098 42.8584C39.0098 48.7812 42.2049 53.9554 46.955 56.7384C46.9858 56.7564 47.0048 56.7893 47.0048 56.825V62.4417C47.0048 63.3082 47.7019 64.0084 48.5648 64.0084H61.4348C62.2976 64.0084 62.9948 63.3082 62.9948 62.4417V56.825C62.9948 56.7893 63.0138 56.7564 63.0445 56.7384C67.7946 53.9554 70.9898 48.7812 70.9898 42.8584C70.9898 33.992 63.8284 26.8 54.9998 26.8ZM61.2349 53.7173L59.5345 54.7067C59.5037 54.7246 59.4848 54.7575 59.4848 54.7932V60.3834C59.4848 60.4386 59.44 60.4834 59.3848 60.4834H50.6148C50.5595 60.4834 50.5148 60.4386 50.5148 60.3834V54.7932C50.5148 54.7575 50.4958 54.7246 50.4651 54.7067L48.7646 53.7173C44.928 51.4897 42.5198 47.387 42.5198 42.8584C42.5198 35.9356 48.1065 30.325 54.9998 30.325C61.893 30.325 67.4798 35.9356 67.4798 42.8584C67.4798 47.387 65.0715 51.4897 61.2349 53.7173Z" fill="#0039A6"/>
<defs>
<filter id="filter0_d" x="111" y="0" width="110" height="126" filterUnits="userSpaceOnUse" color-interpolation-filters="sRGB">
<feFlood flood-opacity="0" result="BackgroundImageFix"/>
<feColorMatrix in="SourceAlpha" type="matrix" values="0 0 0 0 0 0 0 0 0 0 0 0 0 0 0 0 0 0 127 0" result="hardAlpha"/>
<feOffset dy="8"/>
<feGaussianBlur stdDeviation="8"/>
<feColorMatrix type="matrix" values="0 0 0 0 0.116667 0 0 0 0 0.41712 0 0 0 0 1 0 0 0 0.16 0"/>
<feBlend mode="normal" in2="BackgroundImageFix" result="effect1_dropShadow"/>
<feBlend mode="normal" in="SourceGraphic" in2="effect1_dropShadow" result="shape"/>
</filter>
<filter id="filter1_d" x="0" y="0" width="110" height="126" filterUnits="userSpaceOnUse" color-interpolation-filters="sRGB">
<feFlood flood-opacity="0" result="BackgroundImageFix"/>
<feColorMatrix in="SourceAlpha" type="matrix" values="0 0 0 0 0 0 0 0 0 0 0 0 0 0 0 0 0 0 127 0" result="hardAlpha"/>
<feOffset dy="8"/>
<feGaussianBlur stdDeviation="8"/>
<feColorMatrix type="matrix" values="0 0 0 0 0.116667 0 0 0 0 0.41712 0 0 0 0 1 0 0 0 0.16 0"/>
<feBlend mode="normal" in2="BackgroundImageFix" result="effect1_dropShadow"/>
<feBlend mode="normal" in="SourceGraphic" in2="effect1_dropShadow" result="shape"/>
</filter>
<radialGradient id="paint0_radial" cx="0" cy="0" r="1" gradientUnits="userSpaceOnUse" gradientTransform="translate(205 -33.5167) rotate(113.296) scale(126.224 104.88)">
<stop stop-color="#E0E9FF"/>
<stop offset="0.03125" stop-color="#D0DDFF"/>
<stop offset="1" stop-color="white"/>
</radialGradient>
<radialGradient id="paint1_radial" cx="0" cy="0" r="1" gradientUnits="userSpaceOnUse" gradientTransform="translate(94 -33.5167) rotate(113.296) scale(126.224 104.88)">
<stop stop-color="#E0E9FF"/>
<stop offset="0.03125" stop-color="#D0DDFF"/>
<stop offset="1" stop-color="white"/>
</radialGradient>
</defs>
</svg>
