<svg width="40" height="40" viewBox="0 0 40 40" fill="none" xmlns="http://www.w3.org/2000/svg">
<path d="M34.1904 18.7143C34.1904 15.077 32.7455 11.5887 30.1736 9.01682C27.6017 6.44489 24.1134 5 20.4761 5C16.8389 5 13.3506 6.44489 10.7787 9.01682C8.20673 11.5887 6.76184 15.077 6.76184 18.7143" stroke="white" stroke-width="3" stroke-linecap="round" stroke-linejoin="round"/>
<path d="M3.33331 26.3226V23.1066C3.33343 22.342 3.58909 21.5994 4.05966 20.9968C4.53024 20.3943 5.18872 19.9663 5.93046 19.7808L8.91331 19.0334C9.06488 18.9957 9.22306 18.9929 9.37584 19.0254C9.52863 19.0579 9.672 19.1248 9.7951 19.2209C9.91819 19.3171 10.0178 19.44 10.0863 19.5804C10.1548 19.7208 10.1904 19.8749 10.1905 20.0311V29.3963C10.1907 29.5528 10.1553 29.7073 10.0868 29.8481C10.0183 29.9888 9.91858 30.1121 9.79524 30.2085C9.67191 30.3049 9.5282 30.3718 9.37507 30.4043C9.22194 30.4367 9.06342 30.4338 8.9116 30.3957L5.92874 29.65C5.18732 29.4643 4.52923 29.0361 4.05899 28.4336C3.58875 27.831 3.33333 27.0886 3.33331 26.3243V26.3226Z" stroke="white" stroke-width="3"/>
<path d="M37.619 26.3226V23.1066C37.6189 22.342 37.3633 21.5994 36.8927 20.9968C36.4221 20.3943 35.7636 19.9663 35.0219 19.7808L32.039 19.0334C31.8875 18.9957 31.7293 18.9929 31.5765 19.0254C31.4237 19.0579 31.2804 19.1248 31.1573 19.2209C31.0342 19.3171 30.9346 19.44 30.8661 19.5804C30.7976 19.7208 30.762 19.8749 30.7619 20.0311V29.3963C30.7617 29.5526 30.7971 29.707 30.8655 29.8475C30.9339 29.9881 31.0335 30.1113 31.1566 30.2076C31.2797 30.304 31.4232 30.371 31.5761 30.4036C31.729 30.4362 31.8873 30.4335 32.039 30.3957L35.0219 29.65C35.7636 29.4646 36.4221 29.0366 36.8927 28.434C37.3633 27.8314 37.6189 27.0888 37.619 26.3243V26.3226Z" stroke="white" stroke-width="3"/>
<path d="M34.1904 30.7139V31.571C34.1904 32.4803 33.8292 33.3524 33.1862 33.9954C32.5432 34.6384 31.6712 34.9996 30.7618 34.9996H24.7618" stroke="white" stroke-width="3"/>
<path d="M23.0477 37.5716H17.9048C17.2228 37.5716 16.5688 37.3007 16.0865 36.8184C15.6043 36.3362 15.3334 35.6821 15.3334 35.0001C15.3334 34.3182 15.6043 33.6641 16.0865 33.1819C16.5688 32.6996 17.2228 32.4287 17.9048 32.4287H23.0477C23.7296 32.4287 24.3837 32.6996 24.8659 33.1819C25.3482 33.6641 25.6191 34.3182 25.6191 35.0001C25.6191 35.6821 25.3482 36.3362 24.8659 36.8184C24.3837 37.3007 23.7296 37.5716 23.0477 37.5716Z" stroke="white" stroke-width="3"/>
</svg>
