<svg width="32" height="32" viewBox="0 0 32 32" fill="none" xmlns="http://www.w3.org/2000/svg">
<path d="M19.7574 7.93958H11.5116C9.44819 7.93958 7.76935 9.6534 7.76935 11.7598V20.2546C7.76935 22.3611 9.44819 24.0749 11.5116 24.0749H19.7574C21.8209 24.0749 23.4997 22.3611 23.4997 20.2546V11.7598C23.4997 9.6534 21.8209 7.93958 19.7574 7.93958ZM15.6503 21.0937C12.8532 21.0937 10.5778 18.7955 10.5778 15.9707C10.5778 13.1459 12.8536 10.8478 15.6503 10.8478C18.447 10.8478 20.7227 13.1459 20.7227 15.9707C20.7227 18.7955 18.4473 21.0937 15.6503 21.0937ZM20.813 11.8565C20.1538 11.8565 19.6195 11.3111 19.6195 10.6381C19.6195 9.96521 20.1538 9.41978 20.813 9.41978C21.4722 9.41978 22.0065 9.96521 22.0065 10.6381C22.0065 11.3111 21.4722 11.8565 20.813 11.8565Z" fill="white"/>
<path d="M15.6735 0C7.01734 0 0 7.16353 0 16C0 24.8365 7.01734 32 15.6735 32C24.3296 32 31.3469 24.8365 31.3469 16C31.3469 7.16353 24.3296 0 15.6735 0ZM25.3508 20.2547C25.3508 23.4033 22.8415 25.9646 19.7574 25.9646H11.5116C8.42729 25.9646 5.91824 23.403 5.91824 20.2547V11.7599C5.91824 8.61129 8.4276 6.04997 11.5116 6.04997H19.7574C22.8418 6.04997 25.3508 8.61162 25.3508 11.7599V20.2547Z" fill="white"/>
<path d="M15.6503 12.734C13.8719 12.734 12.4254 14.186 12.4254 15.9709C12.4254 17.7557 13.8719 19.2077 15.6503 19.2077C17.4286 19.2077 18.8751 17.7557 18.8751 15.9709C18.8751 14.186 17.4286 12.734 15.6503 12.734Z" fill="white"/>
</svg>
