<svg width="189" height="148" viewBox="0 0 189 148" fill="none" xmlns="http://www.w3.org/2000/svg">
<g filter="url(#filter0_d)">
<path d="M16 83.3006V46H81V83.3006C81 88.0067 81 94.9788 76.9264 102.474C76.6608 102.997 76.3951 103.52 76.0409 104.042C75.8638 104.304 75.6866 104.653 75.5095 104.914L75.421 105.088C70.2847 112.845 61.4292 119.12 49.0313 123.826L48.5886 124L48.1458 123.826C35.9251 119.12 27.0695 112.932 21.9332 105.35C21.6676 105.001 21.4019 104.653 21.1362 104.217C20.6935 103.607 20.4278 103.084 20.0736 102.474C16 94.9788 16 87.9196 16 83.3006Z" fill="url(#paint0_radial)"/>
</g>
<path d="M64.1 62.4667H32.9C30.9933 62.4667 29.4333 64.0267 29.4333 65.9333V86.7333C29.4333 88.64 30.9933 90.2 32.9 90.2H45.0333V93.6667H41.5667V97.1333H55.4333V93.6667H51.9667V90.2H64.1C66.0067 90.2 67.5667 88.64 67.5667 86.7333V65.9333C67.5667 64.0267 66.0067 62.4667 64.1 62.4667ZM64.1 86.7333H32.9V65.9333H64.1V86.7333Z" fill="#0039A6"/>
<g filter="url(#filter1_d)">
<path d="M108 83.3006V46H173V83.3006C173 88.0067 173 94.9788 168.926 102.474C168.661 102.997 168.395 103.52 168.041 104.042C167.864 104.304 167.687 104.653 167.51 104.914L167.421 105.088C162.285 112.845 153.429 119.12 141.031 123.826L140.589 124L140.146 123.826C127.925 119.12 119.069 112.932 113.933 105.35C113.668 105.001 113.402 104.653 113.136 104.217C112.693 103.607 112.428 103.084 112.074 102.474C108 94.9788 108 87.9196 108 83.3006Z" fill="url(#paint1_radial)"/>
</g>
<path d="M123.167 93.6667H157.833V86.7333H123.167V93.6667ZM126.633 88.4667H130.1V91.9333H126.633V88.4667ZM123.167 65.9333V72.8667H157.833V65.9333H123.167ZM130.1 71.1333H126.633V67.6667H130.1V71.1333ZM123.167 83.2667H157.833V76.3333H123.167V83.2667ZM126.633 78.0667H130.1V81.5333H126.633V78.0667Z" fill="#0039A6"/>
<g filter="url(#filter2_d)">
<path d="M62 45.3006V8H127V45.3006C127 50.0067 127 56.9788 122.926 64.4737C122.661 64.9967 122.395 65.5196 122.041 66.0425C121.864 66.3039 121.687 66.6525 121.51 66.914L121.421 67.0883C116.285 74.8447 107.429 81.1196 95.0313 85.8257L94.5886 86L94.1458 85.8257C81.9251 81.1196 73.0695 74.9318 67.9332 67.3497C67.6676 67.0011 67.4019 66.6525 67.1362 66.2168C66.6935 65.6067 66.4278 65.0838 66.0736 64.4737C62 56.9788 62 49.9196 62 45.3006Z" fill="url(#paint2_radial)"/>
</g>
<path d="M87.5667 29.6667H101.433C102.813 29.6667 104.135 30.2145 105.11 31.1897C106.086 32.1649 106.633 33.4876 106.633 34.8667V48.7333C106.633 50.1125 106.086 51.4351 105.11 52.4103C104.135 53.3855 102.813 53.9333 101.433 53.9333H87.5667C86.1876 53.9333 84.865 53.3855 83.8898 52.4103C82.9146 51.4351 82.3667 50.1125 82.3667 48.7333V34.8667C82.3667 33.4876 82.9146 32.1649 83.8898 31.1897C84.865 30.2145 86.1876 29.6667 87.5667 29.6667ZM87.5667 33.1333C87.107 33.1333 86.6662 33.316 86.3411 33.641C86.016 33.9661 85.8334 34.407 85.8334 34.8667V48.7333C85.8334 49.1931 86.016 49.6339 86.3411 49.959C86.6662 50.2841 87.107 50.4667 87.5667 50.4667H101.433C101.893 50.4667 102.334 50.2841 102.659 49.959C102.984 49.6339 103.167 49.1931 103.167 48.7333V34.8667C103.167 34.407 102.984 33.9661 102.659 33.641C102.334 33.316 101.893 33.1333 101.433 33.1333H87.5667ZM91.0334 36.6H97.9667C98.4265 36.6 98.8673 36.7826 99.1924 37.1077C99.5175 37.4328 99.7001 37.8736 99.7001 38.3333V45.2667C99.7001 45.7264 99.5175 46.1673 99.1924 46.4923C98.8673 46.8174 98.4265 47 97.9667 47H91.0334C90.5737 47 90.1328 46.8174 89.8078 46.4923C89.4827 46.1673 89.3001 45.7264 89.3001 45.2667V38.3333C89.3001 37.8736 89.4827 37.4328 89.8078 37.1077C90.1328 36.7826 90.5737 36.6 91.0334 36.6ZM92.7667 40.0667V43.5333H96.2334V40.0667H92.7667ZM87.5667 24.4667C88.0265 24.4667 88.4673 24.6493 88.7924 24.9744C89.1175 25.2994 89.3001 25.7403 89.3001 26.2V29.6667C89.3001 30.1264 89.1175 30.5673 88.7924 30.8923C88.4673 31.2174 88.0265 31.4 87.5667 31.4C87.107 31.4 86.6662 31.2174 86.3411 30.8923C86.016 30.5673 85.8334 30.1264 85.8334 29.6667V26.2C85.8334 25.7403 86.016 25.2994 86.3411 24.9744C86.6662 24.6493 87.107 24.4667 87.5667 24.4667ZM78.9001 33.1333H82.3667C82.8265 33.1333 83.2673 33.316 83.5924 33.641C83.9175 33.9661 84.1001 34.407 84.1001 34.8667C84.1001 35.3264 83.9175 35.7673 83.5924 36.0923C83.2673 36.4174 82.8265 36.6 82.3667 36.6H78.9001C78.4404 36.6 77.9995 36.4174 77.6744 36.0923C77.3494 35.7673 77.1667 35.3264 77.1667 34.8667C77.1667 34.407 77.3494 33.9661 77.6744 33.641C77.9995 33.316 78.4404 33.1333 78.9001 33.1333ZM106.633 33.1333H110.1C110.56 33.1333 111.001 33.316 111.326 33.641C111.651 33.9661 111.833 34.407 111.833 34.8667C111.833 35.3264 111.651 35.7673 111.326 36.0923C111.001 36.4174 110.56 36.6 110.1 36.6H106.633C106.174 36.6 105.733 36.4174 105.408 36.0923C105.083 35.7673 104.9 35.3264 104.9 34.8667C104.9 34.407 105.083 33.9661 105.408 33.641C105.733 33.316 106.174 33.1333 106.633 33.1333ZM78.9001 40.0667H82.3667C82.8265 40.0667 83.2673 40.2493 83.5924 40.5744C83.9175 40.8994 84.1001 41.3403 84.1001 41.8C84.1001 42.2597 83.9175 42.7006 83.5924 43.0257C83.2673 43.3507 82.8265 43.5333 82.3667 43.5333H78.9001C78.4404 43.5333 77.9995 43.3507 77.6744 43.0257C77.3494 42.7006 77.1667 42.2597 77.1667 41.8C77.1667 41.3403 77.3494 40.8994 77.6744 40.5744C77.9995 40.2493 78.4404 40.0667 78.9001 40.0667ZM106.633 40.0667H110.1C110.56 40.0667 111.001 40.2493 111.326 40.5744C111.651 40.8994 111.833 41.3403 111.833 41.8C111.833 42.2597 111.651 42.7006 111.326 43.0257C111.001 43.3507 110.56 43.5333 110.1 43.5333H106.633C106.174 43.5333 105.733 43.3507 105.408 43.0257C105.083 42.7006 104.9 42.2597 104.9 41.8C104.9 41.3403 105.083 40.8994 105.408 40.5744C105.733 40.2493 106.174 40.0667 106.633 40.0667ZM78.9001 47H82.3667C82.8265 47 83.2673 47.1826 83.5924 47.5077C83.9175 47.8328 84.1001 48.2736 84.1001 48.7333C84.1001 49.1931 83.9175 49.6339 83.5924 49.959C83.2673 50.2841 82.8265 50.4667 82.3667 50.4667H78.9001C78.4404 50.4667 77.9995 50.2841 77.6744 49.959C77.3494 49.6339 77.1667 49.1931 77.1667 48.7333C77.1667 48.2736 77.3494 47.8328 77.6744 47.5077C77.9995 47.1826 78.4404 47 78.9001 47ZM106.633 47H110.1C110.56 47 111.001 47.1826 111.326 47.5077C111.651 47.8328 111.833 48.2736 111.833 48.7333C111.833 49.1931 111.651 49.6339 111.326 49.959C111.001 50.2841 110.56 50.4667 110.1 50.4667H106.633C106.174 50.4667 105.733 50.2841 105.408 49.959C105.083 49.6339 104.9 49.1931 104.9 48.7333C104.9 48.2736 105.083 47.8328 105.408 47.5077C105.733 47.1826 106.174 47 106.633 47ZM87.5667 52.2C88.0265 52.2 88.4673 52.3826 88.7924 52.7077C89.1175 53.0328 89.3001 53.4736 89.3001 53.9333V57.4C89.3001 57.8597 89.1175 58.3006 88.7924 58.6257C88.4673 58.9507 88.0265 59.1333 87.5667 59.1333C87.107 59.1333 86.6662 58.9507 86.3411 58.6257C86.016 58.3006 85.8334 57.8597 85.8334 57.4V53.9333C85.8334 53.4736 86.016 53.0328 86.3411 52.7077C86.6662 52.3826 87.107 52.2 87.5667 52.2ZM101.433 24.4667C101.893 24.4667 102.334 24.6493 102.659 24.9744C102.984 25.2994 103.167 25.7403 103.167 26.2V29.6667C103.167 30.1264 102.984 30.5673 102.659 30.8923C102.334 31.2174 101.893 31.4 101.433 31.4C100.974 31.4 100.533 31.2174 100.208 30.8923C99.8827 30.5673 99.7001 30.1264 99.7001 29.6667V26.2C99.7001 25.7403 99.8827 25.2994 100.208 24.9744C100.533 24.6493 100.974 24.4667 101.433 24.4667ZM101.433 52.2C101.893 52.2 102.334 52.3826 102.659 52.7077C102.984 53.0328 103.167 53.4736 103.167 53.9333V57.4C103.167 57.8597 102.984 58.3006 102.659 58.6257C102.334 58.9507 101.893 59.1333 101.433 59.1333C100.974 59.1333 100.533 58.9507 100.208 58.6257C99.8827 58.3006 99.7001 57.8597 99.7001 57.4V53.9333C99.7001 53.4736 99.8827 53.0328 100.208 52.7077C100.533 52.3826 100.974 52.2 101.433 52.2ZM94.5001 24.4667C94.9598 24.4667 95.4007 24.6493 95.7257 24.9744C96.0508 25.2994 96.2334 25.7403 96.2334 26.2V29.6667C96.2334 30.1264 96.0508 30.5673 95.7257 30.8923C95.4007 31.2174 94.9598 31.4 94.5001 31.4C94.0404 31.4 93.5995 31.2174 93.2744 30.8923C92.9494 30.5673 92.7667 30.1264 92.7667 29.6667V26.2C92.7667 25.7403 92.9494 25.2994 93.2744 24.9744C93.5995 24.6493 94.0404 24.4667 94.5001 24.4667ZM94.5001 52.2C94.9598 52.2 95.4007 52.3826 95.7257 52.7077C96.0508 53.0328 96.2334 53.4736 96.2334 53.9333V57.4C96.2334 57.8597 96.0508 58.3006 95.7257 58.6257C95.4007 58.9507 94.9598 59.1333 94.5001 59.1333C94.0404 59.1333 93.5995 58.9507 93.2744 58.6257C92.9494 58.3006 92.7667 57.8597 92.7667 57.4V53.9333C92.7667 53.4736 92.9494 53.0328 93.2744 52.7077C93.5995 52.3826 94.0404 52.2 94.5001 52.2Z" fill="#0039A6"/>
<defs>
<filter id="filter0_d" x="0" y="38" width="97" height="110" filterUnits="userSpaceOnUse" color-interpolation-filters="sRGB">
<feFlood flood-opacity="0" result="BackgroundImageFix"/>
<feColorMatrix in="SourceAlpha" type="matrix" values="0 0 0 0 0 0 0 0 0 0 0 0 0 0 0 0 0 0 127 0"/>
<feOffset dy="8"/>
<feGaussianBlur stdDeviation="8"/>
<feColorMatrix type="matrix" values="0 0 0 0 0.116667 0 0 0 0 0.41712 0 0 0 0 1 0 0 0 0.16 0"/>
<feBlend mode="normal" in2="BackgroundImageFix" result="effect1_dropShadow"/>
<feBlend mode="normal" in="SourceGraphic" in2="effect1_dropShadow" result="shape"/>
</filter>
<filter id="filter1_d" x="92" y="38" width="97" height="110" filterUnits="userSpaceOnUse" color-interpolation-filters="sRGB">
<feFlood flood-opacity="0" result="BackgroundImageFix"/>
<feColorMatrix in="SourceAlpha" type="matrix" values="0 0 0 0 0 0 0 0 0 0 0 0 0 0 0 0 0 0 127 0"/>
<feOffset dy="8"/>
<feGaussianBlur stdDeviation="8"/>
<feColorMatrix type="matrix" values="0 0 0 0 0.116667 0 0 0 0 0.41712 0 0 0 0 1 0 0 0 0.16 0"/>
<feBlend mode="normal" in2="BackgroundImageFix" result="effect1_dropShadow"/>
<feBlend mode="normal" in="SourceGraphic" in2="effect1_dropShadow" result="shape"/>
</filter>
<filter id="filter2_d" x="46" y="0" width="97" height="110" filterUnits="userSpaceOnUse" color-interpolation-filters="sRGB">
<feFlood flood-opacity="0" result="BackgroundImageFix"/>
<feColorMatrix in="SourceAlpha" type="matrix" values="0 0 0 0 0 0 0 0 0 0 0 0 0 0 0 0 0 0 127 0"/>
<feOffset dy="8"/>
<feGaussianBlur stdDeviation="8"/>
<feColorMatrix type="matrix" values="0 0 0 0 0.116667 0 0 0 0 0.41712 0 0 0 0 1 0 0 0 0.16 0"/>
<feBlend mode="normal" in2="BackgroundImageFix" result="effect1_dropShadow"/>
<feBlend mode="normal" in="SourceGraphic" in2="effect1_dropShadow" result="shape"/>
</filter>
<radialGradient id="paint0_radial" cx="0" cy="0" r="1" gradientUnits="userSpaceOnUse" gradientTransform="translate(81 11.55) rotate(113.385) scale(104.809 87.3411)">
<stop stop-color="#E0E9FF"/>
<stop offset="0.03125" stop-color="#D0DDFF"/>
<stop offset="1" stop-color="white"/>
</radialGradient>
<radialGradient id="paint1_radial" cx="0" cy="0" r="1" gradientUnits="userSpaceOnUse" gradientTransform="translate(173 11.55) rotate(113.385) scale(104.809 87.3411)">
<stop stop-color="#E0E9FF"/>
<stop offset="0.03125" stop-color="#D0DDFF"/>
<stop offset="1" stop-color="white"/>
</radialGradient>
<radialGradient id="paint2_radial" cx="0" cy="0" r="1" gradientUnits="userSpaceOnUse" gradientTransform="translate(127 -26.45) rotate(113.385) scale(104.809 87.3411)">
<stop stop-color="#E0E9FF"/>
<stop offset="0.03125" stop-color="#D0DDFF"/>
<stop offset="1" stop-color="white"/>
</radialGradient>
</defs>
</svg>
