<svg width="189" height="148" viewBox="0 0 189 148" fill="none" xmlns="http://www.w3.org/2000/svg">
<g filter="url(#filter0_d)">
<path d="M108 83.3006V46H173V83.3006C173 88.0067 173 94.9788 168.926 102.474C168.661 102.997 168.395 103.52 168.041 104.042C167.864 104.304 167.687 104.653 167.51 104.914L167.421 105.088C162.285 112.845 153.429 119.12 141.031 123.826L140.589 124L140.146 123.826C127.925 119.12 119.069 112.932 113.933 105.35C113.668 105.001 113.402 104.653 113.136 104.217C112.693 103.607 112.428 103.084 112.074 102.474C108 94.9788 108 87.9196 108 83.3006Z" fill="url(#paint0_radial)"/>
</g>
<path d="M140.5 60.7334C132.856 60.7334 126.633 66.9561 126.633 74.6001C126.633 84.2547 138.697 97.7227 139.217 98.2947L140.5 99.7161L141.783 98.2947C142.303 97.7227 154.367 84.2547 154.367 74.6001C154.367 66.9561 148.144 60.7334 140.5 60.7334ZM140.5 94.4814C136.721 89.9574 130.1 80.7361 130.1 74.6001C130.1 68.8627 134.763 64.2001 140.5 64.2001C146.237 64.2001 150.9 68.8627 150.9 74.6001C150.9 81.2387 143.533 90.8241 140.5 94.4814ZM137.848 78.3614L134.797 75.2934L132.336 77.7547L137.848 83.2667L148.265 72.8494L145.821 70.3881L137.848 78.3614Z" fill="#0039A6"/>
<g filter="url(#filter1_d)">
<path d="M16 83.3006V46H81V83.3006C81 88.0067 81 94.9788 76.9264 102.474C76.6608 102.997 76.3951 103.52 76.0409 104.042C75.8638 104.304 75.6866 104.653 75.5095 104.914L75.421 105.088C70.2847 112.845 61.4292 119.12 49.0313 123.826L48.5886 124L48.1458 123.826C35.9251 119.12 27.0695 112.932 21.9332 105.35C21.6676 105.001 21.4019 104.653 21.1362 104.217C20.6935 103.607 20.4278 103.084 20.0736 102.474C16 94.9788 16 87.9196 16 83.3006Z" fill="url(#paint1_radial)"/>
</g>
<path d="M42.2804 85.9194C42.2804 85.5276 42.2053 85.1608 42.055 84.8192C41.9155 84.4775 41.6686 84.161 41.3145 83.8696C40.971 83.5681 40.5149 83.2968 39.946 83.0557C39.3879 82.8045 38.6903 82.5734 37.8532 82.3623C36.8336 82.1011 35.8569 81.7745 34.9231 81.3826C34.0001 80.9908 33.1844 80.5185 32.4761 79.9658C31.7677 79.4132 31.1989 78.7701 30.7696 78.0365C30.351 77.303 30.1417 76.459 30.1417 75.5044C30.1417 74.5799 30.351 73.7409 30.7696 72.9873C31.1881 72.2336 31.7677 71.5906 32.5083 71.058C33.2488 70.5254 34.1235 70.1185 35.1324 69.8371C36.1413 69.5457 37.236 69.4 38.4166 69.4C39.6402 69.4 40.7564 69.5658 41.7652 69.8974C42.7848 70.229 43.6596 70.6963 44.3894 71.2992C45.1192 71.892 45.688 72.6004 46.0959 73.4244C46.4899 74.2204 46.6936 75.0914 46.7069 76.0374C46.7077 76.0926 46.6629 76.1374 46.6076 76.1374H42.3922C42.3387 76.1374 42.2948 76.0952 42.2914 76.0418C42.2622 75.5864 42.1673 75.1661 42.0067 74.7809C41.8457 74.3689 41.5989 74.0172 41.2662 73.7258C40.9442 73.4244 40.5363 73.1933 40.0426 73.0325C39.5597 72.8617 38.9908 72.7763 38.3361 72.7763C37.7351 72.7763 37.1985 72.8466 36.7262 72.9873C36.2647 73.1179 35.873 73.3088 35.551 73.56C35.229 73.8012 34.9822 74.0926 34.8104 74.4342C34.6494 74.7658 34.569 75.1276 34.569 75.5194C34.569 75.9314 34.6763 76.3032 34.8909 76.6348C35.1163 76.9664 35.4383 77.2679 35.8569 77.5392C36.2755 77.8004 36.7799 78.0416 37.3702 78.2626C37.9712 78.4837 38.6474 78.6897 39.3987 78.8806C40.4719 79.172 41.4594 79.5287 42.3609 79.9508C43.2624 80.3728 44.0352 80.8752 44.6792 81.458C45.3339 82.0308 45.8383 82.6889 46.1925 83.4325C46.5574 84.166 46.7398 84.985 46.7398 85.8893C46.7398 86.8539 46.5306 87.7131 46.112 88.4667C45.7041 89.2103 45.1353 89.8433 44.4055 90.3658C43.6757 90.8783 42.8063 91.2702 41.7974 91.5415C40.7886 91.8027 39.6885 91.9334 38.4971 91.9334C37.7566 91.9334 37.016 91.868 36.2755 91.7374C35.5456 91.6168 34.8426 91.4259 34.1665 91.1647C33.501 90.9034 32.8786 90.5768 32.299 90.185C31.7194 89.7931 31.215 89.3359 30.7857 88.8134C30.3671 88.2908 30.0344 87.698 29.7875 87.0348C29.5612 86.3992 29.4434 85.6991 29.434 84.9343C29.4333 84.879 29.4781 84.8342 29.5333 84.8342H33.7799C33.8338 84.8342 33.878 84.8771 33.8806 84.931C33.9105 85.5528 34.0326 86.0883 34.247 86.5374C34.4724 87.0097 34.7836 87.3965 35.1807 87.698C35.5886 87.9994 36.0715 88.2205 36.6296 88.3612C37.1985 88.5019 37.821 88.5722 38.4971 88.5722C39.0982 88.5722 39.6294 88.5069 40.0909 88.3763C40.5632 88.2456 40.9603 88.0648 41.2823 87.8336C41.6042 87.6025 41.8511 87.3262 42.0228 87.0047C42.1945 86.6731 42.2804 86.3113 42.2804 85.9194Z" fill="#0039A6"/>
<path d="M55.3889 69.7015C55.4341 69.7015 55.4737 69.7318 55.4855 69.7755L57.5968 77.6108C57.623 77.7077 57.7596 77.71 57.789 77.6141L60.1931 69.7722C60.206 69.7302 60.2448 69.7015 60.2887 69.7015H65.7333C65.7886 69.7015 65.8333 69.7462 65.8333 69.8015V91.547C65.8333 91.6022 65.7886 91.647 65.7333 91.647H61.7798C61.7246 91.647 61.6798 91.6022 61.6798 91.547V85.1508L61.8602 75.563C61.8624 75.4479 61.7004 75.4209 61.6651 75.5304L58.8204 84.3429C58.8071 84.3842 58.7686 84.4122 58.7252 84.4122H56.6345C56.5905 84.4122 56.5516 84.3833 56.5388 84.3411L54.0173 75.9888C53.9837 75.8775 53.8193 75.9034 53.8216 76.0196L54.0005 85.1508V91.547C54.0005 91.6022 53.9558 91.647 53.9005 91.647H49.947C49.8917 91.647 49.847 91.6022 49.847 91.547V69.8015C49.847 69.7462 49.8917 69.7015 49.947 69.7015H55.3889Z" fill="#0039A6"/>
<g filter="url(#filter2_d)">
<path d="M61 45.3006V8H126V45.3006C126 50.0067 126 56.9788 121.926 64.4737C121.661 64.9967 121.395 65.5196 121.041 66.0425C120.864 66.3039 120.687 66.6525 120.51 66.914L120.421 67.0883C115.285 74.8447 106.429 81.1196 94.0313 85.8257L93.5886 86L93.1458 85.8257C80.9251 81.1196 72.0695 74.9318 66.9332 67.3497C66.6676 67.0011 66.4019 66.6525 66.1362 66.2168C65.6935 65.6067 65.4278 65.0838 65.0736 64.4737C61 56.9788 61 49.9196 61 45.3006Z" fill="url(#paint2_radial)"/>
</g>
<path d="M92.8292 34.8441C92.8292 34.8993 92.7844 34.9441 92.7292 34.9441H85.8937C85.8384 34.9441 85.7937 34.9888 85.7937 35.0441V53.8334C85.7937 53.8886 85.7489 53.9334 85.6937 53.9334H81.4749C81.4197 53.9334 81.3749 53.8886 81.3749 53.8334V35.0441C81.3749 34.9888 81.3301 34.9441 81.2749 34.9441H74.5333C74.4781 34.9441 74.4333 34.8993 74.4333 34.8441V31.5C74.4333 31.4448 74.4781 31.4 74.5333 31.4H92.7292C92.7844 31.4 92.8292 31.4448 92.8292 31.5V34.8441Z" fill="#0039A6"/>
<path d="M100.665 31.4C100.71 31.4 100.75 31.431 100.761 31.4753L102.814 39.5105C102.839 39.6092 102.978 39.6114 103.007 39.5137L105.344 31.4721C105.356 31.4294 105.395 31.4 105.44 31.4H110.733C110.789 31.4 110.833 31.4448 110.833 31.5V53.8334C110.833 53.8886 110.789 53.9334 110.733 53.9334H106.891C106.835 53.9334 106.791 53.8886 106.791 53.8334V47.2631L106.966 37.4356C106.968 37.3198 106.804 37.2938 106.77 37.4046L104.007 46.434C103.995 46.4761 103.956 46.5048 103.912 46.5048H101.883C101.839 46.5048 101.799 46.4752 101.787 46.4323L99.3386 37.8766C99.3064 37.7641 99.1403 37.789 99.1425 37.906L99.3163 47.2631V53.8334C99.3163 53.8886 99.2716 53.9334 99.2163 53.9334H95.3736C95.3184 53.9334 95.2736 53.8886 95.2736 53.8334V31.5C95.2736 31.4448 95.3184 31.4 95.3736 31.4H100.665Z" fill="#0039A6"/>
<defs>
<filter id="filter0_d" x="92" y="38" width="97" height="110" filterUnits="userSpaceOnUse" color-interpolation-filters="sRGB">
<feFlood flood-opacity="0" result="BackgroundImageFix"/>
<feColorMatrix in="SourceAlpha" type="matrix" values="0 0 0 0 0 0 0 0 0 0 0 0 0 0 0 0 0 0 127 0"/>
<feOffset dy="8"/>
<feGaussianBlur stdDeviation="8"/>
<feColorMatrix type="matrix" values="0 0 0 0 0.116667 0 0 0 0 0.41712 0 0 0 0 1 0 0 0 0.16 0"/>
<feBlend mode="normal" in2="BackgroundImageFix" result="effect1_dropShadow"/>
<feBlend mode="normal" in="SourceGraphic" in2="effect1_dropShadow" result="shape"/>
</filter>
<filter id="filter1_d" x="0" y="38" width="97" height="110" filterUnits="userSpaceOnUse" color-interpolation-filters="sRGB">
<feFlood flood-opacity="0" result="BackgroundImageFix"/>
<feColorMatrix in="SourceAlpha" type="matrix" values="0 0 0 0 0 0 0 0 0 0 0 0 0 0 0 0 0 0 127 0"/>
<feOffset dy="8"/>
<feGaussianBlur stdDeviation="8"/>
<feColorMatrix type="matrix" values="0 0 0 0 0.116667 0 0 0 0 0.41712 0 0 0 0 1 0 0 0 0.16 0"/>
<feBlend mode="normal" in2="BackgroundImageFix" result="effect1_dropShadow"/>
<feBlend mode="normal" in="SourceGraphic" in2="effect1_dropShadow" result="shape"/>
</filter>
<filter id="filter2_d" x="45" y="0" width="97" height="110" filterUnits="userSpaceOnUse" color-interpolation-filters="sRGB">
<feFlood flood-opacity="0" result="BackgroundImageFix"/>
<feColorMatrix in="SourceAlpha" type="matrix" values="0 0 0 0 0 0 0 0 0 0 0 0 0 0 0 0 0 0 127 0"/>
<feOffset dy="8"/>
<feGaussianBlur stdDeviation="8"/>
<feColorMatrix type="matrix" values="0 0 0 0 0.116667 0 0 0 0 0.41712 0 0 0 0 1 0 0 0 0.16 0"/>
<feBlend mode="normal" in2="BackgroundImageFix" result="effect1_dropShadow"/>
<feBlend mode="normal" in="SourceGraphic" in2="effect1_dropShadow" result="shape"/>
</filter>
<radialGradient id="paint0_radial" cx="0" cy="0" r="1" gradientUnits="userSpaceOnUse" gradientTransform="translate(173 11.55) rotate(113.385) scale(104.809 87.3411)">
<stop stop-color="#E0E9FF"/>
<stop offset="0.03125" stop-color="#D0DDFF"/>
<stop offset="1" stop-color="white"/>
</radialGradient>
<radialGradient id="paint1_radial" cx="0" cy="0" r="1" gradientUnits="userSpaceOnUse" gradientTransform="translate(81 11.55) rotate(113.385) scale(104.809 87.3411)">
<stop stop-color="#E0E9FF"/>
<stop offset="0.03125" stop-color="#D0DDFF"/>
<stop offset="1" stop-color="white"/>
</radialGradient>
<radialGradient id="paint2_radial" cx="0" cy="0" r="1" gradientUnits="userSpaceOnUse" gradientTransform="translate(126 -26.45) rotate(113.385) scale(104.809 87.3411)">
<stop stop-color="#E0E9FF"/>
<stop offset="0.03125" stop-color="#D0DDFF"/>
<stop offset="1" stop-color="white"/>
</radialGradient>
</defs>
</svg>
