<svg width="143" height="150" viewBox="0 0 143 150" fill="none" xmlns="http://www.w3.org/2000/svg">
<g filter="url(#filter0_d)">
<path d="M62 84.46V47H127V84.46C127 89.1862 127 96.1881 122.926 103.715C122.661 104.24 122.395 104.765 122.041 105.291C121.864 105.553 121.687 105.903 121.51 106.166L121.421 106.341C116.285 114.13 107.429 120.432 95.0313 125.158L94.5886 125.333L94.1458 125.158C81.9251 120.432 73.0695 114.218 67.9332 106.603L67.9332 106.603C67.6676 106.253 67.4019 105.903 67.1362 105.466C66.6935 104.853 66.4278 104.328 66.0736 103.715C62 96.1881 62 89.0987 62 84.46Z" fill="url(#paint0_radial)"/>
</g>
<path d="M84.4639 84.3737L86.5439 87.977C86.6826 88.2033 86.9426 88.2904 87.1852 88.2033L89.7145 87.1805C89.7476 87.1671 89.7852 87.1724 89.8135 87.1941C90.3226 87.5847 90.8634 87.9129 91.4652 88.1639C91.4982 88.1777 91.5216 88.2077 91.5264 88.2431L91.8999 90.9537C91.9519 91.1974 92.1599 91.3889 92.4199 91.3889H96.5799C96.8399 91.3889 97.0479 91.1974 97.0999 90.9363L97.4734 88.2251C97.4783 88.19 97.5013 88.1602 97.5338 88.1463C98.1208 87.8953 98.6765 87.5672 99.1863 87.1767C99.2146 87.155 99.2522 87.1497 99.2853 87.1631L101.815 88.1859C102.057 88.2729 102.317 88.1859 102.456 87.9596L104.536 84.3563C104.675 84.13 104.605 83.8515 104.415 83.6774L102.26 81.9903C102.231 81.9679 102.217 81.9319 102.222 81.896C102.267 81.5827 102.283 81.2559 102.283 80.9444C102.283 80.6146 102.251 80.3004 102.219 79.9721C102.215 79.9381 102.23 79.9046 102.257 79.8835L104.415 78.1941C104.605 78.0374 104.675 77.7415 104.536 77.5152L102.456 73.9118C102.317 73.6855 102.057 73.5985 101.815 73.6855L99.2853 74.7084C99.2522 74.7218 99.2146 74.7165 99.1863 74.6948C98.6772 74.3041 98.1364 73.976 97.5346 73.725C97.5016 73.7112 97.4782 73.6812 97.4734 73.6458L97.0999 70.9352C97.0479 70.6915 96.8399 70.5 96.5799 70.5H92.4199C92.1599 70.5 91.9519 70.6915 91.8999 70.9526L91.5264 73.6638C91.5215 73.6989 91.4985 73.7287 91.466 73.7426C90.8788 73.9924 90.3087 74.3045 89.8138 74.6935C89.7854 74.7159 89.7471 74.7216 89.7135 74.708L87.1852 73.6855C86.9426 73.5985 86.6826 73.6855 86.5439 73.9118L84.4639 77.5152C84.3252 77.7415 84.3946 78.02 84.5852 78.1941L86.7407 79.8815C86.7691 79.9037 86.7832 79.9394 86.7781 79.975C86.7308 80.3022 86.6999 80.6155 86.6999 80.9444C86.6999 81.2743 86.731 81.5885 86.7638 81.9167C86.7672 81.9508 86.7529 81.9843 86.7259 82.0054L84.5679 83.6948C84.3772 83.8689 84.3252 84.1474 84.4639 84.3737ZM94.4999 77.9678C96.1292 77.9678 97.4639 79.3081 97.4639 80.9444C97.4639 82.5807 96.1292 83.9211 94.4999 83.9211C92.8706 83.9211 91.5359 82.5807 91.5359 80.9444C91.5359 79.3081 92.8706 77.9678 94.4999 77.9678ZM106.633 65.2778H82.3666C80.4426 65.2778 78.8999 66.8444 78.8999 68.7593V93.1296C78.8999 95.0444 80.4426 96.6111 82.3666 96.6111H106.633C108.557 96.6111 110.1 95.0444 110.1 93.1296V68.7593C110.1 66.8444 108.557 65.2778 106.633 65.2778ZM106.633 93.0296C106.633 93.0848 106.588 93.1296 106.533 93.1296H82.4666C82.4113 93.1296 82.3666 93.0848 82.3666 93.0296V68.8593C82.3666 68.804 82.4113 68.7593 82.4666 68.7593H106.533C106.588 68.7593 106.633 68.804 106.633 68.8593V93.0296Z" fill="#0039A6"/>
<g filter="url(#filter1_d)">
<path d="M16 45.46V8H81V45.46C81 50.1862 81 57.1881 76.9264 64.7151C76.6608 65.2402 76.3951 65.7654 76.0409 66.2905C75.8638 66.5531 75.6866 66.9032 75.5095 67.1657L75.421 67.3408C70.2847 75.1304 61.4292 81.432 49.0313 86.1583L48.5886 86.3333L48.1458 86.1583C35.9251 81.432 27.0695 75.2179 21.9332 67.6034L21.9332 67.6033C21.6676 67.2532 21.4019 66.9032 21.1362 66.4656C20.6935 65.8529 20.4278 65.3278 20.0736 64.7151C16 57.1881 16 50.0987 16 45.46Z" fill="url(#paint1_radial)"/>
</g>
<path d="M53.375 57.2847H43.625C43.4463 57.2847 43.3 57.4316 43.3 57.6111V58.9167C43.3 59.6388 43.881 60.2222 44.6 60.2222H52.4C53.1191 60.2222 53.7001 59.6388 53.7001 58.9167V57.6111C53.7001 57.4316 53.5538 57.2847 53.375 57.2847ZM48.5 23.6667C41.1429 23.6667 35.175 29.66 35.175 37.0486C35.175 41.9809 37.834 46.2902 41.7878 48.6105C41.8185 48.6285 41.8375 48.6614 41.8375 48.6971V53.3681C41.8375 54.0902 42.4185 54.6736 43.1375 54.6736H53.8626C54.5816 54.6736 55.1625 54.0902 55.1625 53.3681V48.6971C55.1625 48.6614 55.1816 48.6285 55.2123 48.6105C59.1661 46.2902 61.8251 41.9809 61.8251 37.0486C61.8251 29.66 55.8572 23.6667 48.5 23.6667ZM53.696 46.0978L52.2873 46.9174C52.2565 46.9354 52.2375 46.9683 52.2375 47.0039V51.6361C52.2375 51.6914 52.1928 51.7361 52.1376 51.7361H44.8625C44.8073 51.7361 44.7625 51.6914 44.7625 51.6361V47.0039C44.7625 46.9683 44.7436 46.9354 44.7128 46.9174L43.3041 46.0978C40.1069 44.2414 38.1 40.8225 38.1 37.0486C38.1 31.2797 42.7557 26.6042 48.5 26.6042C54.2444 26.6042 58.9 31.2797 58.9 37.0486C58.9 40.8225 56.8932 44.2414 53.696 46.0978Z" fill="#0039A6"/>
<defs>
<filter id="filter0_d" x="46" y="39" width="97" height="110.333" filterUnits="userSpaceOnUse" color-interpolation-filters="sRGB">
<feFlood flood-opacity="0" result="BackgroundImageFix"/>
<feColorMatrix in="SourceAlpha" type="matrix" values="0 0 0 0 0 0 0 0 0 0 0 0 0 0 0 0 0 0 127 0"/>
<feOffset dy="8"/>
<feGaussianBlur stdDeviation="8"/>
<feColorMatrix type="matrix" values="0 0 0 0 0.116667 0 0 0 0 0.41712 0 0 0 0 1 0 0 0 0.16 0"/>
<feBlend mode="normal" in2="BackgroundImageFix" result="effect1_dropShadow"/>
<feBlend mode="normal" in="SourceGraphic" in2="effect1_dropShadow" result="shape"/>
</filter>
<filter id="filter1_d" x="0" y="0" width="97" height="110.333" filterUnits="userSpaceOnUse" color-interpolation-filters="sRGB">
<feFlood flood-opacity="0" result="BackgroundImageFix"/>
<feColorMatrix in="SourceAlpha" type="matrix" values="0 0 0 0 0 0 0 0 0 0 0 0 0 0 0 0 0 0 127 0"/>
<feOffset dy="8"/>
<feGaussianBlur stdDeviation="8"/>
<feColorMatrix type="matrix" values="0 0 0 0 0.116667 0 0 0 0 0.41712 0 0 0 0 1 0 0 0 0.16 0"/>
<feBlend mode="normal" in2="BackgroundImageFix" result="effect1_dropShadow"/>
<feBlend mode="normal" in="SourceGraphic" in2="effect1_dropShadow" result="shape"/>
</filter>
<radialGradient id="paint0_radial" cx="0" cy="0" r="1" gradientUnits="userSpaceOnUse" gradientTransform="translate(127 12.4028) rotate(113.296) scale(105.187 87.3996)">
<stop stop-color="#E0E9FF"/>
<stop offset="0.03125" stop-color="#D0DDFF"/>
<stop offset="1" stop-color="white"/>
</radialGradient>
<radialGradient id="paint1_radial" cx="0" cy="0" r="1" gradientUnits="userSpaceOnUse" gradientTransform="translate(81 -26.5972) rotate(113.296) scale(105.187 87.3996)">
<stop stop-color="#E0E9FF"/>
<stop offset="0.03125" stop-color="#D0DDFF"/>
<stop offset="1" stop-color="white"/>
</radialGradient>
</defs>
</svg>
