<svg width="838" height="365" viewBox="0 0 838 365" fill="none" xmlns="http://www.w3.org/2000/svg">
<path d="M0.428163 244.126L0.254883 244V244.126H0.428163Z" fill="#D52B1E"/>
<path d="M610 374L710 438V380L610 316L510 380V438L610 374Z" fill="#D52B1E"/>
<path d="M610 265L710 329V271L610 207L510 271V329L610 265Z" fill="#D52B1E"/>
<path d="M310 229L410 165V266H210V165L310 229Z" fill="#D52B1E"/>
<path d="M410 37L510 101V0H310V101L410 37Z" fill="#D52B1E"/>
<path d="M610 107L710 44L810 107L710 171L610 107Z" fill="#0039A6"/>
<path d="M310 329L410 266L510 329L410 393L310 329Z" fill="#0039A6"/>
<path d="M210 165L310 101L410 165L310 229L210 165Z" fill="#0039A6"/>
<path d="M410 165L510 101L610 165L510 229L410 165Z" fill="#C6C6C6"/>
<path d="M50 266H30V366H50V266Z" fill="#C6C6C6"/>
<path d="M90 266H70V366H90V266Z" fill="#C6C6C6"/>
<path d="M130 266H110V366H130V266Z" fill="#C6C6C6"/>
<path d="M170 266H150V366H170V266Z" fill="#C6C6C6"/>
<path d="M210 266H190V366H210V266Z" fill="#C6C6C6"/>
<path d="M730 171H710V271H730V171Z" fill="#C6C6C6"/>
<path d="M770 171H750V271H770V171Z" fill="#C6C6C6"/>
<path d="M810 171H790V271H810V171Z" fill="#C6C6C6"/>
<path d="M850 171H830V271H850V171Z" fill="#C6C6C6"/>
</svg>
