<svg width="19" height="19" viewBox="0 0 19 19" fill="none" xmlns="http://www.w3.org/2000/svg">
<path d="M13.3645 11.9458H12.5515L12.2633 11.6679C13.3067 10.4576 13.8802 8.91251 13.8791 7.31454C13.8791 5.99147 13.4867 4.69812 12.7517 3.59803C12.0166 2.49794 10.9719 1.64053 9.74951 1.13421C8.52716 0.627898 7.18212 0.495423 5.88447 0.753541C4.58683 1.01166 3.39487 1.64877 2.45932 2.58432C1.52377 3.51987 0.886658 4.71183 0.628541 6.00947C0.370423 7.30712 0.502898 8.65216 1.00921 9.87451C1.51553 11.0969 2.37294 12.1416 3.47303 12.8767C4.57312 13.6117 5.86647 14.0041 7.18954 14.0041C8.84649 14.0041 10.3696 13.3969 11.5429 12.3883L11.8208 12.6765V13.4895L16.9666 18.625L18.5 17.0916L13.3645 11.9458ZM7.18954 11.9458C4.62693 11.9458 2.55832 9.87714 2.55832 7.31454C2.55832 4.75193 4.62693 2.68332 7.18954 2.68332C9.75214 2.68332 11.8208 4.75193 11.8208 7.31454C11.8208 9.87714 9.75214 11.9458 7.18954 11.9458Z" fill="#CBD3E2"/>
</svg>
