<svg width="85" height="95" viewBox="0 0 85 95" fill="none" xmlns="http://www.w3.org/2000/svg">
<g filter="url(#filter0_d)">
<path d="M16 8V38.1274C16 41.8581 16 47.5598 19.3215 53.6134C19.6104 54.1061 19.827 54.5285 20.188 55.0212C20.4046 55.3732 20.6213 55.6547 20.8379 55.9363C25.0259 62.0603 32.2466 67.0581 42.2112 70.8592L42.5722 71L42.9332 70.8592C53.0422 67.0581 60.2629 61.9899 64.451 55.7251L64.5232 55.5844C64.6676 55.3732 64.812 55.0916 64.9564 54.8804C65.2452 54.4581 65.4619 54.0358 65.6785 53.6134C69 47.5598 69 41.9285 69 38.1274V8H16Z" fill="url(#paint0_radial)"/>
</g>
<path fill-rule="evenodd" clip-rule="evenodd" d="M33.5638 22.8972C34.2983 22.1626 35.2945 21.75 36.3333 21.75H49.6666C50.7054 21.75 51.7016 22.1626 52.4361 22.8972C53.1706 23.6317 53.5833 24.6279 53.5833 25.6667V47L51.7131 48.0853L47.6666 45.773L43.6201 48.0853H42.3798L38.3333 45.773L34.2868 48.0853L32.4166 47V25.6667C32.4166 24.6279 32.8293 23.6317 33.5638 22.8972ZM36.3333 24.25C35.9576 24.25 35.5972 24.3993 35.3316 24.6649C35.0659 24.9306 34.9166 25.2909 34.9166 25.6667V44.846L37.7131 43.248H38.9535L43 45.5603L47.0465 43.248H48.2868L51.0833 44.846V25.6667C51.0833 25.2909 50.934 24.9306 50.6684 24.6649C50.4027 24.3993 50.0423 24.25 49.6666 24.25H36.3333ZM39.68 30.9165C39.8298 30.9131 39.9729 30.8521 40.0791 30.7458C40.1885 30.6364 40.25 30.488 40.25 30.3333C40.25 30.1786 40.1885 30.0303 40.0791 29.9209C39.9729 29.8146 39.8298 29.7536 39.68 29.7502V30.9165ZM38.3113 28.978C38.6708 28.6186 39.1583 28.4167 39.6666 28.4167C40.175 28.4167 40.6625 28.6186 41.0219 28.978C41.3814 29.3375 41.5833 29.825 41.5833 30.3333C41.5833 30.8417 41.3814 31.3292 41.0219 31.6886C40.6625 32.0481 40.175 32.25 39.6666 32.25C39.1583 32.25 38.6708 32.0481 38.3113 31.6886C37.9519 31.3292 37.75 30.8417 37.75 30.3333C37.75 29.825 37.9519 29.3375 38.3113 28.978ZM39.2541 30.7458C39.3635 30.8552 39.5119 30.9167 39.6666 30.9167V29.75C39.5119 29.75 39.3635 29.8115 39.2541 29.9209C39.1447 30.0303 39.0833 30.1786 39.0833 30.3333C39.0833 30.488 39.1447 30.6364 39.2541 30.7458ZM47.8838 30.5506L39.8838 38.5506L38.1161 36.7828L46.1161 28.7828L47.8838 30.5506ZM46.3466 37.5832C46.4965 37.5798 46.6395 37.5187 46.7458 37.4125C46.8552 37.3031 46.9166 37.1547 46.9166 37C46.9166 36.8453 46.8552 36.6969 46.7458 36.5875C46.6395 36.4813 46.4965 36.4202 46.3466 36.4168V37.5832ZM44.978 35.6447C45.3375 35.2853 45.825 35.0833 46.3333 35.0833C46.8416 35.0833 47.3291 35.2853 47.6886 35.6447C48.048 36.0042 48.25 36.4917 48.25 37C48.25 37.5083 48.048 37.9958 47.6886 38.3553C47.3291 38.7147 46.8416 38.9167 46.3333 38.9167C45.825 38.9167 45.3375 38.7147 44.978 38.3553C44.6186 37.9958 44.4166 37.5083 44.4166 37C44.4166 36.4917 44.6186 36.0042 44.978 35.6447ZM45.9208 37.4125C46.0302 37.5219 46.1786 37.5833 46.3333 37.5833V36.4167C46.1786 36.4167 46.0302 36.4781 45.9208 36.5875C45.8114 36.6969 45.75 36.8453 45.75 37C45.75 37.1547 45.8114 37.3031 45.9208 37.4125Z" fill="#0039A6"/>
<defs>
<filter id="filter0_d" x="0" y="0" width="85" height="95" filterUnits="userSpaceOnUse" color-interpolation-filters="sRGB">
<feFlood flood-opacity="0" result="BackgroundImageFix"/>
<feColorMatrix in="SourceAlpha" type="matrix" values="0 0 0 0 0 0 0 0 0 0 0 0 0 0 0 0 0 0 127 0"/>
<feOffset dy="8"/>
<feGaussianBlur stdDeviation="8"/>
<feColorMatrix type="matrix" values="0 0 0 0 0.116667 0 0 0 0 0.41712 0 0 0 0 1 0 0 0 0.16 0"/>
<feBlend mode="normal" in2="BackgroundImageFix" result="effect1_dropShadow"/>
<feBlend mode="normal" in="SourceGraphic" in2="effect1_dropShadow" result="shape"/>
</filter>
<radialGradient id="paint0_radial" cx="0" cy="0" r="1" gradientUnits="userSpaceOnUse" gradientTransform="translate(69 -19.825) rotate(113.584) scale(84.7812 71.1095)">
<stop stop-color="#E0E9FF"/>
<stop offset="0.03125" stop-color="#D0DDFF"/>
<stop offset="1" stop-color="white"/>
</radialGradient>
</defs>
</svg>
