<svg width="33" height="32" viewBox="0 0 33 32" fill="none" xmlns="http://www.w3.org/2000/svg">
<g clip-path="url(#clip0)">
<path d="M16.3469 0C7.51045 0 0.346924 7.16353 0.346924 16C0.346924 24.8365 7.51045 32 16.3469 32C25.1834 32 32.3469 24.8365 32.3469 16C32.3469 7.16353 25.1834 0 16.3469 0ZM25.2295 12.1823V12.7378C25.2295 18.2923 21.0637 24.5873 13.38 24.5873C10.9731 24.5873 8.844 23.9393 6.99228 22.7359C7.3625 22.8284 7.64024 22.8284 8.01045 22.8284C9.95465 22.8284 11.806 22.1804 13.1947 21.0694C11.3434 21.0694 9.86217 19.866 9.30669 18.1995C9.49196 18.292 9.7697 18.292 10.0474 18.292C10.4177 18.292 10.7879 18.1995 11.1584 18.1067C9.21422 17.7365 7.82583 16.0701 7.82583 14.0334V13.9409C8.38132 14.3112 9.02927 14.4964 9.67723 14.4964C8.56626 13.7557 7.82583 12.5522 7.82583 11.0711C7.82583 10.2378 8.0111 9.58988 8.38132 8.94192C10.5105 11.4413 13.5656 13.1077 16.9907 13.293C16.8982 13.0153 16.8982 12.7375 16.8982 12.3673C16.8982 10.0529 18.7496 8.20149 21.064 8.20149C22.2674 8.20149 23.3784 8.6645 24.1188 9.4974C25.137 9.31213 25.9702 8.94192 26.8034 8.47923C26.4332 9.4974 25.7853 10.2382 24.952 10.7936C25.7853 10.7012 26.6185 10.5159 27.3589 10.1457C26.8034 10.9789 26.1552 11.7193 25.2295 12.1823Z" fill="white"/>
</g>
<defs>
<clipPath id="clip0">
<rect width="32" height="32" fill="white" transform="translate(0.346924)"/>
</clipPath>
</defs>
</svg>
